{"glyphs":{"0":{"ha":539,"x_min":0,"x_max":0,"o":"m 456 578 b 293 328 456 461 393 328 b 140 500 224 328 140 415 b 332 747 140 581 231 747 b 456 578 418 747 456 668 z m 49 307 b 188 164 49 251 61 164 b 522 553 339 164 522 331 b 274 833 522 806 336 833 b 18 606 174 833 18 779 b 50 375 18 538 50 479 b 50 363 50 371 50 367 b 49 307 50 343 49 325 z "},"1":{"ha":354,"x_min":0,"x_max":0,"o":"m 332 331 b 282 599 332 410 282 471 b 301 769 282 678 301 719 b 192 857 301 857 203 857 b 19 693 133 857 19 801 b 78 635 19 638 72 635 b 194 718 128 635 161 718 b 211 701 203 718 211 711 b 75 306 211 599 75 422 b 189 111 75 218 115 111 b 332 325 244 111 332 190 b 332 331 332 326 332 329 z "},"2":{"ha":607,"x_min":0,"x_max":0,"o":"m 231 86 b 593 351 447 99 593 222 b 490 474 593 406 561 474 b 294 197 369 474 399 283 b 246 176 278 183 261 176 b 179 282 197 176 179 242 b 444 758 179 411 444 610 b 304 881 444 793 425 881 b 83 772 264 881 215 879 b 15 638 17 719 15 649 b 96 563 15 569 78 563 b 306 744 176 563 232 744 b 331 713 321 744 331 732 b 31 229 331 564 31 397 b 231 86 31 132 133 88 z "},"3":{"ha":599,"x_min":0,"x_max":0,"o":"m 321 63 b 581 269 431 63 581 142 b 322 586 581 449 322 504 b 488 821 322 644 488 749 b 324 908 488 900 363 908 b 15 679 186 908 15 803 b 107 553 15 628 46 553 b 335 768 211 553 235 768 b 368 747 347 768 368 763 b 254 579 368 713 254 651 b 424 272 254 490 424 374 b 286 128 424 196 353 128 b 197 203 222 128 197 165 b 319 385 197 290 319 311 b 243 467 319 421 285 467 b 69 256 144 467 69 351 b 304 63 69 132 185 63 b 307 63 304 63 306 63 b 321 63 311 63 317 63 z "},"4":{"ha":746,"x_min":0,"x_max":0,"o":"m 188 972 b 42 847 117 972 42 917 b 100 692 42 778 100 771 b 17 399 100 600 17 460 b 94 326 17 354 51 326 b 200 340 131 326 172 340 b 265 278 240 340 265 317 b 244 149 265 242 244 199 b 376 6 244 32 332 6 b 474 83 432 6 474 43 b 353 256 474 154 353 189 b 425 310 353 283 374 310 b 558 288 476 310 497 288 b 726 417 638 288 726 347 b 636 513 726 464 688 513 b 392 411 581 513 414 411 b 375 428 382 411 375 417 b 418 554 375 463 418 507 b 353 624 418 603 378 624 b 294 563 321 624 294 599 b 306 519 294 539 304 531 b 311 469 308 503 311 486 b 254 407 311 419 275 407 b 188 476 219 407 188 442 b 188 972 188 532 456 972 z "},"5":{"ha":674,"x_min":0,"x_max":0,"o":"m 235 110 b 658 413 536 133 658 322 b 193 699 658 647 193 571 b 249 750 193 713 201 750 b 446 704 304 750 386 704 b 518 758 521 704 518 757 b 371 844 518 797 474 844 b 263 836 321 844 297 836 b 157 863 200 836 197 863 b 46 744 119 863 46 831 b 376 490 46 597 243 607 b 403 446 394 475 403 460 b 17 258 403 335 17 425 b 235 110 17 225 29 110 z "},"6":{"ha":649,"x_min":0,"x_max":0,"o":"m 556 322 b 424 133 543 286 531 194 b 358 115 401 121 381 115 b 250 190 315 115 250 147 b 340 400 250 229 286 261 b 419 468 358 447 381 468 b 556 325 439 468 556 461 b 556 322 556 324 556 322 z m 15 381 b 303 43 15 206 128 43 b 632 411 496 43 632 256 b 457 588 632 547 528 588 b 197 475 319 588 269 475 b 117 575 188 475 117 479 b 236 758 117 674 185 758 b 404 631 310 758 303 631 b 518 758 483 631 518 704 b 333 911 518 847 419 911 b 15 381 10 911 15 460 z "},"7":{"ha":621,"x_min":0,"x_max":0,"o":"m 100 217 b 218 57 96 149 118 57 b 354 239 332 57 354 196 b 313 407 354 319 313 339 b 604 826 313 585 604 663 b 538 910 604 871 582 910 b 351 867 492 910 435 867 b 224 875 308 867 294 875 b 47 808 147 875 97 874 b 19 726 29 783 19 756 b 86 635 19 675 43 635 b 371 819 193 635 215 819 b 457 760 415 819 457 803 b 100 217 457 628 119 463 z "},"8":{"ha":578,"x_min":0,"x_max":0,"o":"m 321 761 b 422 908 326 824 376 908 b 492 828 454 908 492 872 b 368 689 492 747 415 689 b 321 760 339 689 321 713 b 321 761 321 760 321 761 z m 474 325 b 358 118 483 269 451 179 b 296 97 336 104 315 97 b 228 174 253 97 228 129 b 400 399 228 244 349 399 b 474 325 401 399 460 397 z m 310 -1 b 558 249 442 -1 558 101 b 419 556 558 415 419 485 b 540 831 419 615 540 714 b 381 979 540 926 457 979 b 147 776 272 979 147 872 b 311 617 147 679 251 675 b 332 582 325 604 332 592 b 18 238 332 510 18 489 b 286 -1 18 89 156 -1 b 294 -1 289 -1 292 -1 b 310 -1 300 -1 304 -1 z "},"9":{"ha":581,"x_min":0,"x_max":0,"o":"m 294 643 b 165 758 168 658 165 746 b 226 849 165 808 204 849 b 351 725 240 849 247 846 b 364 694 360 715 364 704 b 294 643 364 653 307 646 z m 558 485 b 240 926 558 908 296 926 b 35 669 150 926 35 850 b 217 450 35 568 89 450 b 401 532 317 450 346 532 b 468 394 429 532 468 494 b 288 140 468 247 357 140 b 163 379 181 140 218 288 b 117 408 150 399 133 408 b 21 256 67 408 21 328 b 240 44 21 138 121 44 b 558 485 390 44 554 201 z "},"\u0000":{"ha":0,"x_min":0,"x_max":0,"o":""},"\r":{"ha":347,"x_min":0,"x_max":0,"o":""}," ":{"ha":435,"x_min":0,"x_max":0,"o":""},"!":{"ha":299,"x_min":0,"x_max":0,"o":"m 24 457 b 128 332 24 404 51 332 b 253 511 199 332 253 426 b 129 776 253 653 129 688 b 221 1063 129 846 221 965 b 154 1126 221 1118 169 1126 b 49 938 99 1126 49 1019 b 68 758 49 872 68 850 b 24 457 68 661 24 508 z m 197 218 b 99 133 150 218 99 194 b 185 38 99 81 136 38 b 283 133 236 38 283 82 b 197 218 283 182 247 218 z "},"\"":{"ha":363,"x_min":0,"x_max":0,"o":"m 171 1072 b 115 1156 171 1119 157 1156 b 18 990 72 1156 18 1090 b 49 835 18 938 35 886 b 72 817 51 828 64 817 b 171 1072 106 817 171 972 z m 347 1040 b 279 1117 347 1083 329 1117 b 211 1014 214 1117 211 1039 b 224 867 211 986 221 878 b 247 844 228 853 238 844 b 347 1040 285 844 347 960 z "},"#":{"ha":750,"x_min":0,"x_max":0,"o":"m 357 86 b 350 260 357 121 350 253 b 406 414 350 292 344 414 b 451 342 432 414 451 375 b 422 185 451 306 422 243 b 472 118 422 118 465 118 b 549 232 474 118 549 118 b 532 347 549 279 532 322 b 568 383 532 376 550 383 b 621 376 590 383 601 376 b 693 431 654 376 693 399 b 631 476 693 475 636 476 b 525 474 589 476 525 442 b 586 501 525 482 538 492 b 736 586 614 507 736 514 b 665 640 736 621 707 640 b 543 594 608 640 563 594 b 531 639 536 594 531 599 b 557 871 531 678 557 817 b 504 943 557 946 507 943 b 396 767 440 943 396 856 b 433 611 396 693 433 649 b 367 553 433 571 385 553 b 318 601 347 553 318 567 b 344 792 318 647 344 657 b 308 879 344 826 349 879 b 271 850 289 879 278 867 b 197 592 224 744 256 592 b 99 608 163 592 124 608 b 14 550 83 608 14 597 b 97 485 14 518 47 485 b 163 493 124 485 136 493 b 208 474 206 493 208 481 b 96 403 208 439 96 453 b 169 356 96 379 129 356 b 261 374 207 356 246 374 b 272 364 268 374 272 371 b 211 154 272 339 211 261 b 294 17 211 89 238 17 b 357 86 304 17 357 19 z "},"$":{"ha":763,"x_min":0,"x_max":0,"o":"m 690 504 b 449 603 690 615 483 603 b 322 683 324 603 322 681 b 431 747 322 740 414 747 b 617 693 499 747 533 693 b 731 782 667 693 731 724 b 660 868 731 792 726 853 b 556 940 622 875 565 871 b 526 1018 551 967 540 994 b 472 1050 515 1040 494 1050 b 399 971 425 1050 399 1017 b 410 897 399 936 410 911 b 182 750 410 838 288 864 b 149 671 160 726 149 699 b 426 501 149 521 426 564 b 269 425 426 478 374 425 b 193 426 244 425 218 426 b 21 272 92 426 21 350 b 186 121 21 182 118 121 b 339 190 269 121 306 190 b 358 164 350 190 358 181 b 353 79 358 149 353 114 b 464 -79 353 11 383 -79 b 576 46 542 -79 576 -3 b 486 231 576 122 486 178 b 690 504 486 303 690 346 z "},"%":{"ha":931,"x_min":0,"x_max":0,"o":"m 15 33 b 101 -78 1 7 18 -78 b 263 182 168 -78 236 3 b 590 597 294 397 471 465 b 933 969 824 854 933 860 b 840 1053 933 1019 894 1053 b 353 486 622 1053 582 703 b 15 33 172 315 76 232 z m 300 894 b 279 775 300 867 279 847 b 281 750 279 761 281 756 b 238 708 281 724 264 708 b 161 803 179 708 161 769 b 251 939 161 851 203 939 b 300 894 267 939 300 938 z m 247 592 b 419 742 331 592 419 647 b 414 781 419 756 417 768 b 322 997 388 868 443 915 b 243 1024 297 1015 269 1024 b 54 806 160 1024 64 922 b 54 800 54 803 54 801 b 247 592 54 678 143 592 z m 821 256 b 735 133 821 206 793 133 b 614 214 676 133 614 185 b 671 317 614 229 619 226 b 710 342 679 333 692 342 b 767 331 713 342 744 339 b 821 256 808 315 815 303 z m 708 42 b 888 246 846 42 888 154 b 681 442 888 413 725 442 b 508 300 583 442 549 363 b 479 218 489 271 479 244 b 708 42 479 144 576 49 z "},"&":{"ha":1056,"x_min":0,"x_max":0,"o":"m 422 1019 b 79 817 165 1019 79 893 b 274 621 79 694 274 678 b 97 457 274 574 121 475 b 25 317 50 421 25 372 b 465 -44 25 288 42 -44 b 653 175 535 -44 653 38 b 590 392 653 256 590 344 b 715 482 590 456 665 482 b 881 428 799 482 801 428 b 1036 551 951 428 1036 476 b 925 638 1036 600 996 638 b 647 546 843 638 750 546 b 519 560 599 546 585 560 b 418 458 461 560 418 513 b 593 172 418 356 593 286 b 499 75 593 124 564 75 b 233 268 406 75 233 132 b 357 554 233 421 357 422 b 204 801 357 715 204 717 b 304 899 204 858 279 899 b 539 643 403 899 369 643 b 740 815 663 643 740 731 b 424 1019 740 990 458 1024 z "},"'":{"ha":181,"x_min":0,"x_max":0,"o":"m 160 1040 b 92 1117 160 1083 142 1117 b 24 1014 26 1117 24 1039 b 36 867 24 986 33 878 b 60 844 40 853 50 844 b 160 1040 97 844 160 960 z "},"(":{"ha":557,"x_min":0,"x_max":0,"o":"m 38 244 b 392 -140 38 -99 371 -140 b 513 -18 515 -140 513 -21 b 142 585 513 165 142 161 b 350 953 142 590 143 885 b 513 1025 394 967 458 957 b 529 1064 524 1039 529 1053 b 454 1110 529 1085 515 1110 b 38 251 83 1110 57 410 b 38 244 38 249 38 247 z "},")":{"ha":624,"x_min":0,"x_max":0,"o":"m 169 190 b 19 -8 86 174 19 154 b 158 -135 19 -67 72 -135 b 251 -87 193 -135 224 -119 b 593 556 469 163 593 388 b 208 1047 593 835 322 851 b 108 1115 199 1064 163 1115 b 57 1057 67 1115 57 1081 b 354 828 57 913 349 829 b 482 650 438 794 482 733 b 169 190 482 582 418 240 z "},"*":{"ha":543,"x_min":0,"x_max":0,"o":"m 225 1069 b 75 1044 214 1069 75 1117 b 267 933 75 971 267 997 b 29 794 267 867 29 886 b 126 731 29 758 72 731 b 321 881 235 731 281 881 b 411 781 363 881 329 813 b 439 775 421 776 431 775 b 486 821 467 775 486 797 b 393 953 486 868 393 938 b 435 971 393 974 422 965 b 513 1029 501 999 513 1008 b 479 1064 513 1040 506 1064 b 369 1044 421 1064 382 1044 b 351 1058 351 1044 351 1054 b 382 1144 351 1079 382 1111 b 353 1176 382 1164 369 1176 b 290 1143 332 1176 306 1158 b 225 1069 263 1114 253 1069 z "},"+":{"ha":650,"x_min":0,"x_max":0,"o":"m 272 425 b 181 168 271 274 181 235 b 267 94 181 117 232 94 b 403 279 329 94 403 165 b 344 503 403 378 344 461 b 407 544 344 519 353 544 b 539 528 453 544 508 528 b 638 619 601 528 638 588 b 560 676 638 657 601 676 b 369 632 511 676 413 632 b 331 654 349 632 331 640 b 386 813 331 671 386 751 b 313 879 386 836 368 879 b 197 778 258 879 197 839 b 238 628 197 736 238 650 b 208 599 238 611 225 599 b 108 631 185 599 150 631 b 15 554 67 631 15 594 b 78 493 15 553 17 493 b 229 533 149 493 200 533 b 272 425 261 533 261 489 z "},",":{"ha":251,"x_min":0,"x_max":0,"o":"m 10 -100 b 142 257 154 -100 268 257 b 89 215 126 257 89 247 b 94 178 89 201 94 193 b -58 -29 94 96 -58 69 b 10 -100 -58 -99 0 -100 z "},"-":{"ha":632,"x_min":0,"x_max":0,"o":"m 271 457 b 610 496 325 457 610 338 b 479 567 610 531 585 567 b 208 514 340 567 292 514 b 97 528 185 514 138 528 b 24 461 57 528 24 514 b 97 406 24 421 51 406 b 271 457 176 406 214 457 z "},".":{"ha":224,"x_min":0,"x_max":0,"o":"m 58 175 b 113 97 58 158 65 97 b 176 167 149 97 176 132 b 117 226 176 201 151 226 b 58 175 86 226 58 204 z "},"/":{"ha":865,"x_min":0,"x_max":0,"o":"m -24 -40 b 85 -181 -24 -81 -7 -181 b 268 39 172 -181 253 -97 b 833 1085 321 511 833 775 b 774 1156 833 1151 782 1156 b 563 907 715 1156 607 1051 b 388 563 525 788 497 667 b 286 369 333 510 297 446 b -24 -40 256 175 -12 190 z "},":":{"ha":275,"x_min":0,"x_max":0,"o":"m 74 617 b 128 539 74 600 81 539 b 192 608 164 539 192 574 b 132 668 192 643 167 668 b 74 617 101 668 74 646 z m 161 308 b 63 224 114 308 63 285 b 149 128 63 171 100 128 b 247 224 200 128 247 172 b 161 308 247 272 211 308 z "},";":{"ha":372,"x_min":0,"x_max":0,"o":"m 31 617 b 85 539 31 600 38 539 b 149 608 121 539 149 574 b 89 668 149 643 124 668 b 31 617 58 668 31 646 z m -40 -72 b 92 285 104 -72 218 285 b 39 243 76 285 39 275 b 44 206 39 229 44 221 b -108 -1 44 124 -108 97 b -40 -72 -108 -71 -50 -72 z "},"<":{"ha":644,"x_min":0,"x_max":0,"o":"m 490 94 b 626 211 619 94 626 193 b 117 483 626 404 117 372 b 386 694 117 556 258 553 b 499 768 442 756 461 735 b 521 810 514 781 521 796 b 440 879 521 844 481 879 b 210 696 389 879 299 824 b 14 499 114 558 14 589 b 174 325 14 413 156 335 b 490 94 307 247 336 101 z "},"=":{"ha":700,"x_min":0,"x_max":0,"o":"m 551 269 b 679 369 674 269 679 358 b 607 439 679 399 657 439 b 481 418 561 439 532 418 b 299 471 393 418 381 471 b 57 394 246 471 78 408 b 24 346 35 381 24 364 b 82 290 24 338 26 297 b 229 278 114 286 179 278 b 372 286 268 278 299 286 b 551 269 478 286 485 269 z m 100 654 b 21 610 40 654 21 633 b 92 553 21 582 47 553 b 340 568 215 553 243 568 b 524 547 449 568 469 547 b 631 621 628 547 631 615 b 488 703 631 643 618 703 b 147 651 392 703 253 651 b 100 654 125 651 115 654 z "},">":{"ha":622,"x_min":0,"x_max":0,"o":"m 129 74 b 506 368 343 90 294 314 b 601 486 557 381 601 439 b 297 688 601 594 389 524 b 118 929 251 769 210 929 b 22 833 75 929 22 889 b 375 510 22 708 371 513 b 396 472 389 499 396 485 b 14 171 396 363 14 321 b 129 74 14 97 101 83 z "},"?":{"ha":668,"x_min":0,"x_max":0,"o":"m 19 772 b 139 606 21 704 67 606 b 254 718 185 606 247 650 b 261 813 257 750 257 781 b 465 1001 274 913 371 1001 b 511 969 493 1001 511 992 b 292 585 511 872 325 856 b 232 349 281 500 232 433 b 329 246 232 260 303 246 b 465 404 343 246 465 250 b 369 621 465 528 369 536 b 654 997 369 753 654 846 b 504 1118 654 1068 593 1118 b 19 775 438 1118 19 1040 b 19 772 19 774 19 774 z m 331 81 b 396 129 367 81 396 104 b 336 175 396 153 363 175 b 276 125 308 175 276 153 b 331 81 276 101 297 81 z "},"@":{"ha":879,"x_min":0,"x_max":0,"o":"m 117 322 b 126 428 126 411 126 413 b 60 617 126 531 60 536 b 156 771 60 629 67 719 b 321 875 207 801 275 815 b 408 915 343 903 374 915 b 801 658 490 915 801 838 b 367 125 801 378 808 213 b 300 122 354 122 344 122 b 115 306 196 122 115 206 b 117 322 115 311 115 317 z m 311 0 b 854 590 857 0 854 453 b 390 957 854 940 399 957 b 22 603 192 957 22 799 b 65 453 22 519 65 526 b 14 235 65 397 14 308 b 311 0 14 146 108 0 z m 469 686 b 417 625 469 658 443 625 b 379 663 401 625 379 639 b 433 721 379 690 406 721 b 469 686 457 721 469 707 z m 292 279 b 421 515 432 279 421 468 b 440 571 421 549 429 571 b 522 321 483 571 424 321 b 625 506 569 321 625 422 b 411 782 625 656 503 782 b 307 649 408 782 307 786 b 314 558 307 599 314 590 b 238 332 314 461 238 396 b 292 279 238 300 258 279 z "},"A":{"ha":651,"x_min":0,"x_max":0,"o":"m 335 515 b 219 642 300 515 219 540 b 432 868 219 757 385 868 b 475 774 472 868 475 815 b 475 757 475 768 475 763 b 335 515 469 626 417 515 z m 210 290 b 206 344 210 322 206 328 b 304 460 206 386 243 460 b 419 344 329 460 419 426 b 393 119 419 301 393 219 b 515 -94 393 -42 467 -94 b 618 57 586 -94 618 -3 b 532 643 618 371 532 501 b 572 901 532 749 572 769 b 488 1032 572 924 578 1032 b 390 983 446 1032 403 996 b 61 586 278 868 61 819 b 61 568 61 581 61 578 b 33 271 61 419 33 331 b 104 131 33 258 38 131 b 201 213 107 131 185 133 b 210 290 203 221 210 254 z "},"B":{"ha":664,"x_min":0,"x_max":0,"o":"m 186 251 b 204 339 186 289 201 326 b 239 364 210 356 222 364 b 447 250 264 364 447 350 b 313 147 447 204 404 147 b 186 251 246 147 186 174 z m 275 554 b 154 688 186 554 154 615 b 350 915 154 815 257 915 b 406 867 383 915 406 897 b 392 792 406 842 392 829 b 417 678 392 742 417 728 b 275 554 417 601 349 554 z m 71 169 b 244 -37 71 99 106 -37 b 635 279 369 -37 635 126 b 399 457 635 418 399 388 b 639 736 399 556 639 558 b 285 1036 639 867 474 1036 b 15 847 281 1036 15 1036 b 115 458 15 635 115 572 b 71 169 115 396 71 254 z "},"C":{"ha":658,"x_min":0,"x_max":0,"o":"m 19 397 b 336 42 19 114 229 42 b 636 308 514 42 636 189 b 494 472 636 393 575 472 b 342 372 400 472 354 393 b 225 306 310 324 251 306 b 138 426 147 306 138 392 b 165 522 138 460 146 492 b 285 785 246 651 164 725 b 315 793 296 790 306 793 b 371 701 372 793 371 704 b 369 672 371 692 369 682 b 474 582 369 583 454 582 b 599 715 600 582 599 703 b 515 850 599 774 571 832 b 331 963 401 888 406 963 b 19 397 211 963 19 631 z "},"D":{"ha":685,"x_min":0,"x_max":0,"o":"m 199 386 b 229 526 218 467 229 476 b 204 704 229 582 204 640 b 353 828 204 811 322 828 b 578 483 547 828 553 604 b 581 451 581 471 581 463 b 329 250 581 328 407 250 b 231 286 293 250 261 264 b 199 386 201 307 200 342 z m 179 967 b 71 881 163 967 71 976 b 114 608 71 818 114 719 b 4 189 114 422 4 275 b 104 50 4 185 10 50 b 300 85 158 50 194 83 b 644 378 501 89 564 235 b 667 463 660 404 667 433 b 635 668 667 490 647 610 b 413 903 607 803 503 844 b 179 967 343 947 281 967 z "},"E":{"ha":701,"x_min":0,"x_max":0,"o":"m 293 1014 b 22 906 218 1014 22 1013 b 124 689 22 825 124 853 b 28 272 124 546 28 454 b 321 -17 28 111 129 -17 b 685 261 429 -17 685 50 b 571 385 685 318 682 385 b 265 163 436 385 374 163 b 179 290 213 163 221 231 b 150 382 160 321 150 353 b 314 546 150 460 218 526 b 471 611 339 550 471 565 b 393 642 471 646 432 642 b 313 640 360 642 335 640 b 190 740 200 640 190 696 b 340 918 190 850 292 918 b 499 704 447 918 363 704 b 601 818 554 704 601 760 b 293 1014 601 824 588 1014 z "},"F":{"ha":868,"x_min":0,"x_max":0,"o":"m 371 614 b 218 661 288 614 269 624 b 172 753 182 688 172 718 b 247 856 172 804 185 856 b 606 779 314 856 461 779 b 856 992 618 779 856 767 b 768 1081 856 1065 808 1081 b 411 960 656 1081 526 960 b 276 974 358 960 311 974 b 29 686 146 974 29 825 b 183 247 29 526 183 431 b 156 13 183 133 156 85 b 225 -93 156 -81 210 -93 b 285 -19 261 -93 285 -61 b 225 154 285 40 225 92 b 300 389 225 222 286 257 b 383 551 307 465 296 551 b 588 471 483 551 489 471 b 779 615 679 471 779 542 b 693 683 779 690 694 683 b 389 614 594 683 489 614 b 378 614 385 614 381 614 b 371 614 375 614 374 614 z "},"G":{"ha":804,"x_min":0,"x_max":0,"o":"m 492 611 b 399 604 467 611 443 608 b 303 486 342 599 303 542 b 383 396 303 429 343 396 b 557 497 451 396 508 497 b 640 300 593 497 640 422 b 569 113 640 200 625 158 b 536 99 558 103 547 99 b 301 189 490 99 444 189 b 286 188 293 189 292 188 b 163 281 224 188 163 201 b 279 683 163 415 279 503 b 272 779 279 735 272 753 b 354 867 272 858 342 867 b 607 704 435 867 508 704 b 760 863 672 704 760 769 b 528 1036 760 1018 567 1036 b 147 938 468 1036 178 953 b 29 694 75 900 29 761 b 122 406 29 554 122 533 b 110 190 122 376 110 290 b 317 -49 110 -35 251 -49 b 749 453 496 -49 749 119 b 492 611 749 582 622 611 z "},"H":{"ha":678,"x_min":0,"x_max":0,"o":"m 428 758 b 347 471 428 758 457 471 b 243 606 313 471 243 510 b 347 963 243 700 347 892 b 256 1085 347 1014 306 1085 b 164 933 207 1085 164 1024 b 193 647 164 864 193 706 b -10 42 193 483 -10 196 b 107 -100 -10 -31 32 -100 b 369 365 268 -100 225 267 b 396 375 379 372 389 375 b 424 329 426 375 424 331 b 413 90 424 304 413 185 b 504 -32 413 24 447 -32 b 658 157 571 -32 658 44 b 461 508 658 317 461 363 b 622 876 461 621 622 801 b 567 947 622 892 619 947 b 428 758 549 947 428 936 z "},"I":{"ha":354,"x_min":0,"x_max":0,"o":"m 65 246 b 197 63 65 119 143 63 b 199 63 197 63 199 63 b 289 186 211 63 289 67 b 210 544 289 378 210 467 b 283 828 210 614 283 728 b 213 942 283 850 279 942 b 122 800 165 942 122 889 b 172 646 122 711 172 703 b 65 246 172 589 65 400 z "},"J":{"ha":642,"x_min":0,"x_max":0,"o":"m 610 876 b 497 1047 611 981 578 1047 b 335 810 393 1047 335 939 b 483 471 335 603 483 603 b 450 357 483 413 450 404 b 499 185 450 303 499 247 b 369 33 499 85 418 33 b 272 214 285 33 272 200 b 282 324 272 249 282 265 b 125 517 282 414 231 517 b 1 361 -3 517 1 381 b 71 258 1 338 4 283 b 315 -54 225 200 142 -54 b 611 239 368 -54 611 10 b 547 569 611 371 550 425 b 610 876 544 713 611 771 z "},"K":{"ha":722,"x_min":0,"x_max":0,"o":"m 458 840 b 686 914 471 840 686 788 b 525 1029 686 968 631 1029 b 272 667 282 1029 368 792 b 224 644 261 654 238 644 b 214 647 219 644 215 644 b 204 672 206 654 204 663 b 233 858 204 689 233 793 b 86 1057 233 928 190 1057 b -4 978 1 1057 -4 989 b 107 714 -4 903 107 836 b 83 522 107 661 83 564 b 117 321 83 446 117 426 b 49 53 117 179 49 107 b 125 -21 49 10 81 -21 b 228 106 128 -21 228 -24 b 163 332 228 229 163 240 b 179 374 163 372 178 374 b 299 239 203 374 269 303 b 578 -72 400 19 450 -72 b 722 42 651 -72 722 -29 b 492 199 722 79 697 188 b 276 381 382 206 418 303 b 196 469 267 385 196 426 b 419 729 196 579 419 533 l 419 732 b 458 840 419 824 428 840 z "},"L":{"ha":911,"x_min":0,"x_max":0,"o":"m 764 -29 b 807 -26 779 -29 793 -28 b 901 76 865 -21 901 39 b 754 190 901 188 756 190 b 269 -37 594 190 443 -37 b 150 49 206 -37 150 10 b 424 418 150 150 424 172 b 292 721 424 593 292 629 b 525 1021 292 835 525 858 b 433 1101 525 1082 468 1101 b 233 793 411 1101 279 1089 b 104 482 210 638 104 649 b 107 428 104 457 107 450 b 32 143 107 319 32 257 b 264 -92 32 61 99 -92 b 646 -25 360 -92 503 -25 b 692 -28 661 -25 676 -26 b 764 -29 717 -28 740 -29 z "},"M":{"ha":999,"x_min":0,"x_max":0,"o":"m 279 558 b 313 390 279 549 278 431 b 488 189 424 263 414 189 b 644 381 522 189 622 229 b 718 560 669 543 711 560 b 739 543 728 560 736 554 b 743 475 742 517 743 496 b 699 -26 743 294 699 -6 b 825 -192 699 -156 782 -192 b 954 40 933 -192 954 -24 b 817 640 954 246 817 457 b 869 961 817 753 869 876 b 781 1051 869 964 879 1051 b 499 488 536 1051 785 488 b 376 661 374 488 376 575 b 439 1022 376 839 439 907 b 333 1182 439 1104 394 1182 b 153 932 244 1182 163 1032 b 140 706 144 857 142 781 b 56 101 138 413 56 250 b 132 -14 56 99 46 -14 b 264 178 136 -14 264 -7 b 232 536 264 278 232 403 b 222 706 232 600 222 654 b 286 889 222 793 251 889 b 317 849 306 889 317 867 b 279 558 317 692 279 649 z "},"N":{"ha":853,"x_min":0,"x_max":0,"o":"m 490 386 b 519 -143 490 224 406 -28 b 594 -178 540 -165 568 -178 b 699 -40 685 -178 699 -71 b 579 339 699 43 579 239 b 721 696 579 482 721 492 b 721 713 721 703 721 706 b 792 979 721 844 792 913 b 690 1060 792 1033 739 1060 b 568 903 589 1060 568 932 b 603 757 568 853 583 882 b 604 739 603 750 604 744 b 507 636 604 678 554 636 b 447 667 482 636 457 649 b 350 865 413 733 368 792 b 181 1014 318 947 285 1014 b 46 793 89 1014 46 904 b 126 361 46 667 126 419 b 111 199 126 321 111 285 b 217 71 111 122 172 71 b 328 211 254 71 328 114 b 143 572 328 343 143 461 b 267 694 143 639 199 694 b 490 386 385 694 490 508 z "},"O":{"ha":686,"x_min":0,"x_max":0,"o":"m 449 718 b 385 136 726 718 557 136 b 174 438 307 136 174 268 b 218 551 174 481 188 518 b 449 718 258 596 326 718 z m 6 679 b 376 58 21 336 178 58 b 676 610 596 58 676 431 b 474 888 676 894 483 888 b 297 869 390 888 381 869 b 164 886 221 869 203 886 b 6 700 99 886 6 831 b 6 679 6 693 6 686 z "},"P":{"ha":719,"x_min":0,"x_max":0,"o":"m 331 936 b 478 554 554 936 564 636 b 443 539 467 543 454 539 b 297 661 401 539 386 589 b 229 824 257 693 229 764 b 331 936 229 921 306 936 z m 79 129 b 249 -74 92 -83 235 -74 b 351 36 308 -74 351 -31 b 189 499 351 121 189 403 b 264 563 189 500 188 563 b 428 450 322 563 419 460 b 538 400 461 415 500 400 b 708 646 664 400 708 540 b 397 1032 708 815 599 1032 b 194 925 265 1032 208 925 b 100 1072 175 925 190 1072 b 11 957 63 1072 11 1032 b 165 657 11 775 165 842 b 100 456 165 560 100 554 b 114 333 100 411 114 396 b 79 129 114 269 78 193 z "},"Q":{"ha":706,"x_min":0,"x_max":0,"o":"m 343 896 b 458 301 490 896 599 550 b 446 290 454 294 450 290 b 363 394 419 290 418 394 b 319 354 340 394 319 375 b 385 185 319 306 385 219 b 311 101 385 139 349 101 b 210 211 268 101 210 144 b 292 529 210 313 292 406 b 250 750 292 624 250 683 b 343 896 250 806 283 896 z m 519 182 b 615 603 519 261 633 447 b 397 1022 569 1018 444 1022 b 232 957 331 1022 318 983 b 29 447 17 889 72 603 b 19 383 24 426 19 404 b 331 43 19 268 172 43 b 408 56 372 43 383 56 b 596 -87 490 56 515 -87 b 671 -8 613 -87 671 -75 b 519 182 671 111 519 104 z "},"R":{"ha":726,"x_min":0,"x_max":0,"o":"m 451 781 b 304 511 451 639 336 511 b 232 710 279 511 278 550 b 208 804 226 732 208 765 b 326 940 208 861 260 940 b 389 922 346 940 367 935 b 451 799 436 900 451 863 b 451 786 451 794 451 790 b 451 781 451 785 451 783 z m 10 94 b 124 -122 -6 44 -11 -122 b 240 49 239 -122 240 33 b 199 260 240 133 199 196 b 261 389 199 314 229 389 b 582 18 336 389 447 18 b 683 147 636 18 683 72 b 478 367 683 165 674 340 b 424 461 460 369 424 376 b 713 897 424 651 642 635 b 717 933 715 910 717 922 b 454 1083 717 1069 499 1083 b 99 772 408 1083 99 1061 b 133 493 99 682 133 578 b 10 94 133 356 103 397 z "},"S":{"ha":811,"x_min":0,"x_max":0,"o":"m 161 607 b 18 385 92 607 1 540 b 113 121 35 225 108 264 b 267 -60 115 43 129 -60 b 800 456 572 -60 800 294 b 682 639 800 496 774 618 b 167 831 353 714 167 711 b 274 926 167 897 229 926 b 463 800 365 926 356 800 b 594 933 526 800 594 853 b 499 1029 594 1004 540 1029 b 401 1017 472 1029 451 1017 b 215 1046 331 1017 303 1046 b 14 853 86 1046 14 964 b 631 438 14 589 631 685 b 360 174 631 343 507 174 b 235 290 283 174 235 221 b 271 489 235 339 271 410 b 161 607 271 576 206 607 z "},"T":{"ha":1013,"x_min":0,"x_max":0,"o":"m 369 233 b 532 -60 369 -12 483 -60 b 638 78 590 -60 638 -3 b 492 582 638 208 492 332 b 697 814 492 603 478 814 b 901 736 807 814 824 736 b 997 842 946 736 997 789 b 789 1010 997 915 899 1010 b 457 939 679 1010 669 939 b 114 1050 296 939 228 1050 b 15 978 71 1050 15 1024 b 228 878 15 975 10 878 b 283 879 246 878 265 879 b 444 724 385 879 444 821 b 369 233 444 615 369 460 z "},"U":{"ha":760,"x_min":0,"x_max":0,"o":"m 306 725 b 171 972 306 978 178 972 b 18 756 64 972 18 869 b 118 349 18 599 118 488 b 100 163 118 304 100 235 b 317 -78 100 -15 233 -78 b 501 143 488 -78 492 69 b 738 564 521 304 738 311 b 704 733 738 621 728 678 b 486 1072 615 946 592 1072 b 407 1011 454 1072 407 1058 b 617 589 407 868 617 832 b 428 211 617 475 600 468 b 351 144 421 201 390 144 b 260 306 325 144 260 188 b 303 657 260 414 301 532 b 306 725 304 682 306 704 z "},"V":{"ha":761,"x_min":0,"x_max":0,"o":"m 290 313 b 260 65 290 231 356 65 b 161 236 210 65 161 154 b 253 643 161 239 183 510 b 283 757 267 671 283 725 b 174 883 283 814 249 883 b 19 724 126 883 19 847 b 97 290 19 650 97 482 b 96 256 97 272 96 267 b 294 -37 96 40 235 -37 b 394 200 371 -37 385 63 b 743 961 408 399 743 618 b 669 1075 743 1010 728 1075 b 482 682 540 1075 515 835 b 290 313 453 544 290 528 z "},"W":{"ha":992,"x_min":0,"x_max":0,"o":"m 131 401 b 296 -68 131 299 92 39 b 338 -79 310 -75 324 -79 b 458 169 421 -79 458 65 b 425 486 458 263 425 372 b 488 585 425 529 443 585 b 568 506 514 585 564 558 b 704 125 582 336 568 125 b 826 342 815 125 826 258 b 825 400 826 361 825 381 b 981 869 825 679 981 743 b 871 975 981 939 908 975 b 783 890 825 975 783 940 b 810 692 783 853 810 768 b 672 392 810 589 731 392 b 519 846 567 392 678 846 b 340 531 443 846 340 703 b 349 390 340 475 349 453 b 286 254 349 307 313 254 b 210 446 242 254 210 346 b 233 631 210 532 233 569 b 206 760 233 694 206 701 b 278 976 206 840 278 894 b 178 1060 278 1046 213 1060 b 19 854 82 1060 19 950 b 132 451 19 672 132 619 b 131 401 132 436 131 432 z "},"X":{"ha":943,"x_min":0,"x_max":0,"o":"m 328 754 b 214 928 326 924 217 928 b 133 806 167 928 133 867 b 282 444 133 649 282 551 b 4 -33 282 321 4 115 b 90 -110 4 -81 38 -110 b 190 -72 114 -110 147 -104 b 383 393 376 69 242 393 b 786 -100 503 393 549 -100 b 918 35 864 -100 918 -26 b 493 458 918 225 493 242 b 824 918 493 560 738 606 b 832 975 829 938 832 957 b 738 1100 832 1047 792 1100 b 574 856 682 1100 574 1029 b 585 749 574 801 585 789 b 394 515 585 617 440 515 b 321 679 322 515 321 676 b 328 754 321 703 324 715 z "},"Y":{"ha":835,"x_min":0,"x_max":0,"o":"m 507 356 b 696 222 608 347 696 358 b 679 139 696 194 690 165 b 408 -61 614 -17 501 -33 b 365 -68 393 -67 379 -68 b 132 94 271 -68 264 21 b 93 104 119 101 106 104 b 15 21 60 104 15 76 b 293 -132 15 -111 218 -132 b 810 283 558 -132 810 64 b 676 717 810 511 676 592 b 719 968 676 776 719 894 b 629 1068 719 989 715 1068 b 525 829 536 1068 525 979 b 578 568 525 656 578 628 b 464 454 578 500 510 454 b 275 832 368 454 275 625 b 294 1015 275 935 294 974 b 231 1104 294 1065 272 1104 b 68 926 81 1104 68 964 b 269 497 68 760 246 665 b 300 408 274 467 289 438 b 404 349 324 354 385 349 b 507 356 417 349 489 354 z "},"Z":{"ha":833,"x_min":0,"x_max":0,"o":"m 401 979 b 168 821 286 979 168 919 b 268 714 168 772 206 714 b 558 789 333 714 440 789 b 599 757 600 789 599 757 b 29 151 599 664 29 375 b 314 0 29 6 256 0 b 806 238 528 0 806 97 b 710 317 806 282 771 317 b 296 131 569 317 469 131 b 197 222 240 131 197 165 b 711 838 197 421 711 615 b 401 979 711 989 440 979 z "},"[":{"ha":507,"x_min":0,"x_max":0,"o":"m 292 -90 b 351 -85 306 -89 329 -87 b 482 69 426 -74 482 -3 b 390 174 482 111 461 174 b 188 135 314 174 276 135 b 107 213 151 135 107 142 b 119 313 107 238 119 250 b 114 435 119 353 114 392 b 179 729 114 574 179 624 b 175 801 179 757 175 765 b 350 951 175 968 275 913 b 382 993 371 963 382 978 b 233 1072 382 1035 301 1072 b 53 921 100 1072 75 1001 b 24 700 35 847 24 774 b 56 413 24 554 56 521 b 13 78 56 297 13 167 b 292 -90 13 32 18 -86 z "},"\\":{"ha":753,"x_min":0,"x_max":0,"o":"m 719 -24 b 228 969 631 388 239 646 b 211 1090 225 1010 218 1050 b 128 1154 201 1149 144 1154 b 35 1043 60 1154 35 1074 b 344 404 35 847 278 761 b 615 -164 357 335 411 -164 b 719 -24 706 -164 725 -57 z "},"]":{"ha":606,"x_min":0,"x_max":0,"o":"m 246 -143 b 508 117 300 -136 508 -146 b 442 422 508 236 442 310 b 589 922 442 551 589 788 b 433 1083 589 1008 528 985 b 325 1129 404 1115 368 1129 b 28 967 224 1129 28 1051 b 82 896 28 935 46 900 b 126 889 97 894 111 889 b 303 896 186 889 292 896 b 374 847 339 896 357 883 b 394 760 386 819 394 790 b 329 497 394 682 329 611 b 424 142 329 363 424 306 b 369 61 424 114 424 61 b 249 81 339 61 299 81 b 96 -51 153 81 96 -10 b 246 -143 96 -125 199 -132 z "},"^":{"ha":371,"x_min":0,"x_max":0,"o":"m 357 1086 b 221 1269 356 1150 307 1269 b 22 1063 126 1269 22 1124 b 64 1021 22 1025 60 1021 b 161 1114 96 1021 118 1114 b 301 1014 203 1114 231 1014 b 357 1086 333 1014 356 1040 z "},"_":{"ha":775,"x_min":0,"x_max":0,"o":"m 129 114 b 26 82 89 114 53 118 b 13 51 17 71 13 61 b 99 0 13 17 72 0 b 332 49 153 0 240 49 b 621 6 407 49 526 6 b 760 82 758 6 760 72 b 626 165 760 125 714 165 b 231 113 549 165 357 113 b 129 114 199 113 171 114 z "},"`":{"ha":317,"x_min":0,"x_max":0,"o":"m 19 1188 b 117 1108 19 1164 21 1131 b 271 1013 228 1082 221 1013 b 303 1043 290 1013 303 1026 b 290 1082 303 1056 296 1075 b 92 1260 240 1150 176 1260 b 19 1188 53 1260 19 1226 z "},"a":{"ha":557,"x_min":0,"x_max":0,"o":"m 306 633 b 193 499 296 554 265 532 b 172 493 185 496 178 493 b 143 533 142 493 143 532 b 264 683 143 590 217 683 b 306 636 286 683 306 669 b 306 633 306 635 306 633 z m 544 174 b 479 339 544 210 528 258 b 276 882 363 529 438 882 b 79 619 236 882 79 815 b 81 549 79 596 81 571 b 10 265 81 408 10 394 b 64 211 10 232 39 211 b 158 400 122 211 132 288 b 249 476 169 451 222 476 b 471 79 378 476 304 79 b 544 174 515 79 544 122 z "},"b":{"ha":617,"x_min":0,"x_max":0,"o":"m 150 564 b 254 733 153 576 161 651 b 301 754 271 747 288 754 b 357 663 338 754 357 706 b 189 489 357 549 250 489 b 150 564 150 489 151 532 z m 378 404 b 468 360 406 400 468 401 b 411 300 468 342 453 304 b 189 169 301 288 296 169 b 131 231 157 169 131 185 b 253 394 131 292 171 386 b 378 404 290 397 328 400 z m 486 644 b 368 843 486 718 457 761 b 272 882 338 871 307 882 b 40 481 75 882 40 546 b 54 349 40 406 54 383 b 24 183 54 288 24 235 b 190 75 24 82 164 75 b 596 329 340 75 596 203 b 429 456 596 414 500 456 b 328 446 411 456 344 446 b 317 453 324 446 317 450 b 486 644 317 485 486 461 z "},"c":{"ha":561,"x_min":0,"x_max":0,"o":"m 14 349 b 239 165 14 257 43 240 b 317 150 268 154 292 150 b 549 406 481 150 549 360 b 471 475 549 447 517 475 b 215 296 315 475 339 296 b 79 393 183 296 79 317 b 213 615 79 446 158 615 b 338 536 251 615 288 536 b 422 660 372 536 422 586 b 294 813 422 736 369 813 b 14 394 163 813 14 593 b 14 382 14 390 14 386 b 14 349 14 371 14 360 z "},"d":{"ha":494,"x_min":0,"x_max":0,"o":"m 125 589 b 189 707 125 668 144 707 b 424 464 240 707 424 568 b 267 304 424 390 314 304 b 214 347 244 304 228 319 b 125 589 154 474 125 524 z m 481 429 b 339 696 478 449 472 583 b 115 893 178 831 196 893 b 18 736 25 893 18 801 b 88 389 18 550 88 504 b 40 176 88 300 40 239 b 165 76 40 113 97 76 b 481 429 260 76 479 229 z "},"e":{"ha":613,"x_min":0,"x_max":0,"o":"m 265 124 b 486 153 308 124 429 135 b 593 306 549 172 593 240 b 539 386 593 326 588 386 b 260 181 419 386 429 181 b 135 267 199 181 135 217 b 165 324 135 288 146 307 b 417 432 275 417 344 371 b 438 474 432 444 438 460 b 218 688 438 564 218 472 b 292 764 218 740 269 764 b 479 644 347 764 365 644 b 549 715 522 644 549 672 b 468 825 549 767 511 813 b 340 839 436 833 371 839 b 44 586 131 839 153 656 b 18 536 28 575 18 557 b 60 269 18 468 46 444 b 265 124 64 213 96 124 z "},"f":{"ha":603,"x_min":0,"x_max":0,"o":"m 296 951 b 111 813 196 950 129 921 b 81 514 96 714 81 614 b 81 478 81 497 81 493 b 8 110 81 294 8 188 b 100 0 8 57 39 0 b 204 136 125 0 204 13 b 135 468 204 296 135 393 b 165 542 135 500 143 528 b 190 549 174 547 183 549 b 335 454 242 549 265 454 b 467 585 383 454 467 506 b 350 704 467 642 425 704 b 213 676 304 704 244 676 b 156 743 176 676 156 700 b 260 831 156 825 246 831 b 486 708 361 831 382 708 b 596 807 540 708 596 749 b 508 904 596 872 524 900 b 296 951 436 926 369 951 z "},"g":{"ha":631,"x_min":0,"x_max":0,"o":"m 614 378 b 394 519 614 518 504 519 b 264 381 268 519 264 382 b 369 281 264 322 336 281 b 522 376 432 281 479 376 b 558 331 549 376 558 349 b 332 206 558 283 438 206 b 150 361 192 206 249 286 b 90 515 96 400 90 488 b 233 743 90 632 181 743 b 388 557 326 743 200 557 b 533 644 426 557 533 582 b 506 738 533 667 517 706 b 386 808 482 800 444 808 b 192 881 285 808 265 881 b 29 732 143 881 53 835 b 11 613 28 732 11 654 b 60 388 11 510 60 478 b 32 253 60 321 32 304 b 354 93 32 99 349 93 b 614 378 560 93 614 296 z "},"h":{"ha":506,"x_min":0,"x_max":0,"o":"m 276 478 b 360 183 276 450 192 183 b 485 336 436 183 485 265 b 400 572 485 424 400 485 b 485 774 400 653 485 724 b 426 814 485 808 433 814 b 325 692 392 814 329 772 b 279 563 322 632 335 592 b 258 557 272 558 264 557 b 221 674 233 557 221 576 b 239 844 221 747 239 778 b 144 933 239 863 229 933 b 46 804 97 933 46 899 b 101 525 46 714 101 600 b 19 218 101 421 19 318 b 135 42 19 164 49 42 b 225 124 181 42 225 74 b 150 406 225 156 150 304 b 239 522 150 524 235 522 b 276 478 275 522 276 483 z "},"i":{"ha":279,"x_min":0,"x_max":0,"o":"m 11 225 b 92 129 11 168 35 129 b 206 264 163 129 206 197 b 132 490 206 347 132 415 b 265 776 132 588 265 686 b 163 846 265 818 213 846 b 26 704 114 846 26 821 b 53 501 26 628 53 606 b 11 225 53 421 11 306 z "},"j":{"ha":432,"x_min":0,"x_max":0,"o":"m 383 596 b 299 915 383 701 456 915 b 188 789 229 915 188 846 b 290 638 188 693 275 663 b 343 474 321 586 343 533 b 307 203 343 458 346 474 b 263 142 301 164 283 142 b 229 161 251 142 240 147 b 96 474 140 267 218 474 b 15 371 53 474 15 432 b 263 57 15 268 160 57 b 422 313 392 57 422 226 b 383 596 422 418 383 450 z "},"k":{"ha":568,"x_min":0,"x_max":0,"o":"m 13 358 b 142 131 13 185 100 131 b 211 199 175 131 211 158 b 128 443 211 254 128 403 b 171 503 128 471 146 503 b 468 215 242 503 310 215 b 558 304 525 215 558 275 b 369 439 558 351 475 424 b 260 567 278 453 260 550 b 418 824 260 649 418 688 b 333 954 418 844 406 954 b 181 688 190 954 279 688 b 90 867 93 688 168 867 b 31 746 76 867 31 858 b 40 583 31 707 49 646 b 13 358 36 544 13 451 z "},"l":{"ha":658,"x_min":0,"x_max":0,"o":"m 156 610 b 17 236 156 424 17 378 b 167 89 17 153 81 89 b 533 181 294 89 329 175 b 639 304 607 182 639 268 b 553 364 639 365 554 364 b 446 314 513 364 474 347 b 317 200 404 264 401 251 b 289 192 308 196 299 192 b 189 356 197 192 189 294 b 308 760 189 489 308 642 b 225 890 308 790 297 890 b 140 793 135 890 140 804 b 154 631 140 736 150 665 b 156 610 154 624 156 617 z "},"m":{"ha":718,"x_min":0,"x_max":0,"o":"m 694 671 b 611 901 690 736 693 901 b 364 635 481 901 458 635 b 156 944 282 635 282 944 b 26 747 140 944 26 946 b 92 425 26 607 92 540 b 78 240 92 375 78 318 b 224 -36 78 133 121 -36 b 358 101 296 -36 358 28 b 176 418 358 232 176 318 b 247 518 176 471 219 518 b 365 406 293 518 304 406 b 501 626 442 406 422 626 b 539 564 521 626 539 606 b 529 325 539 551 529 329 b 563 275 529 319 525 275 b 694 671 594 275 679 321 z "},"n":{"ha":711,"x_min":0,"x_max":0,"o":"m 400 169 b 490 32 400 76 440 32 b 568 149 567 32 568 99 b 567 193 568 164 567 171 b 589 368 567 294 589 301 b 579 524 589 397 579 475 b 699 789 579 624 699 647 b 596 921 699 886 644 921 b 456 731 524 921 503 847 b 443 667 447 708 443 686 b 472 517 443 604 472 565 b 439 458 472 486 463 458 b 356 508 418 458 397 479 b 131 857 213 610 272 857 b 15 679 44 857 15 735 b 82 383 15 582 82 496 b 68 286 82 328 68 321 b 182 147 68 146 176 147 b 243 221 226 147 243 185 b 158 436 243 297 158 361 b 213 539 158 451 168 539 b 319 449 246 539 279 492 b 403 250 371 390 403 326 b 401 215 403 239 403 228 b 400 169 401 200 400 185 z "},"o":{"ha":608,"x_min":0,"x_max":0,"o":"m 281 301 b 193 596 217 301 128 315 b 308 719 208 660 263 719 b 424 500 371 719 424 571 b 281 301 424 429 376 301 z m 596 406 b 460 757 596 410 604 482 b 247 843 436 801 394 843 b 40 429 106 843 147 635 b 22 344 35 418 22 379 b 276 118 22 224 142 118 b 596 403 410 118 596 203 b 596 406 596 403 596 404 z "},"p":{"ha":524,"x_min":0,"x_max":0,"o":"m 357 732 b 322 578 356 710 333 613 b 247 526 314 546 279 526 b 151 654 182 526 151 607 b 297 808 151 768 240 808 b 357 732 340 808 356 781 z m 22 274 b 194 8 22 243 46 8 b 271 86 238 8 271 38 b 119 428 271 167 119 364 b 197 479 119 471 168 479 b 288 475 225 479 257 475 b 510 694 426 475 510 592 b 317 921 510 801 428 900 b 174 963 215 939 215 963 b 38 735 117 963 38 881 b 53 558 38 660 53 632 b 22 274 53 464 22 361 z "},"q":{"ha":622,"x_min":0,"x_max":0,"o":"m 272 389 b 324 774 193 389 175 678 b 367 790 340 785 354 790 b 518 568 421 790 518 633 b 439 443 518 489 464 443 b 347 594 368 443 440 594 b 274 514 317 594 274 557 b 300 421 274 478 300 451 b 272 389 300 410 296 389 z m 168 853 b 18 679 103 853 18 842 b 267 269 18 475 167 304 b 461 68 403 224 367 68 b 544 167 503 68 544 113 b 472 325 544 240 472 269 b 606 633 472 400 606 465 b 432 882 606 721 550 882 b 249 850 375 882 343 850 b 217 851 239 850 228 851 b 168 853 200 851 185 853 z "},"r":{"ha":579,"x_min":0,"x_max":0,"o":"m 360 785 b 444 718 449 785 444 719 b 294 589 444 647 361 589 b 200 678 250 589 200 615 b 360 785 200 786 357 785 z m 18 107 b 122 -40 21 -29 107 -40 b 208 97 194 -40 208 60 b 131 332 208 210 131 275 b 197 389 131 372 164 389 b 488 129 301 389 351 129 b 551 201 526 129 551 169 b 371 382 551 311 401 296 b 225 472 339 471 225 433 b 235 494 225 478 228 485 b 507 700 290 579 507 526 b 229 915 507 888 274 915 b 31 594 79 915 31 683 b 56 346 31 501 56 458 b 18 107 56 249 39 224 z "},"s":{"ha":665,"x_min":0,"x_max":0,"o":"m 501 599 b 206 626 450 599 278 535 b 186 679 192 643 186 661 b 258 760 186 732 235 760 b 349 675 299 760 276 704 b 385 668 360 671 372 668 b 510 779 440 668 510 714 b 336 897 510 865 393 897 b 97 686 214 897 97 797 b 454 365 97 464 454 538 b 325 274 454 301 361 274 b 131 464 201 274 240 464 b 21 285 40 464 21 322 b 206 83 21 196 99 83 b 510 214 271 83 296 110 b 653 421 656 285 653 418 b 501 599 653 482 615 599 z "},"t":{"ha":688,"x_min":0,"x_max":0,"o":"m 92 704 b 256 643 99 704 256 719 b 136 256 256 586 136 429 b 258 67 136 185 165 67 b 357 174 317 67 357 126 b 288 386 357 240 288 303 b 332 590 288 457 332 472 b 332 614 332 603 332 606 b 343 689 332 639 336 664 b 390 724 350 715 363 724 b 546 707 415 724 501 707 b 672 817 626 707 672 756 b 543 939 672 836 667 939 b 233 801 417 939 381 801 b 129 810 196 801 185 810 b 19 757 57 810 19 783 b 92 704 19 729 53 704 z "},"u":{"ha":608,"x_min":0,"x_max":0,"o":"m 39 496 b 151 106 22 281 51 178 b 304 56 197 74 251 56 b 592 371 479 56 592 242 b 554 628 592 464 554 521 b 563 785 554 689 563 693 b 531 907 563 826 564 867 b 478 935 515 925 496 935 b 365 749 433 935 365 865 b 481 299 365 593 481 404 b 299 158 481 190 353 158 b 144 319 185 158 144 246 b 311 708 144 540 311 625 b 196 817 311 769 258 817 b 39 496 46 817 47 599 z "},"v":{"ha":556,"x_min":0,"x_max":0,"o":"m 21 563 b 56 429 21 515 35 471 b 253 140 160 226 190 140 b 500 529 313 140 356 218 b 540 678 521 575 540 661 b 467 758 540 722 504 758 b 335 660 444 758 365 739 b 250 349 268 490 301 429 b 222 328 242 335 232 328 b 160 518 211 328 160 351 b 221 797 160 707 221 690 b 163 857 221 824 215 857 b 21 571 93 857 28 697 b 21 563 21 568 21 565 z "},"w":{"ha":750,"x_min":0,"x_max":0,"o":"m 729 333 b 582 897 722 629 703 897 b 457 763 538 897 457 850 b 576 475 457 667 576 538 b 504 413 576 435 540 413 b 403 574 410 413 403 561 b 407 643 403 600 407 621 b 349 714 407 711 357 714 b 269 629 314 714 269 676 b 307 449 269 558 307 476 b 267 411 307 414 271 411 b 192 519 232 411 192 449 b 254 704 192 589 254 646 b 163 793 254 756 206 793 b 25 608 81 793 25 706 b 124 318 25 472 124 424 b 110 190 124 281 110 257 b 171 126 110 131 157 126 b 290 332 246 126 228 260 b 346 363 308 353 326 363 b 606 165 425 363 476 165 b 729 333 621 165 722 169 z "},"x":{"ha":675,"x_min":0,"x_max":0,"o":"m 424 706 b 364 521 424 667 432 521 b 106 881 297 521 279 881 b 13 756 11 881 13 758 b 235 456 13 621 235 535 b 54 201 235 407 54 308 b 179 108 54 124 153 108 b 290 203 235 108 278 143 b 317 389 299 243 290 257 b 347 415 317 392 321 415 b 379 394 363 415 374 407 b 556 94 442 247 432 94 b 661 200 614 94 661 138 b 461 465 661 335 461 378 b 571 694 461 521 571 601 b 490 796 571 751 535 796 b 424 706 468 796 424 783 z "},"y":{"ha":690,"x_min":0,"x_max":0,"o":"m 225 122 b 335 -18 228 19 289 -18 b 440 94 357 -18 440 -7 b 382 407 440 192 382 263 b 672 890 382 651 672 735 b 607 956 672 929 644 956 b 307 601 421 956 375 601 b 193 931 258 601 247 731 b 125 993 182 974 154 993 b 15 849 74 993 15 936 b 297 421 15 579 297 608 b 225 122 297 331 229 225 z "},"z":{"ha":699,"x_min":0,"x_max":0,"o":"m 588 778 b 21 650 588 942 21 840 b 78 592 21 615 43 592 b 461 744 165 592 419 778 b 99 386 508 686 99 588 b 378 122 99 261 228 122 b 688 364 556 122 688 290 b 567 451 688 438 597 451 b 313 353 474 451 418 353 b 256 413 275 353 256 374 b 588 778 256 571 588 618 z "},"{":{"ha":763,"x_min":0,"x_max":0,"o":"m 433 -133 b 715 60 658 -133 715 -6 b 582 168 715 136 656 168 b 365 142 531 168 419 142 b 206 261 279 142 206 183 b 317 556 206 360 317 490 b 194 685 317 639 194 664 b 292 797 194 708 292 735 b 285 850 292 815 285 825 b 354 929 285 900 315 929 b 525 836 432 929 458 836 b 651 972 586 836 651 903 b 454 1115 651 1014 614 1115 b 208 900 271 1115 228 990 b 33 650 175 740 33 757 b 199 481 33 535 199 561 b 104 179 199 403 104 308 b 432 -133 104 -21 297 -131 z "},"|":{"ha":347,"x_min":0,"x_max":0,"o":"m 267 853 b 217 1215 293 1067 297 1206 b 126 1132 176 1219 132 1182 b 135 424 93 864 171 713 b 60 57 114 258 78 208 b 150 -254 33 -151 96 -247 b 261 -78 228 -264 253 -144 b 247 713 285 125 206 376 b 267 853 254 771 263 819 z "},"}":{"ha":779,"x_min":0,"x_max":0,"o":"m 442 -194 b 657 -14 503 -194 657 -157 b 511 358 657 144 511 238 b 694 449 511 469 592 411 b 743 515 728 461 743 483 b 546 800 743 660 546 626 b 579 1026 546 851 579 979 b 399 1165 579 1129 481 1165 b 160 1000 286 1165 160 1090 b 274 890 160 956 193 890 b 396 907 328 890 372 907 b 453 829 435 907 453 878 b 443 728 453 792 443 758 b 579 561 443 617 579 606 b 535 525 579 535 553 535 b 406 339 501 507 406 476 b 575 26 406 186 575 167 b 468 -82 575 -51 503 -82 b 114 206 339 -82 272 206 b 22 126 49 206 22 169 b 433 -194 22 31 235 -194 b 435 -194 435 -194 435 -194 b 442 -194 438 -194 439 -194 z "},"~":{"ha":510,"x_min":0,"x_max":0,"o":"m 24 460 b 60 413 24 419 49 413 b 140 458 88 413 107 458 b 347 365 186 458 210 365 b 492 510 433 365 492 440 b 413 608 492 568 449 608 b 276 492 346 608 315 492 b 139 569 247 492 210 569 b 135 569 138 569 136 569 b 24 460 71 568 24 521 z "},"¡":{"ha":333,"x_min":0,"x_max":0,"o":"m 283 707 b 179 832 283 760 256 832 b 54 653 108 832 54 738 b 178 388 54 511 178 476 b 86 101 178 318 86 199 b 153 38 86 46 138 38 b 258 226 208 38 258 144 b 239 406 258 292 239 314 b 283 707 239 503 283 656 z m 110 946 b 208 1031 157 946 208 969 b 122 1126 208 1083 171 1126 b 24 1031 71 1126 24 1082 b 110 946 24 982 60 946 z "},"¢":{"ha":481,"x_min":0,"x_max":0,"o":"m 169 593 b 342 543 217 593 264 543 b 426 614 396 543 426 583 b 272 771 426 647 356 754 b 251 789 257 774 251 778 b 269 867 251 808 269 840 b 210 918 269 907 231 918 b 111 843 167 918 111 882 b 154 763 111 808 154 781 b 15 529 154 735 15 708 b 151 304 15 439 60 350 b 189 265 178 292 189 282 b 164 151 189 238 164 190 b 263 58 164 90 215 58 b 328 111 286 58 328 67 b 294 232 328 149 294 194 b 443 332 294 292 394 256 b 458 376 453 347 458 363 b 363 446 458 415 426 446 b 210 411 282 446 268 411 b 88 482 207 411 88 417 b 89 490 88 485 88 488 b 89 499 89 493 89 496 b 169 593 89 560 125 593 z "},"£":{"ha":765,"x_min":0,"x_max":0,"o":"m 69 319 b 131 83 47 247 4 83 b 375 160 222 83 271 160 b 569 117 453 160 497 117 b 749 296 663 117 749 203 b 658 400 749 333 733 400 b 281 236 500 400 379 236 b 224 311 264 236 224 243 b 282 415 224 400 246 415 b 339 410 304 415 315 410 b 438 478 379 410 438 431 b 381 550 438 496 424 550 b 299 529 350 550 324 529 b 260 615 282 529 260 533 b 417 797 260 718 350 797 b 500 696 481 797 500 721 b 469 558 500 656 469 604 b 529 500 469 522 493 500 b 649 607 558 500 649 518 b 615 772 649 661 615 689 l 615 774 b 489 890 615 796 624 890 b 179 672 410 890 208 838 b 26 489 149 500 26 589 b 79 435 26 444 67 435 b 90 436 83 435 88 436 b 110 419 92 436 110 438 b 69 319 110 401 79 350 z "},"¨":{"ha":367,"x_min":0,"x_max":0,"o":"m 346 1049 b 274 1131 346 1076 331 1131 b 190 1010 206 1131 190 1026 b 254 951 190 978 221 951 b 346 1049 303 951 346 999 z m 65 985 b 146 1047 111 985 146 1025 b 92 1088 146 1071 118 1088 b 19 1022 53 1088 19 1058 b 65 985 19 997 40 985 z "},"©":{"ha":717,"x_min":0,"x_max":0,"o":"m 193 757 b 586 497 549 901 561 600 b 596 418 592 469 596 443 b 394 150 596 285 494 150 b 138 303 336 150 297 181 b 89 394 107 326 89 357 b 129 646 89 433 115 569 b 193 757 135 683 138 735 z m 699 458 b 639 738 694 544 672 629 b 400 878 597 869 460 878 b 22 413 0 878 22 413 b 113 250 22 343 54 290 b 403 88 251 154 308 88 b 699 458 514 88 693 214 z m 350 342 b 514 465 481 351 514 433 b 444 536 514 497 485 536 b 326 481 396 536 368 481 b 289 517 303 481 289 493 b 332 581 289 544 308 576 b 401 647 404 596 401 646 b 335 699 401 681 369 699 b 210 497 264 699 210 583 b 347 342 210 422 235 342 b 350 342 349 342 349 342 z "},"¯":{"ha":363,"x_min":0,"x_max":0,"o":"m 228 1013 b 336 1118 319 1013 357 1085 b 293 1135 326 1135 310 1135 b 175 1144 186 1135 226 1144 b 21 1067 135 1144 21 1119 b 58 1021 21 1051 29 1024 b 138 1031 107 1015 103 1031 b 228 1013 165 1031 207 1013 z "},"°":{"ha":324,"x_min":0,"x_max":0,"o":"m 144 972 b 176 1017 144 1014 165 1017 b 193 1001 188 1017 192 1010 b 144 972 193 944 144 893 z m 208 1092 b 151 799 -54 1100 -3 799 b 208 1092 313 799 358 1088 z "},"´":{"ha":347,"x_min":0,"x_max":0,"o":"m 275 1193 b 25 988 136 1193 25 1024 b 51 961 25 972 36 961 b 303 1083 71 961 207 1022 b 329 1135 321 1094 329 1115 b 275 1193 329 1164 311 1193 z "},"·":{"ha":224,"x_min":0,"x_max":0,"o":"m 58 494 b 113 417 58 478 65 417 b 176 486 149 417 176 451 b 117 546 176 521 151 546 b 58 494 86 546 58 524 z "},"¸":{"ha":335,"x_min":0,"x_max":0,"o":"m 138 -481 b 314 -276 250 -481 314 -340 b 192 -149 314 -183 192 -190 b 225 -83 192 -124 225 -112 b 175 -42 225 -58 201 -42 b 110 -118 135 -42 110 -78 b 246 -268 110 -212 246 -222 b 179 -325 246 -290 203 -325 b 100 -231 138 -325 157 -231 b 22 -346 64 -231 22 -281 b 138 -481 22 -382 43 -481 z "},"¿":{"ha":732,"x_min":0,"x_max":0,"o":"m 679 426 b 560 593 678 494 632 593 b 444 481 514 593 451 549 b 438 386 442 449 442 418 b 233 197 425 286 328 197 b 188 229 206 197 188 207 b 407 614 188 326 374 343 b 467 850 418 699 467 765 b 369 953 467 939 396 953 b 233 794 356 953 233 949 b 329 578 233 671 329 663 b 44 201 329 446 44 353 b 194 81 44 131 106 81 b 679 424 261 81 679 158 b 679 426 679 425 679 425 z m 368 1118 b 303 1069 332 1118 303 1094 b 363 1024 303 1046 336 1024 b 422 1074 390 1024 422 1046 b 368 1118 422 1097 401 1118 z "},"À":{"ha":651,"x_min":0,"x_max":0,"o":"m 335 515 b 219 642 300 515 219 540 b 432 868 219 757 385 868 b 475 774 472 868 475 815 b 475 757 475 768 475 763 b 335 515 469 626 417 515 z m 210 290 b 206 344 210 322 206 328 b 304 460 206 386 243 460 b 419 344 329 460 419 426 b 393 119 419 301 393 219 b 515 -94 393 -42 467 -94 b 618 57 586 -94 618 -3 b 532 643 618 371 532 501 b 572 901 532 749 572 769 b 488 1032 572 924 578 1032 b 390 983 446 1032 403 996 b 61 586 278 868 61 819 b 61 568 61 581 61 578 b 33 271 61 419 33 331 b 104 131 33 258 38 131 b 201 213 107 131 185 133 b 210 290 203 221 210 254 z m 185 1257 b 282 1178 185 1233 186 1200 b 436 1082 393 1151 386 1082 b 468 1113 456 1082 468 1096 b 456 1151 468 1125 461 1144 b 257 1329 406 1219 342 1329 b 185 1257 218 1329 185 1296 z "},"Á":{"ha":651,"x_min":0,"x_max":0,"o":"m 335 515 b 219 642 300 515 219 540 b 432 868 219 757 385 868 b 475 774 472 868 475 815 b 475 757 475 768 475 763 b 335 515 469 626 417 515 z m 210 290 b 206 344 210 322 206 328 b 304 460 206 386 243 460 b 419 344 329 460 419 426 b 393 119 419 301 393 219 b 515 -94 393 -42 467 -94 b 618 57 586 -94 618 -3 b 532 643 618 371 532 501 b 572 901 532 749 572 769 b 488 1032 572 924 578 1032 b 390 983 446 1032 403 996 b 61 586 278 868 61 819 b 61 568 61 581 61 578 b 33 271 61 419 33 331 b 104 131 33 258 38 131 b 201 213 107 131 185 133 b 210 290 203 221 210 254 z m 424 1276 b 174 1071 285 1276 174 1107 b 200 1044 174 1056 185 1044 b 451 1167 219 1044 356 1106 b 478 1218 469 1178 478 1199 b 424 1276 478 1247 460 1276 z "},"Â":{"ha":651,"x_min":0,"x_max":0,"o":"m 335 515 b 219 642 300 515 219 540 b 432 868 219 757 385 868 b 475 774 472 868 475 815 b 475 757 475 768 475 763 b 335 515 469 626 417 515 z m 210 290 b 206 344 210 322 206 328 b 304 460 206 386 243 460 b 419 344 329 460 419 426 b 393 119 419 301 393 219 b 515 -94 393 -42 467 -94 b 618 57 586 -94 618 -3 b 532 643 618 371 532 501 b 572 901 532 749 572 769 b 488 1032 572 924 578 1032 b 390 983 446 1032 403 996 b 61 586 278 868 61 819 b 61 568 61 581 61 578 b 33 271 61 419 33 331 b 104 131 33 258 38 131 b 201 213 107 131 185 133 b 210 290 203 221 210 254 z m 522 1153 b 386 1336 521 1217 472 1336 b 188 1129 292 1336 188 1190 b 229 1088 188 1092 225 1088 b 326 1181 261 1088 283 1181 b 467 1081 368 1181 396 1081 b 522 1153 499 1081 521 1107 z "},"Ã":{"ha":651,"x_min":0,"x_max":0,"o":"m 335 515 b 219 642 300 515 219 540 b 432 868 219 757 385 868 b 475 774 472 868 475 815 b 475 757 475 768 475 763 b 335 515 469 626 417 515 z m 210 290 b 206 344 210 322 206 328 b 304 460 206 386 243 460 b 419 344 329 460 419 426 b 393 119 419 301 393 219 b 515 -94 393 -42 467 -94 b 618 57 586 -94 618 -3 b 532 643 618 371 532 501 b 572 901 532 749 572 769 b 488 1032 572 924 578 1032 b 390 983 446 1032 403 996 b 61 586 278 868 61 819 b 61 568 61 581 61 578 b 33 271 61 419 33 331 b 104 131 33 258 38 131 b 201 213 107 131 185 133 b 210 290 203 221 210 254 z m 443 1060 b 572 1178 564 1065 572 1163 b 503 1260 572 1229 539 1260 b 394 1165 451 1260 424 1165 b 271 1229 371 1165 331 1229 b 183 1138 224 1229 183 1189 b 207 1101 183 1132 182 1101 b 279 1136 243 1101 253 1136 b 443 1060 318 1136 325 1056 z "},"Ä":{"ha":651,"x_min":0,"x_max":0,"o":"m 335 515 b 219 642 300 515 219 540 b 432 868 219 757 385 868 b 475 774 472 868 475 815 b 475 757 475 768 475 763 b 335 515 469 626 417 515 z m 210 290 b 206 344 210 322 206 328 b 304 460 206 386 243 460 b 419 344 329 460 419 426 b 393 119 419 301 393 219 b 515 -94 393 -42 467 -94 b 618 57 586 -94 618 -3 b 532 643 618 371 532 501 b 572 901 532 749 572 769 b 488 1032 572 924 578 1032 b 390 983 446 1032 403 996 b 61 586 278 868 61 819 b 61 568 61 581 61 578 b 33 271 61 419 33 331 b 104 131 33 258 38 131 b 201 213 107 131 185 133 b 210 290 203 221 210 254 z m 524 1189 b 451 1271 524 1217 508 1271 b 368 1150 383 1271 368 1167 b 432 1092 368 1118 399 1092 b 524 1189 481 1092 524 1139 z m 243 1125 b 324 1188 289 1125 324 1165 b 269 1228 324 1211 296 1228 b 197 1163 231 1228 197 1199 b 243 1125 197 1138 218 1125 z "},"Å":{"ha":651,"x_min":0,"x_max":0,"o":"m 335 515 b 219 642 300 515 219 540 b 432 868 219 757 385 868 b 475 774 472 868 475 815 b 475 757 475 768 475 763 b 335 515 469 626 417 515 z m 210 290 b 206 344 210 322 206 328 b 304 460 206 386 243 460 b 419 344 329 460 419 426 b 393 119 419 301 393 219 b 515 -94 393 -42 467 -94 b 618 57 586 -94 618 -3 b 532 643 618 371 532 501 b 572 901 532 749 572 769 b 488 1032 572 924 578 1032 b 390 983 446 1032 403 996 b 61 586 278 868 61 819 b 61 568 61 581 61 578 b 33 271 61 419 33 331 b 104 131 33 258 38 131 b 201 213 107 131 185 133 b 210 290 203 221 210 254 z m 308 1208 b 340 1253 308 1250 329 1253 b 357 1238 351 1253 356 1246 b 308 1208 357 1181 308 1129 z m 372 1328 b 315 1035 110 1336 161 1035 b 372 1328 476 1035 522 1324 z "},"Æ":{"ha":1161,"x_min":0,"x_max":0,"o":"m 210 290 b 206 344 210 322 206 328 b 304 460 206 386 243 460 b 419 344 329 460 419 426 b 393 119 419 301 393 219 b 515 -94 393 -42 467 -94 b 614 19 572 -94 579 0 b 769 -17 649 47 708 -17 b 1133 261 878 -17 1133 50 b 1019 385 1133 318 1131 385 b 714 163 885 385 822 163 b 628 290 661 163 669 231 b 599 382 608 321 599 353 b 763 546 599 460 667 526 b 919 611 788 550 919 565 b 842 642 919 646 881 642 b 761 640 808 642 783 640 b 639 740 649 640 639 696 b 789 918 639 850 740 918 b 947 704 896 918 811 704 b 1050 818 1003 704 1050 760 b 742 1014 1050 824 1036 1014 b 556 993 699 1014 617 963 b 488 1032 524 1014 524 1032 b 390 983 446 1032 403 996 b 61 586 278 868 61 819 l 61 568 b 33 271 61 419 33 331 b 104 131 33 258 38 131 b 201 213 107 131 185 133 b 210 290 203 221 210 254 z m 335 515 b 219 642 300 515 219 540 b 432 868 219 757 385 868 b 475 774 472 868 475 815 l 475 757 b 335 515 469 626 417 515 z m 543 546 b 557 779 503 536 531 779 b 572 689 579 779 572 729 b 543 546 572 636 569 540 z "},"Ç":{"ha":658,"x_min":0,"x_max":0,"o":"m 19 397 b 336 42 19 114 229 42 b 636 308 514 42 636 189 b 494 472 636 393 575 472 b 342 372 400 472 354 393 b 225 306 310 324 251 306 b 138 426 147 306 138 392 b 165 522 138 460 146 492 b 285 785 246 651 164 725 b 315 793 296 790 306 793 b 371 701 372 793 371 704 b 369 672 371 692 369 682 b 474 582 369 583 454 582 b 599 715 600 582 599 703 b 515 850 599 774 571 832 b 331 963 401 888 406 963 b 19 397 211 963 19 631 z m 297 -439 b 474 -235 410 -439 474 -299 b 351 -107 474 -142 351 -149 b 385 -42 351 -82 385 -71 b 335 0 385 -17 361 0 b 269 -76 294 0 269 -36 b 406 -226 269 -171 406 -181 b 339 -283 406 -249 363 -283 b 260 -189 297 -283 317 -189 b 182 -304 224 -189 182 -239 b 297 -439 182 -340 203 -439 z "},"È":{"ha":701,"x_min":0,"x_max":0,"o":"m 293 1014 b 22 906 218 1014 22 1013 b 124 689 22 825 124 853 b 28 272 124 546 28 454 b 321 -17 28 111 129 -17 b 685 261 429 -17 685 50 b 571 385 685 318 682 385 b 265 163 436 385 374 163 b 179 290 213 163 221 231 b 150 382 160 321 150 353 b 314 546 150 460 218 526 b 471 611 339 550 471 565 b 393 642 471 646 432 642 b 313 640 360 642 335 640 b 190 740 200 640 190 696 b 340 918 190 850 292 918 b 499 704 447 918 363 704 b 601 818 554 704 601 760 b 293 1014 601 824 588 1014 z m 210 1257 b 307 1178 210 1233 211 1200 b 461 1082 418 1151 411 1082 b 493 1113 481 1082 493 1096 b 481 1151 493 1125 486 1144 b 282 1329 431 1219 367 1329 b 210 1257 243 1329 210 1296 z "},"É":{"ha":701,"x_min":0,"x_max":0,"o":"m 293 1014 b 22 906 218 1014 22 1013 b 124 689 22 825 124 853 b 28 272 124 546 28 454 b 321 -17 28 111 129 -17 b 685 261 429 -17 685 50 b 571 385 685 318 682 385 b 265 163 436 385 374 163 b 179 290 213 163 221 231 b 150 382 160 321 150 353 b 314 546 150 460 218 526 b 471 611 339 550 471 565 b 393 642 471 646 432 642 b 313 640 360 642 335 640 b 190 740 200 640 190 696 b 340 918 190 850 292 918 b 499 704 447 918 363 704 b 601 818 554 704 601 760 b 293 1014 601 824 588 1014 z m 449 1276 b 199 1071 310 1276 199 1107 b 225 1044 199 1056 210 1044 b 476 1167 244 1044 381 1106 b 503 1218 494 1178 503 1199 b 449 1276 503 1247 485 1276 z "},"Ê":{"ha":701,"x_min":0,"x_max":0,"o":"m 293 1014 b 22 906 218 1014 22 1013 b 124 689 22 825 124 853 b 28 272 124 546 28 454 b 321 -17 28 111 129 -17 b 685 261 429 -17 685 50 b 571 385 685 318 682 385 b 265 163 436 385 374 163 b 179 290 213 163 221 231 b 150 382 160 321 150 353 b 314 546 150 460 218 526 b 471 611 339 550 471 565 b 393 642 471 646 432 642 b 313 640 360 642 335 640 b 190 740 200 640 190 696 b 340 918 190 850 292 918 b 499 704 447 918 363 704 b 601 818 554 704 601 760 b 293 1014 601 824 588 1014 z m 518 1128 b 382 1311 517 1192 468 1311 b 183 1104 288 1311 183 1165 b 225 1063 183 1067 221 1063 b 322 1156 257 1063 279 1156 b 463 1056 364 1156 392 1056 b 518 1128 494 1056 517 1082 z "},"Ë":{"ha":701,"x_min":0,"x_max":0,"o":"m 293 1014 b 22 906 218 1014 22 1013 b 124 689 22 825 124 853 b 28 272 124 546 28 454 b 321 -17 28 111 129 -17 b 685 261 429 -17 685 50 b 571 385 685 318 682 385 b 265 163 436 385 374 163 b 179 290 213 163 221 231 b 150 382 160 321 150 353 b 314 546 150 460 218 526 b 471 611 339 550 471 565 b 393 642 471 646 432 642 b 313 640 360 642 335 640 b 190 740 200 640 190 696 b 340 918 190 850 292 918 b 499 704 447 918 363 704 b 601 818 554 704 601 760 b 293 1014 601 824 588 1014 z m 514 1174 b 442 1256 514 1201 499 1256 b 358 1135 374 1256 358 1151 b 422 1076 358 1103 389 1076 b 514 1174 471 1076 514 1124 z m 233 1110 b 314 1172 279 1110 314 1150 b 260 1213 314 1196 286 1213 b 188 1147 221 1213 188 1183 b 233 1110 188 1122 208 1110 z "},"Ì":{"ha":354,"x_min":0,"x_max":0,"o":"m 65 246 b 197 63 65 119 143 63 b 199 63 197 63 199 63 b 289 186 211 63 289 67 b 210 544 289 378 210 467 b 283 828 210 614 283 728 b 213 942 283 850 279 942 b 122 800 165 942 122 889 b 172 646 122 711 172 703 b 65 246 172 589 65 400 z m 43 1164 b 140 1085 43 1140 44 1107 b 294 989 251 1058 244 989 b 326 1019 314 989 326 1003 b 314 1058 326 1032 319 1051 b 115 1236 264 1126 200 1236 b 43 1164 76 1236 43 1203 z "},"Í":{"ha":354,"x_min":0,"x_max":0,"o":"m 65 246 b 197 63 65 119 143 63 b 199 63 197 63 199 63 b 289 186 211 63 289 67 b 210 544 289 378 210 467 b 283 828 210 614 283 728 b 213 942 283 850 279 942 b 122 800 165 942 122 889 b 172 646 122 711 172 703 b 65 246 172 589 65 400 z m 315 1208 b 65 1003 176 1208 65 1039 b 92 976 65 988 76 976 b 343 1099 111 976 247 1038 b 369 1150 361 1110 369 1131 b 315 1208 369 1179 351 1208 z "},"Î":{"ha":354,"x_min":0,"x_max":0,"o":"m 65 246 b 197 63 65 119 143 63 b 199 63 197 63 199 63 b 289 186 211 63 289 67 b 210 544 289 378 210 467 b 283 828 210 614 283 728 b 213 942 283 850 279 942 b 122 800 165 942 122 889 b 172 646 122 711 172 703 b 65 246 172 589 65 400 z m 379 1064 b 243 1247 378 1128 329 1247 b 44 1040 149 1247 44 1101 b 86 999 44 1003 82 999 b 183 1092 118 999 140 1092 b 324 992 225 1092 253 992 b 379 1064 356 992 378 1018 z "},"Ï":{"ha":354,"x_min":0,"x_max":0,"o":"m 65 246 b 197 63 65 119 143 63 b 199 63 197 63 199 63 b 289 186 211 63 289 67 b 210 544 289 378 210 467 b 283 828 210 614 283 728 b 213 942 283 850 279 942 b 122 800 165 942 122 889 b 172 646 122 711 172 703 b 65 246 172 589 65 400 z m 367 1088 b 294 1169 367 1115 351 1169 b 211 1049 226 1169 211 1065 b 275 990 211 1017 242 990 b 367 1088 324 990 367 1038 z m 86 1024 b 167 1086 132 1024 167 1064 b 113 1126 167 1110 139 1126 b 40 1061 74 1126 40 1097 b 86 1024 40 1036 61 1024 z "},"Ð":{"ha":685,"x_min":0,"x_max":0,"o":"m 179 967 b 71 881 163 967 71 976 b 114 629 71 818 75 743 b 113 575 119 611 140 576 b 92 574 106 574 99 574 b -3 586 72 574 32 586 b -65 525 -36 586 -65 574 b -3 475 -65 489 -42 475 b 104 511 44 475 79 533 b 4 189 139 486 4 260 b 104 50 4 185 10 50 b 300 85 158 50 194 83 b 644 378 501 89 564 235 b 667 463 660 404 667 433 b 635 668 667 490 647 610 b 413 903 607 803 503 844 b 179 967 343 947 281 967 z m 199 386 b 228 501 214 451 211 479 b 433 557 256 546 433 456 b 322 621 433 589 411 621 b 218 607 279 621 247 585 b 204 704 194 618 204 669 b 353 828 204 811 322 828 b 578 483 547 828 553 604 b 581 451 581 471 581 463 b 329 250 581 328 407 250 b 231 286 293 250 261 264 b 199 386 201 307 200 342 z "},"Ñ":{"ha":853,"x_min":0,"x_max":0,"o":"m 490 386 b 519 -143 490 224 406 -28 b 594 -178 540 -165 568 -178 b 699 -40 685 -178 699 -71 b 579 339 699 43 579 239 b 721 696 579 482 721 492 b 721 713 721 703 721 706 b 792 979 721 844 792 913 b 690 1060 792 1033 739 1060 b 568 903 589 1060 568 932 b 603 757 568 853 583 882 b 604 739 603 750 604 744 b 507 636 604 678 554 636 b 447 667 482 636 457 649 b 350 865 413 733 368 792 b 181 1014 318 947 285 1014 b 46 793 89 1014 46 904 b 126 361 46 667 126 419 b 111 199 126 321 111 285 b 217 71 111 122 172 71 b 328 211 254 71 328 114 b 143 572 328 343 143 461 b 267 694 143 639 199 694 b 490 386 385 694 490 508 z m 492 1035 b 621 1153 613 1040 621 1138 b 551 1235 621 1204 588 1235 b 443 1140 500 1235 472 1140 b 319 1204 419 1140 379 1204 b 232 1113 272 1204 232 1164 b 256 1076 232 1107 231 1076 b 328 1111 292 1076 301 1111 b 492 1035 367 1111 374 1031 z "},"Ò":{"ha":686,"x_min":0,"x_max":0,"o":"m 449 718 b 385 136 726 718 557 136 b 174 438 307 136 174 268 b 218 551 174 481 188 518 b 449 718 258 596 326 718 z m 6 679 b 376 58 21 336 178 58 b 676 610 596 58 676 431 b 474 888 676 894 483 888 b 297 869 390 888 381 869 b 164 886 221 869 203 886 b 6 700 99 886 6 831 b 6 679 6 693 6 686 z m 214 1114 b 311 1035 214 1090 215 1057 b 465 939 422 1008 415 939 b 497 969 485 939 497 953 b 485 1008 497 982 490 1001 b 286 1186 435 1076 371 1186 b 214 1114 247 1186 214 1153 z "},"Ó":{"ha":686,"x_min":0,"x_max":0,"o":"m 449 718 b 385 136 726 718 557 136 b 174 438 307 136 174 268 b 218 551 174 481 188 518 b 449 718 258 596 326 718 z m 6 679 b 376 58 21 336 178 58 b 676 610 596 58 676 431 b 474 888 676 894 483 888 b 297 869 390 888 381 869 b 164 886 221 869 203 886 b 6 700 99 886 6 831 b 6 679 6 693 6 686 z m 485 1176 b 235 971 346 1176 235 1007 b 261 944 235 956 246 944 b 513 1067 281 944 417 1006 b 539 1118 531 1078 539 1099 b 485 1176 539 1147 521 1176 z "},"Ô":{"ha":686,"x_min":0,"x_max":0,"o":"m 449 718 b 385 136 726 718 557 136 b 174 438 307 136 174 268 b 218 551 174 481 188 518 b 449 718 258 596 326 718 z m 6 679 b 376 58 21 336 178 58 b 676 610 596 58 676 431 b 474 888 676 894 483 888 b 297 869 390 888 381 869 b 164 886 221 869 203 886 b 6 700 99 886 6 831 b 6 679 6 693 6 686 z m 519 1036 b 383 1219 518 1100 469 1219 b 185 1013 289 1219 185 1074 b 226 971 185 975 222 971 b 324 1064 258 971 281 1064 b 464 964 365 1064 393 964 b 519 1036 496 964 518 990 z "},"Õ":{"ha":686,"x_min":0,"x_max":0,"o":"m 449 718 b 385 136 726 718 557 136 b 174 438 307 136 174 268 b 218 551 174 481 188 518 b 449 718 258 596 326 718 z m 6 679 b 376 58 21 336 178 58 b 676 610 596 58 676 431 b 474 888 676 894 483 888 b 297 869 390 888 381 869 b 164 886 221 869 203 886 b 6 700 99 886 6 831 b 6 679 6 693 6 686 z m 417 958 b 546 1076 538 964 546 1061 b 476 1158 546 1128 513 1158 b 368 1064 425 1158 397 1064 b 244 1128 344 1064 304 1128 b 157 1036 197 1128 157 1088 b 181 1000 157 1031 156 1000 b 253 1035 217 1000 226 1035 b 417 958 292 1035 299 954 z "},"Ö":{"ha":686,"x_min":0,"x_max":0,"o":"m 449 718 b 385 136 726 718 557 136 b 174 438 307 136 174 268 b 218 551 174 481 188 518 b 449 718 258 596 326 718 z m 6 679 b 376 58 21 336 178 58 b 676 610 596 58 676 431 b 474 888 676 894 483 888 b 297 869 390 888 381 869 b 164 886 221 869 203 886 b 6 700 99 886 6 831 b 6 679 6 693 6 686 z m 532 1033 b 460 1115 532 1061 517 1115 b 376 994 392 1115 376 1011 b 440 936 376 963 407 936 b 532 1033 489 936 532 983 z m 251 969 b 332 1032 297 969 332 1010 b 278 1072 332 1056 304 1072 b 206 1007 239 1072 206 1043 b 251 969 206 982 226 969 z "},"Ø":{"ha":686,"x_min":0,"x_max":0,"o":"m 6 679 b 139 214 14 493 158 281 b 6 38 122 147 11 131 b 101 -75 6 6 21 -75 b 261 92 175 -75 204 36 b 376 58 281 118 336 58 b 676 610 596 58 676 431 b 665 719 676 653 665 686 b 761 933 667 776 761 861 b 708 990 761 986 717 990 b 558 867 669 990 611 874 b 400 881 483 871 488 901 l 371 876 b 164 886 261 867 246 886 b 6 700 99 886 6 831 z m 436 724 b 494 711 453 724 485 725 b 368 518 515 681 438 576 b 279 364 321 475 289 425 b 219 268 272 322 249 292 b 174 438 192 315 174 374 b 218 551 174 481 188 518 b 436 724 258 596 314 724 z m 282 189 b 582 622 278 274 551 610 b 385 136 650 643 513 136 b 282 189 356 136 278 158 z "},"Ù":{"ha":760,"x_min":0,"x_max":0,"o":"m 306 725 b 171 972 306 978 178 972 b 18 756 64 972 18 869 b 118 349 18 599 118 488 b 100 163 118 304 100 235 b 317 -78 100 -15 233 -78 b 501 143 488 -78 492 69 b 738 564 521 304 738 311 b 704 733 738 621 728 678 b 486 1072 615 946 592 1072 b 407 1011 454 1072 407 1058 b 617 589 407 868 617 832 b 428 211 617 475 600 468 b 351 144 421 201 390 144 b 260 306 325 144 260 188 b 303 657 260 414 301 532 b 306 725 304 682 306 704 z m 183 1296 b 281 1217 183 1272 185 1239 b 435 1121 392 1190 385 1121 b 467 1151 454 1121 467 1135 b 454 1190 467 1164 460 1183 b 256 1368 404 1258 340 1368 b 183 1296 217 1368 183 1335 z "},"Ú":{"ha":760,"x_min":0,"x_max":0,"o":"m 306 725 b 171 972 306 978 178 972 b 18 756 64 972 18 869 b 118 349 18 599 118 488 b 100 163 118 304 100 235 b 317 -78 100 -15 233 -78 b 501 143 488 -78 492 69 b 738 564 521 304 738 311 b 704 733 738 621 728 678 b 486 1072 615 946 592 1072 b 407 1011 454 1072 407 1058 b 617 589 407 868 617 832 b 428 211 617 475 600 468 b 351 144 421 201 390 144 b 260 306 325 144 260 188 b 303 657 260 414 301 532 b 306 725 304 682 306 704 z m 474 1294 b 224 1089 335 1294 224 1125 b 250 1063 224 1074 235 1063 b 501 1185 269 1063 406 1124 b 528 1236 519 1196 528 1217 b 474 1294 528 1265 510 1294 z "},"Û":{"ha":760,"x_min":0,"x_max":0,"o":"m 306 725 b 171 972 306 978 178 972 b 18 756 64 972 18 869 b 118 349 18 599 118 488 b 100 163 118 304 100 235 b 317 -78 100 -15 233 -78 b 501 143 488 -78 492 69 b 738 564 521 304 738 311 b 704 733 738 621 728 678 b 486 1072 615 946 592 1072 b 407 1011 454 1072 407 1058 b 617 589 407 868 617 832 b 428 211 617 475 600 468 b 351 144 421 201 390 144 b 260 306 325 144 260 188 b 303 657 260 414 301 532 b 306 725 304 682 306 704 z m 492 1183 b 356 1367 490 1247 442 1367 b 157 1160 261 1367 157 1221 b 199 1118 157 1122 194 1118 b 296 1211 231 1118 253 1211 b 436 1111 338 1211 365 1111 b 492 1183 468 1111 490 1138 z "},"Ü":{"ha":760,"x_min":0,"x_max":0,"o":"m 306 725 b 171 972 306 978 178 972 b 18 756 64 972 18 869 b 118 349 18 599 118 488 b 100 163 118 304 100 235 b 317 -78 100 -15 233 -78 b 501 143 488 -78 492 69 b 738 564 521 304 738 311 b 704 733 738 621 728 678 b 486 1072 615 946 592 1072 b 407 1011 454 1072 407 1058 b 617 589 407 868 617 832 b 428 211 617 475 600 468 b 351 144 421 201 390 144 b 260 306 325 144 260 188 b 303 657 260 414 301 532 b 306 725 304 682 306 704 z m 486 1214 b 414 1296 486 1242 471 1296 b 331 1175 346 1296 331 1192 b 394 1117 331 1143 361 1117 b 486 1214 443 1117 486 1164 z m 206 1150 b 286 1213 251 1150 286 1190 b 232 1253 286 1236 258 1253 b 160 1188 193 1253 160 1224 b 206 1150 160 1163 181 1150 z "},"Ý":{"ha":835,"x_min":0,"x_max":0,"o":"m 507 356 b 696 222 608 347 696 358 b 679 139 696 194 690 165 b 408 -61 614 -17 501 -33 b 365 -68 393 -67 379 -68 b 132 94 271 -68 264 21 b 93 104 119 101 106 104 b 15 21 60 104 15 76 b 293 -132 15 -111 218 -132 b 810 283 558 -132 810 64 b 676 717 810 511 676 592 b 719 968 676 776 719 894 b 629 1068 719 989 715 1068 b 525 829 536 1068 525 979 b 578 568 525 656 578 628 b 464 454 578 500 510 454 b 275 832 368 454 275 625 b 294 1015 275 935 294 974 b 231 1104 294 1065 272 1104 b 68 926 81 1104 68 964 b 269 497 68 760 246 665 b 300 408 274 467 289 438 b 404 349 324 354 385 349 b 507 356 417 349 489 354 z m 585 1336 b 335 1131 446 1336 335 1167 b 361 1104 335 1115 346 1104 b 613 1226 381 1104 517 1165 b 639 1278 631 1238 639 1258 b 585 1336 639 1307 621 1336 z "},"ß":{"ha":731,"x_min":0,"x_max":0,"o":"m 426 306 b 318 185 344 300 318 210 b 431 65 318 172 324 65 b 715 250 544 65 715 144 b 340 571 715 397 340 497 b 592 847 340 642 592 722 b 329 1054 592 926 489 1054 b 21 731 119 1054 21 832 b 111 439 21 610 111 569 b 15 86 111 310 15 193 b 140 -79 15 25 47 -79 b 251 83 218 -79 251 32 b 163 367 251 181 163 274 b 179 485 163 413 179 425 b 147 671 179 568 147 597 b 336 896 147 789 250 896 b 474 813 396 896 474 846 b 461 781 474 803 469 793 b 207 558 400 681 207 676 b 568 333 207 399 568 467 b 526 296 568 307 544 296 b 426 306 514 296 458 307 z "},"à":{"ha":557,"x_min":0,"x_max":0,"o":"m 306 633 b 193 499 296 554 265 532 b 172 493 185 496 178 493 b 143 533 142 493 143 532 b 264 683 143 590 217 683 b 306 636 286 683 306 669 b 306 633 306 635 306 633 z m 544 174 b 479 339 544 210 528 258 b 276 882 363 529 438 882 b 79 619 236 882 79 815 b 81 549 79 596 81 571 b 10 265 81 408 10 394 b 64 211 10 232 39 211 b 158 400 122 211 132 288 b 249 476 169 451 222 476 b 471 79 378 476 304 79 b 544 174 515 79 544 122 z m 136 1078 b 233 999 136 1054 138 1021 b 388 903 344 972 338 903 b 419 933 407 903 419 917 b 407 972 419 946 413 965 b 208 1150 357 1040 293 1150 b 136 1078 169 1150 136 1117 z "},"á":{"ha":557,"x_min":0,"x_max":0,"o":"m 306 633 b 193 499 296 554 265 532 b 172 493 185 496 178 493 b 143 533 142 493 143 532 b 264 683 143 590 217 683 b 306 636 286 683 306 669 b 306 633 306 635 306 633 z m 544 174 b 479 339 544 210 528 258 b 276 882 363 529 438 882 b 79 619 236 882 79 815 b 81 549 79 596 81 571 b 10 265 81 408 10 394 b 64 211 10 232 39 211 b 158 400 122 211 132 288 b 249 476 169 451 222 476 b 471 79 378 476 304 79 b 544 174 515 79 544 122 z m 371 1151 b 121 946 232 1151 121 982 b 147 919 121 931 132 919 b 399 1042 167 919 303 981 b 425 1093 417 1053 425 1074 b 371 1151 425 1122 407 1151 z "},"â":{"ha":557,"x_min":0,"x_max":0,"o":"m 306 633 b 193 499 296 554 265 532 b 172 493 185 496 178 493 b 143 533 142 493 143 532 b 264 683 143 590 217 683 b 306 636 286 683 306 669 b 306 633 306 635 306 633 z m 544 174 b 479 339 544 210 528 258 b 276 882 363 529 438 882 b 79 619 236 882 79 815 b 81 549 79 596 81 571 b 10 265 81 408 10 394 b 64 211 10 232 39 211 b 158 400 122 211 132 288 b 249 476 169 451 222 476 b 471 79 378 476 304 79 b 544 174 515 79 544 122 z m 444 990 b 308 1174 443 1054 394 1174 b 110 967 214 1174 110 1028 b 151 925 110 929 147 925 b 249 1018 183 925 206 1018 b 389 918 290 1018 318 918 b 444 990 421 918 443 944 z "},"ã":{"ha":557,"x_min":0,"x_max":0,"o":"m 306 633 b 193 499 296 554 265 532 b 172 493 185 496 178 493 b 143 533 142 493 143 532 b 264 683 143 590 217 683 b 306 636 286 683 306 669 b 306 633 306 635 306 633 z m 544 174 b 479 339 544 210 528 258 b 276 882 363 529 438 882 b 79 619 236 882 79 815 b 81 549 79 596 81 571 b 10 265 81 408 10 394 b 64 211 10 232 39 211 b 158 400 122 211 132 288 b 249 476 169 451 222 476 b 471 79 378 476 304 79 b 544 174 515 79 544 122 z m 343 942 b 472 1060 464 947 472 1044 b 403 1142 472 1111 439 1142 b 294 1047 351 1142 324 1047 b 171 1111 271 1047 231 1111 b 83 1019 124 1111 83 1071 b 107 983 83 1014 82 983 b 179 1018 143 983 153 1018 b 343 942 218 1018 225 938 z "},"ä":{"ha":557,"x_min":0,"x_max":0,"o":"m 306 633 b 193 499 296 554 265 532 b 172 493 185 496 178 493 b 143 533 142 493 143 532 b 264 683 143 590 217 683 b 306 636 286 683 306 669 b 306 633 306 635 306 633 z m 544 174 b 479 339 544 210 528 258 b 276 882 363 529 438 882 b 79 619 236 882 79 815 b 81 549 79 596 81 571 b 10 265 81 408 10 394 b 64 211 10 232 39 211 b 158 400 122 211 132 288 b 249 476 169 451 222 476 b 471 79 378 476 304 79 b 544 174 515 79 544 122 z m 440 1017 b 368 1099 440 1044 425 1099 b 285 978 300 1099 285 994 b 349 919 285 946 315 919 b 440 1017 397 919 440 967 z m 160 953 b 240 1015 206 953 240 993 b 186 1056 240 1039 213 1056 b 114 990 147 1056 114 1026 b 160 953 114 965 135 953 z "},"å":{"ha":557,"x_min":0,"x_max":0,"o":"m 306 633 b 193 499 296 554 265 532 b 172 493 185 496 178 493 b 143 533 142 493 143 532 b 264 683 143 590 217 683 b 306 636 286 683 306 669 b 306 633 306 635 306 633 z m 544 174 b 479 339 544 210 528 258 b 276 882 363 529 438 882 b 79 619 236 882 79 815 b 81 549 79 596 81 571 b 10 265 81 408 10 394 b 64 211 10 232 39 211 b 158 400 122 211 132 288 b 249 476 169 451 222 476 b 471 79 378 476 304 79 b 544 174 515 79 544 122 z m 260 1099 b 292 1143 260 1140 281 1143 b 308 1128 303 1143 307 1136 b 260 1099 308 1071 260 1019 z m 324 1218 b 267 925 61 1226 113 925 b 324 1218 428 925 474 1214 z "},"æ":{"ha":969,"x_min":0,"x_max":0,"o":"m 471 79 b 543 194 528 79 511 167 b 643 185 558 213 611 192 b 844 215 685 176 788 197 b 951 368 907 235 951 303 b 897 449 951 389 946 449 b 618 243 778 449 788 243 b 506 292 574 243 528 263 b 497 308 503 297 500 303 b 493 329 494 315 493 322 b 524 386 493 350 504 369 b 775 494 633 479 703 433 b 796 536 790 507 796 522 b 576 750 796 626 576 535 b 650 826 576 803 628 826 b 838 707 706 826 724 707 b 907 778 881 707 907 735 b 826 888 907 829 869 875 b 699 901 794 896 729 901 b 400 646 489 901 442 617 b 276 882 369 650 365 882 b 79 619 236 882 79 815 b 81 549 79 596 81 571 b 10 265 81 408 10 394 b 64 211 10 232 39 211 b 158 400 122 211 132 288 b 249 476 169 451 222 476 b 471 79 378 476 304 79 z m 306 633 b 193 499 296 554 265 532 b 172 493 185 496 178 493 b 143 533 142 493 143 532 b 264 683 143 590 217 683 b 306 636 286 683 306 669 z "},"ç":{"ha":561,"x_min":0,"x_max":0,"o":"m 14 349 b 239 165 14 257 43 240 b 317 150 268 154 292 150 b 549 406 481 150 549 360 b 471 475 549 447 517 475 b 215 296 315 475 339 296 b 79 393 183 296 79 317 b 213 615 79 446 158 615 b 338 536 251 615 288 536 b 422 660 372 536 422 586 b 294 813 422 736 369 813 b 14 394 163 813 14 593 b 14 382 14 390 14 386 b 14 349 14 371 14 360 z m 251 -315 b 428 -111 364 -315 428 -175 b 306 17 428 -18 306 -25 b 339 82 306 42 339 53 b 289 124 339 107 315 124 b 224 47 249 124 224 88 b 360 -103 224 -47 360 -57 b 293 -160 360 -125 317 -160 b 214 -65 251 -160 271 -65 b 136 -181 178 -65 136 -115 b 251 -315 136 -217 157 -315 z "},"è":{"ha":613,"x_min":0,"x_max":0,"o":"m 265 124 b 486 153 308 124 429 135 b 593 306 549 172 593 240 b 539 386 593 326 588 386 b 260 181 419 386 429 181 b 135 267 199 181 135 217 b 165 324 135 288 146 307 b 417 432 275 417 344 371 b 438 474 432 444 438 460 b 218 688 438 564 218 472 b 292 764 218 740 269 764 b 479 644 347 764 365 644 b 549 715 522 644 549 672 b 468 825 549 767 511 813 b 340 839 436 833 371 839 b 44 586 131 839 153 656 b 18 536 28 575 18 557 b 60 269 18 468 46 444 b 265 124 64 213 96 124 z m 164 1040 b 261 961 164 1017 165 983 b 415 865 372 935 365 865 b 447 896 435 865 447 879 b 435 935 447 908 440 928 b 236 1113 385 1003 321 1113 b 164 1040 197 1113 164 1079 z "},"é":{"ha":613,"x_min":0,"x_max":0,"o":"m 265 124 b 486 153 308 124 429 135 b 593 306 549 172 593 240 b 539 386 593 326 588 386 b 260 181 419 386 429 181 b 135 267 199 181 135 217 b 165 324 135 288 146 307 b 417 432 275 417 344 371 b 438 474 432 444 438 460 b 218 688 438 564 218 472 b 292 764 218 740 269 764 b 479 644 347 764 365 644 b 549 715 522 644 549 672 b 468 825 549 767 511 813 b 340 839 436 833 371 839 b 44 586 131 839 153 656 b 18 536 28 575 18 557 b 60 269 18 468 46 444 b 265 124 64 213 96 124 z m 432 1090 b 182 885 293 1090 182 921 b 208 858 182 869 193 858 b 460 981 228 858 364 919 b 486 1032 478 992 486 1013 b 432 1090 486 1061 468 1090 z "},"ê":{"ha":613,"x_min":0,"x_max":0,"o":"m 265 124 b 486 153 308 124 429 135 b 593 306 549 172 593 240 b 539 386 593 326 588 386 b 260 181 419 386 429 181 b 135 267 199 181 135 217 b 165 324 135 288 146 307 b 417 432 275 417 344 371 b 438 474 432 444 438 460 b 218 688 438 564 218 472 b 292 764 218 740 269 764 b 479 644 347 764 365 644 b 549 715 522 644 549 672 b 468 825 549 767 511 813 b 340 839 436 833 371 839 b 44 586 131 839 153 656 b 18 536 28 575 18 557 b 60 269 18 468 46 444 b 265 124 64 213 96 124 z m 507 953 b 371 1136 506 1017 457 1136 b 172 929 276 1136 172 990 b 214 888 172 892 210 888 b 311 981 246 888 268 981 b 451 881 353 981 381 881 b 507 953 483 881 506 907 z "},"ë":{"ha":613,"x_min":0,"x_max":0,"o":"m 265 124 b 486 153 308 124 429 135 b 593 306 549 172 593 240 b 539 386 593 326 588 386 b 260 181 419 386 429 181 b 135 267 199 181 135 217 b 165 324 135 288 146 307 b 417 432 275 417 344 371 b 438 474 432 444 438 460 b 218 688 438 564 218 472 b 292 764 218 740 269 764 b 479 644 347 764 365 644 b 549 715 522 644 549 672 b 468 825 549 767 511 813 b 340 839 436 833 371 839 b 44 586 131 839 153 656 b 18 536 28 575 18 557 b 60 269 18 468 46 444 b 265 124 64 213 96 124 z m 508 982 b 436 1064 508 1010 493 1064 b 353 943 368 1064 353 960 b 417 885 353 911 383 885 b 508 982 465 885 508 932 z m 228 918 b 308 981 274 918 308 958 b 254 1021 308 1004 281 1021 b 182 956 215 1021 182 992 b 228 918 182 931 203 918 z "},"ì":{"ha":279,"x_min":0,"x_max":0,"o":"m 11 225 b 92 129 11 168 35 129 b 206 264 163 129 206 197 b 132 490 206 347 132 415 b 265 776 132 588 265 686 b 163 846 265 818 213 846 b 26 704 114 846 26 821 b 53 501 26 628 53 606 b 11 225 53 421 11 306 z m -4 1054 b 93 975 -4 1031 -3 997 b 247 879 204 949 197 879 b 279 910 267 879 279 893 b 267 949 279 922 272 942 b 68 1126 217 1017 153 1126 b -4 1054 29 1126 -4 1093 z "},"í":{"ha":279,"x_min":0,"x_max":0,"o":"m 11 225 b 92 129 11 168 35 129 b 206 264 163 129 206 197 b 132 490 206 347 132 415 b 265 776 132 588 265 686 b 163 846 265 818 213 846 b 26 704 114 846 26 821 b 53 501 26 628 53 606 b 11 225 53 421 11 306 z m 236 1101 b -14 896 97 1101 -14 932 b 13 869 -14 881 -3 869 b 264 992 32 869 168 931 b 290 1043 282 1003 290 1024 b 236 1101 290 1072 272 1101 z "},"î":{"ha":279,"x_min":0,"x_max":0,"o":"m 11 225 b 92 129 11 168 35 129 b 206 264 163 129 206 197 b 132 490 206 347 132 415 b 265 776 132 588 265 686 b 163 846 265 818 213 846 b 26 704 114 846 26 821 b 53 501 26 628 53 606 b 11 225 53 421 11 306 z m 321 950 b 185 1133 319 1014 271 1133 b -14 926 90 1133 -14 988 b 28 885 -14 889 24 885 b 125 978 60 885 82 978 b 265 878 167 978 194 878 b 321 950 297 878 319 904 z "},"ï":{"ha":279,"x_min":0,"x_max":0,"o":"m 11 225 b 92 129 11 168 35 129 b 206 264 163 129 206 197 b 132 490 206 347 132 415 b 265 776 132 588 265 686 b 163 846 265 818 213 846 b 26 704 114 846 26 821 b 53 501 26 628 53 606 b 11 225 53 421 11 306 z m 324 972 b 251 1054 324 1000 308 1054 b 168 933 183 1054 168 950 b 232 875 168 901 199 875 b 324 972 281 875 324 922 z m 43 908 b 124 971 89 908 124 949 b 69 1011 124 994 96 1011 b -3 946 31 1011 -3 982 b 43 908 -3 921 18 908 z "},"ñ":{"ha":711,"x_min":0,"x_max":0,"o":"m 400 169 b 490 32 400 76 440 32 b 568 149 567 32 568 99 b 567 193 568 164 567 171 b 589 368 567 294 589 301 b 579 524 589 397 579 475 b 699 789 579 624 699 647 b 596 921 699 886 644 921 b 456 731 524 921 503 847 b 443 667 447 708 443 686 b 472 517 443 604 472 565 b 439 458 472 486 463 458 b 356 508 418 458 397 479 b 131 857 213 610 272 857 b 15 679 44 857 15 735 b 82 383 15 582 82 496 b 68 286 82 328 68 321 b 182 147 68 146 176 147 b 243 221 226 147 243 185 b 158 436 243 297 158 361 b 213 539 158 451 168 539 b 319 449 246 539 279 492 b 403 250 371 390 403 326 b 401 215 403 239 403 228 b 400 169 401 200 400 185 z m 403 926 b 532 1044 524 932 532 1029 b 463 1126 532 1096 499 1126 b 354 1032 411 1126 383 1032 b 231 1096 331 1032 290 1096 b 143 1004 183 1096 143 1056 b 167 968 143 999 142 968 b 239 1003 203 968 213 1003 b 403 926 278 1003 285 922 z "},"ò":{"ha":608,"x_min":0,"x_max":0,"o":"m 281 301 b 193 596 217 301 128 315 b 308 719 208 660 263 719 b 424 500 371 719 424 571 b 281 301 424 429 376 301 z m 596 406 b 460 757 596 410 604 482 b 247 843 436 801 394 843 b 40 429 106 843 147 635 b 22 344 35 418 22 379 b 276 118 22 224 142 118 b 596 403 410 118 596 203 b 596 406 596 403 596 404 z m 172 1044 b 269 965 172 1021 174 988 b 424 869 381 939 374 869 b 456 900 443 869 456 883 b 443 939 456 913 449 932 b 244 1117 393 1007 329 1117 b 172 1044 206 1117 172 1083 z "},"ó":{"ha":608,"x_min":0,"x_max":0,"o":"m 281 301 b 193 596 217 301 128 315 b 308 719 208 660 263 719 b 424 500 371 719 424 571 b 281 301 424 429 376 301 z m 596 406 b 460 757 596 410 604 482 b 247 843 436 801 394 843 b 40 429 106 843 147 635 b 22 344 35 418 22 379 b 276 118 22 224 142 118 b 596 403 410 118 596 203 b 596 406 596 403 596 404 z m 389 1133 b 139 928 250 1133 139 964 b 165 901 139 913 150 901 b 417 1024 185 901 321 963 b 443 1075 435 1035 443 1056 b 389 1133 443 1104 425 1133 z "},"ô":{"ha":608,"x_min":0,"x_max":0,"o":"m 281 301 b 193 596 217 301 128 315 b 308 719 208 660 263 719 b 424 500 371 719 424 571 b 281 301 424 429 376 301 z m 596 406 b 460 757 596 410 604 482 b 247 843 436 801 394 843 b 40 429 106 843 147 635 b 22 344 35 418 22 379 b 276 118 22 224 142 118 b 596 403 410 118 596 203 b 596 406 596 403 596 404 z m 476 954 b 340 1138 475 1018 426 1138 b 142 931 246 1138 142 992 b 183 889 142 893 179 889 b 281 982 215 889 238 982 b 421 882 322 982 350 882 b 476 954 453 882 475 908 z "},"õ":{"ha":608,"x_min":0,"x_max":0,"o":"m 281 301 b 193 596 217 301 128 315 b 308 719 208 660 263 719 b 424 500 371 719 424 571 b 281 301 424 429 376 301 z m 596 406 b 460 757 596 410 604 482 b 247 843 436 801 394 843 b 40 429 106 843 147 635 b 22 344 35 418 22 379 b 276 118 22 224 142 118 b 596 403 410 118 596 203 b 596 406 596 403 596 404 z m 381 892 b 510 1010 501 897 510 994 b 440 1092 510 1061 476 1092 b 332 997 389 1092 361 997 b 208 1061 308 997 268 1061 b 121 969 161 1061 121 1021 b 144 933 121 964 119 933 b 217 968 181 933 190 968 b 381 892 256 968 263 888 z "},"ö":{"ha":608,"x_min":0,"x_max":0,"o":"m 281 301 b 193 596 217 301 128 315 b 308 719 208 660 263 719 b 424 500 371 719 424 571 b 281 301 424 429 376 301 z m 596 406 b 460 757 596 410 604 482 b 247 843 436 801 394 843 b 40 429 106 843 147 635 b 22 344 35 418 22 379 b 276 118 22 224 142 118 b 596 403 410 118 596 203 b 596 406 596 403 596 404 z m 472 981 b 400 1063 472 1008 457 1063 b 317 942 332 1063 317 958 b 381 883 317 910 347 883 b 472 981 429 883 472 931 z m 192 917 b 272 979 238 917 272 957 b 218 1019 272 1003 244 1019 b 146 954 179 1019 146 990 b 192 917 146 929 167 917 z "},"ø":{"ha":638,"x_min":0,"x_max":0,"o":"m 614 403 b 535 643 604 565 535 581 b 633 838 539 700 633 771 b 588 885 633 882 593 885 b 458 786 532 883 496 785 b 265 843 400 785 379 843 b 58 429 124 843 165 635 b 76 232 6 325 89 263 b -29 92 60 186 -25 164 b 54 -1 -29 65 -17 -1 b 194 138 121 -1 167 104 b 294 118 221 165 261 125 b 614 403 442 86 626 206 z m 210 363 b 211 596 164 339 203 558 b 326 719 226 660 281 719 b 400 653 354 719 396 693 b 289 492 407 606 350 540 b 210 363 247 457 240 378 z m 299 293 b 251 307 283 290 263 289 b 438 539 225 335 406 556 b 299 293 476 540 396 308 z "},"ù":{"ha":608,"x_min":0,"x_max":0,"o":"m 39 496 b 151 106 22 281 51 178 b 304 56 197 74 251 56 b 592 371 479 56 592 242 b 554 628 592 464 554 521 b 563 785 554 689 563 693 b 531 907 563 826 564 867 b 478 935 515 925 496 935 b 365 749 433 935 365 865 b 481 299 365 593 481 404 b 299 158 481 190 353 158 b 144 319 185 158 144 246 b 311 708 144 540 311 625 b 196 817 311 769 258 817 b 39 496 46 817 47 599 z m 143 1118 b 240 1039 143 1094 144 1061 b 394 943 351 1013 344 943 b 426 974 414 943 426 957 b 414 1013 426 986 419 1006 b 215 1190 364 1081 300 1190 b 143 1118 176 1190 143 1157 z "},"ú":{"ha":608,"x_min":0,"x_max":0,"o":"m 39 496 b 151 106 22 281 51 178 b 304 56 197 74 251 56 b 592 371 479 56 592 242 b 554 628 592 464 554 521 b 563 785 554 689 563 693 b 531 907 563 826 564 867 b 478 935 515 925 496 935 b 365 749 433 935 365 865 b 481 299 365 593 481 404 b 299 158 481 190 353 158 b 144 319 185 158 144 246 b 311 708 144 540 311 625 b 196 817 311 769 258 817 b 39 496 46 817 47 599 z m 421 1113 b 171 907 282 1113 171 943 b 197 881 171 892 182 881 b 449 1003 217 881 353 942 b 475 1054 467 1014 475 1035 b 421 1113 475 1083 457 1113 z "},"û":{"ha":608,"x_min":0,"x_max":0,"o":"m 39 496 b 151 106 22 281 51 178 b 304 56 197 74 251 56 b 592 371 479 56 592 242 b 554 628 592 464 554 521 b 563 785 554 689 563 693 b 531 907 563 826 564 867 b 478 935 515 925 496 935 b 365 749 433 935 365 865 b 481 299 365 593 481 404 b 299 158 481 190 353 158 b 144 319 185 158 144 246 b 311 708 144 540 311 625 b 196 817 311 769 258 817 b 39 496 46 817 47 599 z m 472 1044 b 336 1228 471 1108 422 1228 b 138 1021 242 1228 138 1082 b 179 979 138 983 175 979 b 276 1072 211 979 233 1072 b 417 972 318 1072 346 972 b 472 1044 449 972 471 999 z "},"ü":{"ha":608,"x_min":0,"x_max":0,"o":"m 39 496 b 151 106 22 281 51 178 b 304 56 197 74 251 56 b 592 371 479 56 592 242 b 554 628 592 464 554 521 b 563 785 554 689 563 693 b 531 907 563 826 564 867 b 478 935 515 925 496 935 b 365 749 433 935 365 865 b 481 299 365 593 481 404 b 299 158 481 190 353 158 b 144 319 185 158 144 246 b 311 708 144 540 311 625 b 196 817 311 769 258 817 b 39 496 46 817 47 599 z m 468 1049 b 396 1131 468 1076 453 1131 b 313 1010 328 1131 313 1026 b 376 951 313 978 343 951 b 468 1049 425 951 468 999 z m 188 985 b 268 1047 233 985 268 1025 b 214 1088 268 1071 240 1088 b 142 1022 175 1088 142 1058 b 188 985 142 997 163 985 z "},"ý":{"ha":690,"x_min":0,"x_max":0,"o":"m 225 122 b 335 -18 228 19 289 -18 b 440 94 357 -18 440 -7 b 382 407 440 192 382 263 b 672 890 382 651 672 735 b 607 956 672 929 644 956 b 307 601 421 956 375 601 b 193 931 258 601 247 731 b 125 993 182 974 154 993 b 15 849 74 993 15 936 b 297 421 15 579 297 608 b 225 122 297 331 229 225 z m 482 1174 b 232 968 343 1174 232 1004 b 258 942 232 953 243 942 b 510 1064 278 942 414 1003 b 536 1115 528 1075 536 1096 b 482 1174 536 1144 518 1174 z "},"ÿ":{"ha":690,"x_min":0,"x_max":0,"o":"m 225 122 b 335 -18 228 19 289 -18 b 440 94 357 -18 440 -7 b 382 407 440 192 382 263 b 672 890 382 651 672 735 b 607 956 672 929 644 956 b 307 601 421 956 375 601 b 193 931 258 601 247 731 b 125 993 182 974 154 993 b 15 849 74 993 15 936 b 297 421 15 579 297 608 b 225 122 297 331 229 225 z m 529 1074 b 457 1156 529 1101 514 1156 b 374 1035 389 1156 374 1051 b 438 976 374 1003 404 976 b 529 1074 486 976 529 1024 z m 249 1010 b 329 1072 294 1010 329 1050 b 275 1113 329 1096 301 1113 b 203 1047 236 1113 203 1083 b 249 1010 203 1022 224 1010 z "},"Ā":{"ha":651,"x_min":0,"x_max":0,"o":"m 335 515 b 219 642 300 515 219 540 b 432 868 219 757 385 868 b 475 774 472 868 475 815 b 475 757 475 768 475 763 b 335 515 469 626 417 515 z m 210 290 b 206 344 210 322 206 328 b 304 460 206 386 243 460 b 419 344 329 460 419 426 b 393 119 419 301 393 219 b 515 -94 393 -42 467 -94 b 618 57 586 -94 618 -3 b 532 643 618 371 532 501 b 572 901 532 749 572 769 b 488 1032 572 924 578 1032 b 390 983 446 1032 403 996 b 61 586 278 868 61 819 b 61 568 61 581 61 578 b 33 271 61 419 33 331 b 104 131 33 258 38 131 b 201 213 107 131 185 133 b 210 290 203 221 210 254 z m 393 1079 b 501 1185 485 1079 522 1151 b 458 1201 492 1201 475 1201 b 340 1211 351 1201 392 1211 b 186 1133 300 1211 186 1186 b 224 1088 186 1118 194 1090 b 303 1097 272 1082 268 1097 b 393 1079 331 1097 372 1079 z "},"ā":{"ha":557,"x_min":0,"x_max":0,"o":"m 306 633 b 193 499 296 554 265 532 b 172 493 185 496 178 493 b 143 533 142 493 143 532 b 264 683 143 590 217 683 b 306 636 286 683 306 669 b 306 633 306 635 306 633 z m 544 174 b 479 339 544 210 528 258 b 276 882 363 529 438 882 b 79 619 236 882 79 815 b 81 549 79 596 81 571 b 10 265 81 408 10 394 b 64 211 10 232 39 211 b 158 400 122 211 132 288 b 249 476 169 451 222 476 b 471 79 378 476 304 79 b 544 174 515 79 544 122 z m 306 931 b 414 1036 397 931 435 1003 b 371 1053 404 1053 388 1053 b 253 1063 264 1053 304 1063 b 99 985 213 1063 99 1038 b 136 939 99 969 107 942 b 215 949 185 933 181 949 b 306 931 243 949 285 931 z "},"Ă":{"ha":651,"x_min":0,"x_max":0,"o":"m 335 515 b 219 642 300 515 219 540 b 432 868 219 757 385 868 b 475 774 472 868 475 815 b 475 757 475 768 475 763 b 335 515 469 626 417 515 z m 210 290 b 206 344 210 322 206 328 b 304 460 206 386 243 460 b 419 344 329 460 419 426 b 393 119 419 301 393 219 b 515 -94 393 -42 467 -94 b 618 57 586 -94 618 -3 b 532 643 618 371 532 501 b 572 901 532 749 572 769 b 488 1032 572 924 578 1032 b 390 983 446 1032 403 996 b 61 586 278 868 61 819 b 61 568 61 581 61 578 b 33 271 61 419 33 331 b 104 131 33 258 38 131 b 201 213 107 131 185 133 b 210 290 203 221 210 254 z m 457 1214 b 411 1269 453 1268 417 1269 b 297 1172 364 1269 329 1172 b 239 1240 274 1172 281 1240 b 194 1167 214 1240 194 1204 b 306 1036 194 1106 240 1036 b 457 1213 394 1036 457 1154 b 457 1214 457 1214 457 1214 z "},"ă":{"ha":557,"x_min":0,"x_max":0,"o":"m 306 633 b 193 499 296 554 265 532 b 172 493 185 496 178 493 b 143 533 142 493 143 532 b 264 683 143 590 217 683 b 306 636 286 683 306 669 b 306 633 306 635 306 633 z m 544 174 b 479 339 544 210 528 258 b 276 882 363 529 438 882 b 79 619 236 882 79 815 b 81 549 79 596 81 571 b 10 265 81 408 10 394 b 64 211 10 232 39 211 b 158 400 122 211 132 288 b 249 476 169 451 222 476 b 471 79 378 476 304 79 b 544 174 515 79 544 122 z m 410 1131 b 364 1186 406 1185 369 1186 b 250 1089 317 1186 282 1089 b 192 1157 226 1089 233 1157 b 147 1083 167 1157 147 1121 b 258 953 147 1022 193 953 b 410 1129 347 953 410 1071 b 410 1131 410 1131 410 1131 z "},"Ą":{"ha":651,"x_min":0,"x_max":0,"o":"m 210 290 b 206 344 210 322 206 328 b 304 460 206 386 243 460 b 419 344 329 460 419 426 b 393 119 419 301 393 219 b 414 -57 393 29 421 -8 b 313 -335 410 -94 293 -229 b 440 -451 325 -403 365 -450 b 675 -242 586 -442 675 -308 b 618 -186 675 -229 672 -186 b 465 -326 549 -186 488 -303 b 421 -344 454 -337 438 -344 b 379 -303 399 -344 379 -333 b 471 -154 379 -297 389 -208 b 618 57 531 -115 618 -14 b 532 643 618 371 532 501 b 572 901 532 749 572 769 b 488 1032 572 924 578 1032 b 390 983 446 1032 403 996 b 61 586 278 868 61 819 l 61 568 b 33 271 61 419 33 331 b 104 131 33 258 38 131 b 201 213 107 131 185 133 b 210 290 203 221 210 254 z m 335 515 b 219 642 300 515 219 540 b 432 868 219 757 385 868 b 475 774 472 868 475 815 l 475 757 b 335 515 469 626 417 515 z "},"ą":{"ha":557,"x_min":0,"x_max":0,"o":"m 443 44 b 546 182 515 97 546 136 b 479 339 546 224 519 271 b 276 882 363 529 438 882 b 79 619 236 882 79 815 b 81 549 79 596 81 571 b 10 265 81 408 10 394 b 64 211 10 232 39 211 b 158 400 122 211 132 288 b 249 476 169 451 222 476 b 368 171 336 476 368 283 b 365 119 368 150 367 133 b 289 -111 363 68 289 -32 b 413 -253 289 -183 336 -251 b 647 -43 558 -243 647 -110 b 590 13 647 -31 644 13 b 438 -128 521 13 460 -104 b 393 -146 426 -139 410 -146 b 351 -104 371 -146 351 -135 b 443 44 351 -99 358 -17 z m 306 633 b 193 499 296 554 265 532 b 172 493 185 496 178 493 b 143 532 144 493 143 526 b 143 533 143 533 143 533 b 264 683 143 590 217 683 b 306 636 286 683 306 669 z "},"Ć":{"ha":658,"x_min":0,"x_max":0,"o":"m 19 397 b 336 42 19 114 229 42 b 636 308 514 42 636 189 b 494 472 636 393 575 472 b 342 372 400 472 354 393 b 225 306 310 324 251 306 b 138 426 147 306 138 392 b 165 522 138 460 146 492 b 285 785 246 651 164 725 b 315 793 296 790 306 793 b 371 701 372 793 371 704 b 369 672 371 692 369 682 b 474 582 369 583 454 582 b 599 715 600 582 599 703 b 515 850 599 774 571 832 b 331 963 401 888 406 963 b 19 397 211 963 19 631 z m 467 1232 b 217 1026 328 1232 217 1063 b 243 1000 217 1011 228 1000 b 494 1122 263 1000 399 1061 b 521 1174 513 1133 521 1154 b 467 1232 521 1203 503 1232 z "},"ć":{"ha":561,"x_min":0,"x_max":0,"o":"m 14 349 b 239 165 14 257 43 240 b 317 150 268 154 292 150 b 549 406 481 150 549 360 b 471 475 549 447 517 475 b 215 296 315 475 339 296 b 79 393 183 296 79 317 b 213 615 79 446 158 615 b 338 536 251 615 288 536 b 422 660 372 536 422 586 b 294 813 422 736 369 813 b 14 394 163 813 14 593 b 14 382 14 390 14 386 b 14 349 14 371 14 360 z m 388 1065 b 138 860 249 1065 138 896 b 164 833 138 844 149 833 b 415 956 183 833 319 894 b 442 1007 433 967 442 988 b 388 1065 442 1036 424 1065 z "},"Ĉ":{"ha":658,"x_min":0,"x_max":0,"o":"m 19 397 b 336 42 19 114 229 42 b 636 308 514 42 636 189 b 494 472 636 393 575 472 b 342 372 400 472 354 393 b 225 306 310 324 251 306 b 138 426 147 306 138 392 b 165 522 138 460 146 492 b 285 785 246 651 164 725 b 315 793 296 790 306 793 b 371 701 372 793 371 704 b 369 672 371 692 369 682 b 474 582 369 583 454 582 b 599 715 600 582 599 703 b 515 850 599 774 571 832 b 331 963 401 888 406 963 b 19 397 211 963 19 631 z m 503 1079 b 367 1263 501 1143 453 1263 b 168 1056 272 1263 168 1117 b 210 1014 168 1018 206 1014 b 307 1107 242 1014 264 1107 b 447 1007 349 1107 376 1007 b 503 1079 479 1007 501 1033 z "},"ĉ":{"ha":561,"x_min":0,"x_max":0,"o":"m 14 349 b 239 165 14 257 43 240 b 317 150 268 154 292 150 b 549 406 481 150 549 360 b 471 475 549 447 517 475 b 215 296 315 475 339 296 b 79 393 183 296 79 317 b 213 615 79 446 158 615 b 338 536 251 615 288 536 b 422 660 372 536 422 586 b 294 813 422 736 369 813 b 14 394 163 813 14 593 b 14 382 14 390 14 386 b 14 349 14 371 14 360 z m 449 929 b 313 1113 447 993 399 1113 b 114 906 218 1113 114 967 b 156 864 114 868 151 864 b 253 957 188 864 210 957 b 393 857 294 957 322 857 b 449 929 425 857 447 883 z "},"Ċ":{"ha":658,"x_min":0,"x_max":0,"o":"m 19 397 b 336 42 19 114 229 42 b 636 308 514 42 636 189 b 494 472 636 393 575 472 b 342 372 400 472 354 393 b 225 306 310 324 251 306 b 138 426 147 306 138 392 b 165 522 138 460 146 492 b 285 785 246 651 164 725 b 315 793 296 790 306 793 b 371 701 372 793 371 704 b 369 672 371 692 369 682 b 474 582 369 583 454 582 b 599 715 600 582 599 703 b 515 850 599 774 571 832 b 331 963 401 888 406 963 b 19 397 211 963 19 631 z m 269 1090 b 324 1013 269 1074 276 1013 b 388 1082 360 1013 388 1047 b 328 1142 388 1117 363 1142 b 269 1090 297 1142 269 1119 z "},"ċ":{"ha":561,"x_min":0,"x_max":0,"o":"m 14 349 b 239 165 14 257 43 240 b 317 150 268 154 292 150 b 549 406 481 150 549 360 b 471 475 549 447 517 475 b 215 296 315 475 339 296 b 79 393 183 296 79 317 b 213 615 79 446 158 615 b 338 536 251 615 288 536 b 422 660 372 536 422 586 b 294 813 422 736 369 813 b 14 394 163 813 14 593 b 14 382 14 390 14 386 b 14 349 14 371 14 360 z m 222 926 b 276 849 222 910 229 849 b 340 918 313 849 340 883 b 281 978 340 953 315 978 b 222 926 250 978 222 956 z "},"Č":{"ha":658,"x_min":0,"x_max":0,"o":"m 19 397 b 336 42 19 114 229 42 b 636 308 514 42 636 189 b 494 472 636 393 575 472 b 342 372 400 472 354 393 b 225 306 310 324 251 306 b 138 426 147 306 138 392 b 165 522 138 460 146 492 b 285 785 246 651 164 725 b 315 793 296 790 306 793 b 371 701 372 793 371 704 b 369 672 371 692 369 682 b 474 582 369 583 454 582 b 599 715 600 582 599 703 b 515 850 599 774 571 832 b 331 963 401 888 406 963 b 19 397 211 963 19 631 z m 164 1171 b 299 1022 164 1157 206 1022 b 517 1236 389 1022 517 1174 b 454 1303 517 1292 468 1303 b 311 1142 394 1303 386 1222 b 290 1131 304 1135 297 1131 b 263 1199 260 1131 267 1179 b 215 1249 257 1232 236 1249 b 164 1188 181 1249 164 1213 b 164 1176 164 1185 164 1182 b 164 1171 164 1175 164 1172 z "},"č":{"ha":561,"x_min":0,"x_max":0,"o":"m 14 349 b 239 165 14 257 43 240 b 317 150 268 154 292 150 b 549 406 481 150 549 360 b 471 475 549 447 517 475 b 215 296 315 475 339 296 b 79 393 183 296 79 317 b 213 615 79 446 158 615 b 338 536 251 615 288 536 b 422 660 372 536 422 586 b 294 813 422 736 369 813 b 14 394 163 813 14 593 b 14 382 14 390 14 386 b 14 349 14 371 14 360 z m 139 1011 b 274 863 139 997 181 863 b 492 1076 364 863 492 1014 b 429 1143 492 1132 443 1143 b 286 982 369 1143 361 1063 b 265 971 279 975 272 971 b 238 1039 235 971 242 1019 b 190 1089 232 1072 211 1089 b 139 1028 156 1089 139 1053 b 139 1017 139 1025 139 1022 b 139 1011 139 1015 139 1013 z "},"Ď":{"ha":685,"x_min":0,"x_max":0,"o":"m 199 386 b 229 526 218 467 229 476 b 204 704 229 582 204 640 b 353 828 204 811 322 828 b 578 483 547 828 553 604 b 581 451 581 471 581 463 b 329 250 581 328 407 250 b 231 286 293 250 261 264 b 199 386 201 307 200 342 z m 179 967 b 71 881 163 967 71 976 b 114 608 71 818 114 719 b 4 189 114 422 4 275 b 104 50 4 185 10 50 b 300 85 158 50 194 83 b 644 378 501 89 564 235 b 667 463 660 404 667 433 b 635 668 667 490 647 610 b 413 903 607 803 503 844 b 179 967 343 947 281 967 z m 146 1171 b 281 1022 146 1157 188 1022 b 499 1236 371 1022 499 1174 b 436 1303 499 1292 450 1303 b 293 1142 376 1303 368 1222 b 272 1131 286 1135 279 1131 b 244 1199 242 1131 249 1179 b 197 1249 239 1232 218 1249 b 146 1188 163 1249 146 1213 b 146 1176 146 1185 146 1182 b 146 1171 146 1175 146 1172 z "},"ď":{"ha":499,"x_min":0,"x_max":0,"o":"m 125 589 b 189 707 125 668 144 707 b 424 464 240 707 424 568 b 267 304 424 390 314 304 b 214 347 244 304 228 319 b 125 589 154 474 125 524 z m 481 429 b 339 696 478 449 472 583 b 115 893 178 831 196 893 b 18 736 25 893 18 801 b 88 389 18 550 88 504 b 40 176 88 300 40 239 b 165 76 40 113 97 76 b 481 429 260 76 479 229 z m 64 1071 b 199 922 64 1057 106 922 b 417 1136 289 922 417 1074 b 354 1203 417 1192 368 1203 b 211 1042 294 1203 286 1122 b 190 1031 204 1035 197 1031 b 163 1099 160 1031 167 1079 b 115 1149 157 1132 136 1149 b 64 1088 81 1149 64 1113 b 64 1076 64 1085 64 1082 b 64 1071 64 1075 64 1072 z "},"Đ":{"ha":769,"x_min":0,"x_max":0,"o":"m 254 967 b 146 881 238 967 146 976 b 189 629 146 818 150 743 b 188 575 194 611 215 576 b 167 574 181 574 174 574 b 72 586 147 574 107 586 b 10 525 39 586 10 574 b 72 475 10 489 33 475 b 179 511 119 475 154 533 b 79 189 214 486 79 260 b 179 50 79 185 85 50 b 375 85 233 50 269 83 b 719 378 576 89 639 235 b 742 463 735 404 742 433 b 710 668 742 490 722 610 b 488 903 682 803 578 844 b 254 967 418 947 356 967 z m 274 386 b 303 501 289 451 286 479 b 508 557 331 546 508 456 b 397 621 508 589 486 621 b 293 607 354 621 322 585 b 279 704 269 618 279 669 b 428 828 279 811 397 828 b 653 483 622 828 628 604 b 656 451 656 471 656 463 b 404 250 656 328 482 250 b 306 286 368 250 336 264 b 274 386 276 307 275 342 z "},"đ":{"ha":494,"x_min":0,"x_max":0,"o":"m 481 429 b 339 696 478 449 472 583 b 115 893 178 831 196 893 b 18 736 25 893 18 801 b 54 532 18 640 58 569 b -42 463 49 504 -35 522 b -4 417 -43 447 -33 419 b 88 389 51 410 88 460 b 40 176 88 300 40 239 b 165 76 40 113 97 76 b 481 429 260 76 479 229 z m 125 589 b 189 707 125 668 144 707 b 424 464 240 707 424 568 b 267 304 424 390 314 304 b 214 347 244 304 228 319 b 196 419 203 371 163 410 b 274 514 275 428 293 483 b 231 531 264 531 247 531 b 131 540 140 531 149 524 b 125 589 121 550 125 572 z "},"Ē":{"ha":701,"x_min":0,"x_max":0,"o":"m 293 1014 b 22 906 218 1014 22 1013 b 124 689 22 825 124 853 b 28 272 124 546 28 454 b 321 -17 28 111 129 -17 b 685 261 429 -17 685 50 b 571 385 685 318 682 385 b 265 163 436 385 374 163 b 179 290 213 163 221 231 b 150 382 160 321 150 353 b 314 546 150 460 218 526 b 471 611 339 550 471 565 b 393 642 471 646 432 642 b 313 640 360 642 335 640 b 190 740 200 640 190 696 b 340 918 190 850 292 918 b 499 704 447 918 363 704 b 601 818 554 704 601 760 b 293 1014 601 824 588 1014 z m 378 1065 b 486 1171 469 1065 507 1138 b 443 1188 476 1188 460 1188 b 325 1197 336 1188 376 1197 b 171 1119 285 1197 171 1172 b 208 1074 171 1104 179 1076 b 288 1083 257 1068 253 1083 b 378 1065 315 1083 357 1065 z "},"ē":{"ha":613,"x_min":0,"x_max":0,"o":"m 265 124 b 486 153 308 124 429 135 b 593 306 549 172 593 240 b 539 386 593 326 588 386 b 260 181 419 386 429 181 b 135 267 199 181 135 217 b 165 324 135 288 146 307 b 417 432 275 417 344 371 b 438 474 432 444 438 460 b 218 688 438 564 218 472 b 292 764 218 740 269 764 b 479 644 347 764 365 644 b 549 715 522 644 549 672 b 468 825 549 767 511 813 b 340 839 436 833 371 839 b 44 586 131 839 153 656 b 18 536 28 575 18 557 b 60 269 18 468 46 444 b 265 124 64 213 96 124 z m 385 885 b 493 990 476 885 514 957 b 450 1007 483 1007 467 1007 b 332 1017 343 1007 383 1017 b 178 939 292 1017 178 992 b 215 893 178 924 186 896 b 294 903 264 888 260 903 b 385 885 322 903 364 885 z "},"Ĕ":{"ha":701,"x_min":0,"x_max":0,"o":"m 293 1014 b 22 906 218 1014 22 1013 b 124 689 22 825 124 853 b 28 272 124 546 28 454 b 321 -17 28 111 129 -17 b 685 261 429 -17 685 50 b 571 385 685 318 682 385 b 265 163 436 385 374 163 b 179 290 213 163 221 231 b 150 382 160 321 150 353 b 314 546 150 460 218 526 b 471 611 339 550 471 565 b 393 642 471 646 432 642 b 313 640 360 642 335 640 b 190 740 200 640 190 696 b 340 918 190 850 292 918 b 499 704 447 918 363 704 b 601 818 554 704 601 760 b 293 1014 601 824 588 1014 z m 463 1242 b 417 1297 458 1296 422 1297 b 303 1200 369 1297 335 1200 b 244 1268 279 1200 286 1268 b 200 1194 219 1268 200 1232 b 311 1064 200 1133 246 1064 b 463 1240 400 1064 463 1182 b 463 1242 463 1242 463 1242 z "},"ĕ":{"ha":613,"x_min":0,"x_max":0,"o":"m 265 124 b 486 153 308 124 429 135 b 593 306 549 172 593 240 b 539 386 593 326 588 386 b 260 181 419 386 429 181 b 135 267 199 181 135 217 b 165 324 135 288 146 307 b 417 432 275 417 344 371 b 438 474 432 444 438 460 b 218 688 438 564 218 472 b 292 764 218 740 269 764 b 479 644 347 764 365 644 b 549 715 522 644 549 672 b 468 825 549 767 511 813 b 340 839 436 833 371 839 b 44 586 131 839 153 656 b 18 536 28 575 18 557 b 60 269 18 468 46 444 b 265 124 64 213 96 124 z m 475 1058 b 429 1114 471 1113 435 1114 b 315 1017 382 1114 347 1017 b 257 1085 292 1017 299 1085 b 213 1011 232 1085 213 1049 b 324 881 213 950 258 881 b 475 1057 413 881 475 999 b 475 1058 475 1058 475 1058 z "},"Ė":{"ha":701,"x_min":0,"x_max":0,"o":"m 293 1014 b 22 906 218 1014 22 1013 b 124 689 22 825 124 853 b 28 272 124 546 28 454 b 321 -17 28 111 129 -17 b 685 261 429 -17 685 50 b 571 385 685 318 682 385 b 265 163 436 385 374 163 b 179 290 213 163 221 231 b 150 382 160 321 150 353 b 314 546 150 460 218 526 b 471 611 339 550 471 565 b 393 642 471 646 432 642 b 313 640 360 642 335 640 b 190 740 200 640 190 696 b 340 918 190 850 292 918 b 499 704 447 918 363 704 b 601 818 554 704 601 760 b 293 1014 601 824 588 1014 z m 292 1143 b 346 1065 292 1126 299 1065 b 410 1135 382 1065 410 1100 b 350 1194 410 1169 385 1194 b 292 1143 319 1194 292 1172 z "},"ė":{"ha":613,"x_min":0,"x_max":0,"o":"m 265 124 b 486 153 308 124 429 135 b 593 306 549 172 593 240 b 539 386 593 326 588 386 b 260 181 419 386 429 181 b 135 267 199 181 135 217 b 165 324 135 288 146 307 b 417 432 275 417 344 371 b 438 474 432 444 438 460 b 218 688 438 564 218 472 b 292 764 218 740 269 764 b 479 644 347 764 365 644 b 549 715 522 644 549 672 b 468 825 549 767 511 813 b 340 839 436 833 371 839 b 44 586 131 839 153 656 b 18 536 28 575 18 557 b 60 269 18 468 46 444 b 265 124 64 213 96 124 z m 286 961 b 340 883 286 944 293 883 b 404 953 376 883 404 918 b 344 1013 404 988 379 1013 b 286 961 314 1013 286 990 z "},"Ę":{"ha":701,"x_min":0,"x_max":0,"o":"m 526 -250 b 761 -40 672 -240 761 -107 b 704 15 761 -28 758 15 b 551 -125 635 15 574 -101 b 507 -143 540 -136 524 -143 b 465 -101 485 -143 465 -132 b 557 47 465 -96 474 -7 b 685 261 631 96 685 169 b 571 385 685 318 682 385 b 265 163 436 385 374 163 b 179 290 213 163 221 231 b 150 382 160 321 150 353 b 314 546 150 460 218 526 b 471 611 339 550 471 565 b 393 642 471 646 432 642 b 313 640 360 642 335 640 b 190 740 200 640 190 696 b 340 918 190 850 292 918 b 499 704 447 918 363 704 b 601 818 554 704 601 760 b 293 1014 601 824 588 1014 b 22 906 218 1014 22 1013 b 124 689 22 825 124 853 b 28 272 124 546 28 454 b 321 -17 28 111 129 -17 b 410 -32 351 -17 385 -11 b 406 -133 424 -56 406 -101 b 526 -250 406 -203 451 -249 z "},"ę":{"ha":613,"x_min":0,"x_max":0,"o":"m 265 124 b 358 99 292 124 343 125 b 358 -19 378 74 358 17 b 479 -136 358 -89 404 -135 b 714 74 625 -126 714 7 b 657 129 714 86 711 129 b 504 -11 588 129 526 13 b 460 -29 493 -22 476 -29 b 418 13 438 -29 418 -18 b 510 161 418 18 428 107 b 526 174 517 165 522 169 b 593 306 567 204 593 256 b 539 386 593 326 588 386 b 260 181 419 386 429 181 b 135 267 199 181 135 217 b 165 324 135 288 146 307 b 417 432 275 417 344 371 b 438 474 432 444 438 460 b 218 688 438 564 218 472 b 292 764 218 740 269 764 b 479 644 347 764 365 644 b 549 715 522 644 549 672 b 468 825 549 767 511 813 b 340 839 436 833 371 839 b 44 586 131 839 153 656 b 18 536 28 575 18 557 b 60 269 18 468 46 444 b 265 124 64 213 96 124 z "},"Ě":{"ha":701,"x_min":0,"x_max":0,"o":"m 293 1014 b 22 906 218 1014 22 1013 b 124 689 22 825 124 853 b 28 272 124 546 28 454 b 321 -17 28 111 129 -17 b 685 261 429 -17 685 50 b 571 385 685 318 682 385 b 265 163 436 385 374 163 b 179 290 213 163 221 231 b 150 382 160 321 150 353 b 314 546 150 460 218 526 b 471 611 339 550 471 565 b 393 642 471 646 432 642 b 313 640 360 642 335 640 b 190 740 200 640 190 696 b 340 918 190 850 292 918 b 499 704 447 918 363 704 b 601 818 554 704 601 760 b 293 1014 601 824 588 1014 z m 178 1214 b 313 1065 178 1200 219 1065 b 531 1279 403 1065 531 1217 b 468 1346 531 1335 482 1346 b 325 1185 408 1346 400 1265 b 304 1174 318 1178 311 1174 b 276 1242 274 1174 281 1222 b 229 1292 271 1275 250 1292 b 178 1231 194 1292 178 1256 b 178 1219 178 1228 178 1225 b 178 1214 178 1218 178 1215 z "},"ě":{"ha":613,"x_min":0,"x_max":0,"o":"m 265 124 b 486 153 308 124 429 135 b 593 306 549 172 593 240 b 539 386 593 326 588 386 b 260 181 419 386 429 181 b 135 267 199 181 135 217 b 165 324 135 288 146 307 b 417 432 275 417 344 371 b 438 474 432 444 438 460 b 218 688 438 564 218 472 b 292 764 218 740 269 764 b 479 644 347 764 365 644 b 549 715 522 644 549 672 b 468 825 549 767 511 813 b 340 839 436 833 371 839 b 44 586 131 839 153 656 b 18 536 28 575 18 557 b 60 269 18 468 46 444 b 265 124 64 213 96 124 z m 167 1049 b 301 900 167 1035 208 900 b 519 1114 392 900 519 1051 b 457 1181 519 1169 471 1181 b 314 1019 397 1181 389 1100 b 293 1008 307 1013 300 1008 b 265 1076 263 1008 269 1057 b 218 1126 260 1110 239 1126 b 167 1065 183 1126 167 1090 b 167 1054 167 1063 167 1060 b 167 1049 167 1053 167 1050 z "},"Ĝ":{"ha":804,"x_min":0,"x_max":0,"o":"m 492 611 b 399 604 467 611 443 608 b 303 486 342 599 303 542 b 383 396 303 429 343 396 b 557 497 451 396 508 497 b 640 300 593 497 640 422 b 569 113 640 200 625 158 b 536 99 558 103 547 99 b 301 189 490 99 444 189 b 286 188 293 189 292 188 b 163 281 224 188 163 201 b 279 683 163 415 279 503 b 272 779 279 735 272 753 b 354 867 272 858 342 867 b 607 704 435 867 508 704 b 760 863 672 704 760 769 b 528 1036 760 1018 567 1036 b 147 938 468 1036 178 953 b 29 694 75 900 29 761 b 122 406 29 554 122 533 b 110 190 122 376 110 290 b 317 -49 110 -35 251 -49 b 749 453 496 -49 749 119 b 492 611 749 582 622 611 z m 579 1140 b 443 1324 578 1204 529 1324 b 244 1117 349 1324 244 1178 b 286 1075 244 1079 282 1075 b 383 1168 318 1075 340 1168 b 524 1068 425 1168 453 1068 b 579 1140 556 1068 578 1094 z "},"ĝ":{"ha":631,"x_min":0,"x_max":0,"o":"m 614 378 b 394 519 614 518 504 519 b 264 381 268 519 264 382 b 369 281 264 322 336 281 b 522 376 432 281 479 376 b 558 331 549 376 558 349 b 332 206 558 283 438 206 b 150 361 192 206 249 286 b 90 515 96 400 90 488 b 233 743 90 632 181 743 b 388 557 326 743 200 557 b 533 644 426 557 533 582 b 506 738 533 667 517 706 b 386 808 482 800 444 808 b 192 881 285 808 265 881 b 29 732 143 881 53 835 b 11 613 28 732 11 654 b 60 388 11 510 60 478 b 32 253 60 321 32 304 b 354 93 32 99 349 93 b 614 378 560 93 614 296 z m 450 997 b 314 1181 449 1061 400 1181 b 115 974 219 1181 115 1035 b 157 932 115 936 153 932 b 254 1025 189 932 211 1025 b 394 925 296 1025 324 925 b 450 997 426 925 449 951 z "},"Ğ":{"ha":804,"x_min":0,"x_max":0,"o":"m 492 611 b 399 604 467 611 443 608 b 303 486 342 599 303 542 b 383 396 303 429 343 396 b 557 497 451 396 508 497 b 640 300 593 497 640 422 b 569 113 640 200 625 158 b 536 99 558 103 547 99 b 301 189 490 99 444 189 b 286 188 293 189 292 188 b 163 281 224 188 163 201 b 279 683 163 415 279 503 b 272 779 279 735 272 753 b 354 867 272 858 342 867 b 607 704 435 867 508 704 b 760 863 672 704 760 769 b 528 1036 760 1018 567 1036 b 147 938 468 1036 178 953 b 29 694 75 900 29 761 b 122 406 29 554 122 533 b 110 190 122 376 110 290 b 317 -49 110 -35 251 -49 b 749 453 496 -49 749 119 b 492 611 749 582 622 611 z m 543 1263 b 497 1318 539 1317 503 1318 b 383 1221 450 1318 415 1221 b 325 1289 360 1221 367 1289 b 281 1215 300 1289 281 1253 b 392 1085 281 1154 326 1085 b 543 1261 481 1085 543 1203 b 543 1263 543 1263 543 1263 z "},"ğ":{"ha":631,"x_min":0,"x_max":0,"o":"m 614 378 b 394 519 614 518 504 519 b 264 381 268 519 264 382 b 369 281 264 322 336 281 b 522 376 432 281 479 376 b 558 331 549 376 558 349 b 332 206 558 283 438 206 b 150 361 192 206 249 286 b 90 515 96 400 90 488 b 233 743 90 632 181 743 b 388 557 326 743 200 557 b 533 644 426 557 533 582 b 506 738 533 667 517 706 b 386 808 482 800 444 808 b 192 881 285 808 265 881 b 29 732 143 881 53 835 b 11 613 28 732 11 654 b 60 388 11 510 60 478 b 32 253 60 321 32 304 b 354 93 32 99 349 93 b 614 378 560 93 614 296 z m 456 1106 b 410 1161 451 1160 415 1161 b 296 1064 363 1161 328 1064 b 238 1132 272 1064 279 1132 b 193 1058 213 1132 193 1096 b 304 928 193 997 239 928 b 456 1104 393 928 456 1046 b 456 1106 456 1106 456 1106 z "},"Ġ":{"ha":804,"x_min":0,"x_max":0,"o":"m 492 611 b 399 604 467 611 443 608 b 303 486 342 599 303 542 b 383 396 303 429 343 396 b 557 497 451 396 508 497 b 640 300 593 497 640 422 b 569 113 640 200 625 158 b 536 99 558 103 547 99 b 301 189 490 99 444 189 b 286 188 293 189 292 188 b 163 281 224 188 163 201 b 279 683 163 415 279 503 b 272 779 279 735 272 753 b 354 867 272 858 342 867 b 607 704 435 867 508 704 b 760 863 672 704 760 769 b 528 1036 760 1018 567 1036 b 147 938 468 1036 178 953 b 29 694 75 900 29 761 b 122 406 29 554 122 533 b 110 190 122 376 110 290 b 317 -49 110 -35 251 -49 b 749 453 496 -49 749 119 b 492 611 749 582 622 611 z m 356 1164 b 410 1086 356 1147 363 1086 b 474 1156 446 1086 474 1121 b 414 1215 474 1190 449 1215 b 356 1164 383 1215 356 1193 z "},"ġ":{"ha":631,"x_min":0,"x_max":0,"o":"m 614 378 b 394 519 614 518 504 519 b 264 381 268 519 264 382 b 369 281 264 322 336 281 b 522 376 432 281 479 376 b 558 331 549 376 558 349 b 332 206 558 283 438 206 b 150 361 192 206 249 286 b 90 515 96 400 90 488 b 233 743 90 632 181 743 b 388 557 326 743 200 557 b 533 644 426 557 533 582 b 506 738 533 667 517 706 b 386 808 482 800 444 808 b 192 881 285 808 265 881 b 29 732 143 881 53 835 b 11 613 28 732 11 654 b 60 388 11 510 60 478 b 32 253 60 321 32 304 b 354 93 32 99 349 93 b 614 378 560 93 614 296 z m 236 986 b 290 908 236 969 243 908 b 354 978 326 908 354 943 b 294 1038 354 1013 329 1038 b 236 986 264 1038 236 1015 z "},"Ģ":{"ha":804,"x_min":0,"x_max":0,"o":"m 492 611 b 399 604 467 611 443 608 b 303 486 342 599 303 542 b 383 396 303 429 343 396 b 557 497 451 396 508 497 b 640 300 593 497 640 422 b 569 113 640 200 625 158 b 536 99 558 103 547 99 b 301 189 490 99 444 189 b 286 188 293 189 292 188 b 163 281 224 188 163 201 b 279 683 163 415 279 503 b 272 779 279 735 272 753 b 354 867 272 858 342 867 b 607 704 435 867 508 704 b 760 863 672 704 760 769 b 528 1036 760 1018 567 1036 b 147 938 468 1036 178 953 b 29 694 75 900 29 761 b 122 406 29 554 122 533 b 110 190 122 376 110 290 b 317 -49 110 -35 251 -49 b 749 453 496 -49 749 119 b 492 611 749 582 622 611 z m 260 -449 b 392 -92 404 -449 518 -92 b 339 -133 376 -92 339 -101 b 344 -171 339 -147 344 -156 b 192 -378 344 -253 192 -279 b 260 -449 192 -447 250 -449 z "},"ģ":{"ha":631,"x_min":0,"x_max":0,"o":"m 614 378 b 394 519 614 518 504 519 b 264 381 268 519 264 382 b 369 281 264 322 336 281 b 522 376 432 281 479 376 b 558 331 549 376 558 349 b 332 206 558 283 438 206 b 150 361 192 206 249 286 b 90 515 96 400 90 488 b 233 743 90 632 181 743 b 388 557 326 743 200 557 b 533 644 426 557 533 582 b 506 738 533 667 517 706 b 386 808 482 800 444 808 b 192 881 285 808 265 881 b 29 732 143 881 53 835 b 11 613 28 732 11 654 b 60 388 11 510 60 478 b 32 253 60 321 32 304 b 354 93 32 99 349 93 b 614 378 560 93 614 296 z m 228 -318 b 360 39 372 -318 486 39 b 307 -3 344 39 307 29 b 313 -40 307 -17 313 -25 b 160 -247 313 -122 160 -149 b 228 -318 160 -317 218 -318 z "},"Ĥ":{"ha":678,"x_min":0,"x_max":0,"o":"m 428 758 b 347 471 428 758 457 471 b 243 606 313 471 243 510 b 347 963 243 700 347 892 b 256 1085 347 1014 306 1085 b 164 933 207 1085 164 1024 b 193 647 164 864 193 706 b -10 42 193 483 -10 196 b 107 -100 -10 -31 32 -100 b 369 365 268 -100 225 267 b 396 375 379 372 389 375 b 424 329 426 375 424 331 b 413 90 424 304 413 185 b 504 -32 413 24 447 -32 b 658 157 571 -32 658 44 b 461 508 658 317 461 363 b 622 876 461 621 622 801 b 567 947 622 892 619 947 b 428 758 549 947 428 936 z m 578 1200 b 442 1383 576 1264 528 1383 b 243 1176 347 1383 243 1238 b 285 1135 243 1139 281 1135 b 382 1228 317 1135 339 1228 b 522 1128 424 1228 451 1128 b 578 1200 554 1128 576 1154 z "},"ĥ":{"ha":506,"x_min":0,"x_max":0,"o":"m 276 478 b 360 183 276 450 192 183 b 485 336 436 183 485 265 b 400 572 485 424 400 485 b 485 774 400 653 485 724 b 426 814 485 808 433 814 b 325 692 392 814 329 772 b 279 563 322 632 335 592 b 258 557 272 558 264 557 b 221 674 233 557 221 576 b 239 844 221 747 239 778 b 144 933 239 863 229 933 b 46 804 97 933 46 899 b 101 525 46 714 101 600 b 19 218 101 421 19 318 b 135 42 19 164 49 42 b 225 124 181 42 225 74 b 150 406 225 156 150 304 b 239 522 150 524 235 522 b 276 478 275 522 276 483 z m 456 1044 b 319 1228 454 1108 406 1228 b 121 1021 225 1228 121 1082 b 163 979 121 983 158 979 b 260 1072 194 979 217 1072 b 400 972 301 1072 329 972 b 456 1044 432 972 454 999 z "},"Ħ":{"ha":781,"x_min":0,"x_max":0,"o":"m 438 1499 b 546 1604 529 1499 567 1571 b 503 1621 536 1621 519 1621 b 385 1631 396 1621 436 1631 b 231 1553 344 1631 231 1606 b 268 1507 231 1538 239 1510 b 347 1517 317 1501 313 1517 b 438 1499 375 1517 417 1499 z m 236 704 b 58 663 200 667 110 732 b 44 632 49 651 46 642 b 131 581 39 589 97 576 b 222 581 160 585 199 617 b 43 42 251 508 43 185 b 160 -100 43 -31 85 -100 b 422 365 321 -100 278 267 b 449 375 432 372 442 375 b 476 329 479 375 476 331 b 465 90 476 304 465 185 b 557 -32 465 24 500 -32 b 711 157 624 -32 711 44 b 514 508 711 317 514 363 b 538 600 514 536 511 571 b 653 586 571 628 617 586 b 810 667 790 586 810 657 b 693 744 810 710 782 758 b 615 743 682 743 626 724 b 675 876 599 774 675 846 b 619 947 675 892 672 947 b 475 740 500 947 519 797 b 322 707 447 693 335 668 b 400 963 313 774 400 910 b 308 1085 400 1014 358 1085 b 217 933 260 1085 217 1024 b 236 704 217 878 265 733 z m 299 582 b 364 629 300 622 349 629 b 468 606 396 629 451 636 b 400 471 489 571 454 471 b 299 582 365 471 294 486 z "},"ħ":{"ha":781,"x_min":0,"x_max":0,"o":"m 438 1499 b 546 1604 529 1499 567 1571 b 503 1621 536 1621 519 1621 b 385 1631 396 1621 436 1631 b 231 1553 344 1631 231 1606 b 268 1507 231 1538 239 1510 b 347 1517 317 1501 313 1517 b 438 1499 375 1517 417 1499 z m 236 704 b 58 663 200 667 110 732 b 44 632 49 651 46 642 b 131 581 39 589 97 576 b 222 581 160 585 199 617 b 43 42 251 508 43 185 b 160 -100 43 -31 85 -100 b 422 365 321 -100 278 267 b 449 375 432 372 442 375 b 476 329 479 375 476 331 b 465 90 476 304 465 185 b 557 -32 465 24 500 -32 b 711 157 624 -32 711 44 b 514 508 711 317 514 363 b 538 600 514 536 511 571 b 653 586 571 628 617 586 b 810 667 790 586 810 657 b 693 744 810 710 782 758 b 615 743 682 743 626 724 b 675 876 599 774 675 846 b 619 947 675 892 672 947 b 475 740 500 947 519 797 b 322 707 447 693 335 668 b 400 963 313 774 400 910 b 308 1085 400 1014 358 1085 b 217 933 260 1085 217 1024 b 236 704 217 878 265 733 z m 299 582 b 364 629 300 622 349 629 b 468 606 396 629 451 636 b 400 471 489 571 454 471 b 299 582 365 471 294 486 z "},"Ĩ":{"ha":354,"x_min":0,"x_max":0,"o":"m 65 246 b 197 63 65 119 143 63 b 199 63 197 63 199 63 b 289 186 211 63 289 67 b 210 544 289 378 210 467 b 283 828 210 614 283 728 b 213 942 283 850 279 942 b 122 800 165 942 122 889 b 172 646 122 711 172 703 b 65 246 172 589 65 400 z m 283 982 b 413 1100 404 988 413 1085 b 343 1182 413 1151 379 1182 b 235 1088 292 1182 264 1088 b 111 1151 211 1088 171 1151 b 24 1060 64 1151 24 1111 b 47 1024 24 1054 22 1024 b 119 1058 83 1024 93 1058 b 283 982 158 1058 165 978 z "},"ĩ":{"ha":279,"x_min":0,"x_max":0,"o":"m 11 225 b 92 129 11 168 35 129 b 206 264 163 129 206 197 b 132 490 206 347 132 415 b 265 776 132 588 265 686 b 163 846 265 818 213 846 b 26 704 114 846 26 821 b 53 501 26 628 53 606 b 11 225 53 421 11 306 z m 239 892 b 368 1010 360 897 368 994 b 299 1092 368 1061 335 1092 b 190 997 247 1092 219 997 b 67 1061 167 997 126 1061 b -21 969 19 1061 -21 1021 b 3 933 -21 964 -22 933 b 75 968 39 933 49 968 b 239 892 114 968 121 888 z "},"Ī":{"ha":354,"x_min":0,"x_max":0,"o":"m 65 246 b 197 63 65 119 143 63 b 199 63 197 63 199 63 b 289 186 211 63 289 67 b 210 544 289 378 210 467 b 283 828 210 614 283 728 b 213 942 283 850 279 942 b 122 800 165 942 122 889 b 172 646 122 711 172 703 b 65 246 172 589 65 400 z m 265 982 b 374 1088 357 982 394 1054 b 331 1104 364 1104 347 1104 b 213 1114 224 1104 264 1114 b 58 1036 172 1114 58 1089 b 96 990 58 1021 67 993 b 175 1000 144 985 140 1000 b 265 982 203 1000 244 982 z "},"ī":{"ha":279,"x_min":0,"x_max":0,"o":"m 11 225 b 92 129 11 168 35 129 b 206 264 163 129 206 197 b 132 490 206 347 132 415 b 265 776 132 588 265 686 b 163 846 265 818 213 846 b 26 704 114 846 26 821 b 53 501 26 628 53 606 b 11 225 53 421 11 306 z m 206 894 b 314 1000 297 894 335 967 b 271 1017 304 1017 288 1017 b 153 1026 164 1017 204 1026 b -1 949 113 1026 -1 1001 b 36 903 -1 933 7 906 b 115 913 85 897 81 913 b 206 894 143 913 185 894 z "},"Į":{"ha":354,"x_min":0,"x_max":0,"o":"m 65 246 b 110 85 65 167 118 124 b 43 -137 103 46 35 -36 b 174 -253 49 -207 99 -251 b 408 -43 319 -243 408 -110 b 351 13 408 -31 406 13 b 199 -128 282 13 221 -104 b 154 -146 188 -139 171 -146 b 113 -104 132 -146 113 -135 b 204 44 113 -99 122 -10 b 289 186 257 78 289 119 b 210 544 289 378 210 467 b 283 828 210 614 283 728 b 213 942 283 850 279 942 b 122 800 165 942 122 889 b 172 646 122 711 172 703 b 65 246 172 589 65 400 z "},"į":{"ha":279,"x_min":0,"x_max":0,"o":"m 11 225 b 26 139 11 189 32 168 b -24 -54 22 96 -31 35 b 97 -171 -18 -124 22 -169 b 332 39 243 -161 332 -28 b 275 94 332 51 329 94 b 122 -46 206 94 144 -22 b 78 -64 111 -57 94 -64 b 36 -22 56 -64 36 -53 b 160 156 36 74 118 100 b 206 264 189 181 206 222 b 132 490 206 347 132 415 b 265 776 132 588 265 686 b 163 846 265 818 213 846 b 26 704 114 846 26 821 b 53 501 26 628 53 606 b 11 225 53 421 11 306 z "},"İ":{"ha":354,"x_min":0,"x_max":0,"o":"m 65 246 b 197 63 65 119 143 63 b 199 63 197 63 199 63 b 289 186 211 63 289 67 b 210 544 289 378 210 467 b 283 828 210 614 283 728 b 213 942 283 850 279 942 b 122 800 165 942 122 889 b 172 646 122 711 172 703 b 65 246 172 589 65 400 z m 156 1082 b 210 1004 156 1065 163 1004 b 274 1074 246 1004 274 1039 b 214 1133 274 1108 249 1133 b 156 1082 183 1133 156 1111 z "},"ı":{"ha":279,"x_min":0,"x_max":0,"o":"m 11 225 b 92 129 11 168 35 129 b 206 264 163 129 206 197 b 132 490 206 347 132 415 b 265 776 132 588 265 686 b 163 846 265 818 213 846 b 26 704 114 846 26 821 b 53 501 26 628 53 606 b 11 225 53 421 11 306 z "},"Ĵ":{"ha":642,"x_min":0,"x_max":0,"o":"m 610 876 b 497 1047 611 981 578 1047 b 335 810 393 1047 335 939 b 483 471 335 603 483 603 b 450 357 483 413 450 404 b 499 185 450 303 499 247 b 369 33 499 85 418 33 b 272 214 285 33 272 200 b 282 324 272 249 282 265 b 125 517 282 414 231 517 b 1 361 -3 517 1 381 b 71 258 1 338 4 283 b 315 -54 225 200 142 -54 b 611 239 368 -54 611 10 b 547 569 611 371 550 425 b 610 876 544 713 611 771 z m 661 1165 b 525 1349 660 1229 611 1349 b 326 1142 431 1349 326 1203 b 368 1100 326 1104 364 1100 b 465 1193 400 1100 422 1193 b 606 1093 507 1193 535 1093 b 661 1165 638 1093 660 1119 z "},"ĵ":{"ha":432,"x_min":0,"x_max":0,"o":"m 383 596 b 299 915 383 701 456 915 b 188 789 229 915 188 846 b 290 638 188 693 275 663 b 343 474 321 586 343 533 b 307 203 343 458 346 474 b 263 142 301 164 283 142 b 229 161 251 142 240 147 b 96 474 140 267 218 474 b 15 371 53 474 15 432 b 263 57 15 268 160 57 b 422 313 392 57 422 226 b 383 596 422 418 383 450 z m 460 1024 b 324 1207 458 1088 410 1207 b 125 1000 229 1207 125 1061 b 167 958 125 963 163 958 b 264 1051 199 958 221 1051 b 404 951 306 1051 333 951 b 460 1024 436 951 458 978 z "},"Ķ":{"ha":722,"x_min":0,"x_max":0,"o":"m 458 840 b 686 914 471 840 686 788 b 525 1029 686 968 631 1029 b 272 667 282 1029 368 792 b 224 644 261 654 238 644 b 214 647 219 644 215 644 b 204 672 206 654 204 663 b 233 858 204 689 233 793 b 86 1057 233 928 190 1057 b -4 978 1 1057 -4 989 b 107 714 -4 903 107 836 b 83 522 107 661 83 564 b 117 321 83 446 117 426 b 49 53 117 179 49 107 b 125 -21 49 10 81 -21 b 228 106 128 -21 228 -24 b 163 332 228 229 163 240 b 179 374 163 372 178 374 b 299 239 203 374 269 303 b 578 -72 400 19 450 -72 b 722 42 651 -72 722 -29 b 492 199 722 79 697 188 b 276 381 382 206 418 303 b 196 469 267 385 196 426 b 419 729 196 579 419 533 l 419 732 b 458 840 419 824 428 840 z m 207 -429 b 339 -72 351 -429 465 -72 b 286 -114 324 -72 286 -82 b 292 -151 286 -128 292 -136 b 139 -358 292 -233 139 -260 b 207 -429 139 -428 197 -429 z "},"ķ":{"ha":568,"x_min":0,"x_max":0,"o":"m 13 358 b 142 131 13 185 100 131 b 211 199 175 131 211 158 b 128 443 211 254 128 403 b 171 503 128 471 146 503 b 468 215 242 503 310 215 b 558 304 525 215 558 275 b 369 439 558 351 475 424 b 260 567 278 453 260 550 b 418 824 260 649 418 688 b 333 954 418 844 406 954 b 181 688 190 954 279 688 b 90 867 93 688 168 867 b 31 746 76 867 31 858 b 40 583 31 707 49 646 b 13 358 36 544 13 451 z m 201 -218 b 333 139 346 -218 460 139 b 281 97 318 139 281 129 b 286 60 281 83 286 75 b 133 -147 286 -22 133 -49 b 201 -218 133 -217 192 -218 z "},"Ĺ":{"ha":911,"x_min":0,"x_max":0,"o":"m 764 -29 b 807 -26 779 -29 793 -28 b 901 76 865 -21 901 39 b 754 190 901 188 756 190 b 269 -37 594 190 443 -37 b 150 49 206 -37 150 10 b 424 418 150 150 424 172 b 292 721 424 593 292 629 b 525 1021 292 835 525 858 b 433 1101 525 1082 468 1101 b 233 793 411 1101 279 1089 b 104 482 210 638 104 649 b 107 428 104 457 107 450 b 32 143 107 319 32 257 b 264 -92 32 61 99 -92 b 646 -25 360 -92 503 -25 b 692 -28 661 -25 676 -26 b 764 -29 717 -28 740 -29 z m 554 1378 b 304 1172 415 1378 304 1208 b 331 1146 304 1157 315 1146 b 582 1268 350 1146 486 1207 b 608 1319 600 1279 608 1300 b 554 1378 608 1349 590 1378 z "},"ĺ":{"ha":658,"x_min":0,"x_max":0,"o":"m 156 610 b 17 236 156 424 17 378 b 167 89 17 153 81 89 b 533 181 294 89 329 175 b 639 304 607 182 639 268 b 553 364 639 365 554 364 b 446 314 513 364 474 347 b 317 200 404 264 401 251 b 289 192 308 196 299 192 b 189 356 197 192 189 294 b 308 760 189 489 308 642 b 225 890 308 790 297 890 b 140 793 135 890 140 804 b 154 631 140 736 150 665 b 156 610 154 624 156 617 z m 329 1151 b 79 946 190 1151 79 982 b 106 919 79 931 90 919 b 357 1042 125 919 261 981 b 383 1093 375 1053 383 1074 b 329 1151 383 1122 365 1151 z "},"Ļ":{"ha":911,"x_min":0,"x_max":0,"o":"m 764 -29 b 807 -26 779 -29 793 -28 b 901 76 865 -21 901 39 b 754 190 901 188 756 190 b 269 -37 594 190 443 -37 b 150 49 206 -37 150 10 b 424 418 150 150 424 172 b 292 721 424 593 292 629 b 525 1021 292 835 525 858 b 433 1101 525 1082 468 1101 b 233 793 411 1101 279 1089 b 104 482 210 638 104 649 b 107 428 104 457 107 450 b 32 143 107 319 32 257 b 264 -92 32 61 99 -92 b 646 -25 360 -92 503 -25 b 692 -28 661 -25 676 -26 b 764 -29 717 -28 740 -29 z m 318 -489 b 450 -132 463 -489 576 -132 b 397 -174 435 -132 397 -142 b 403 -211 397 -187 403 -196 b 250 -418 403 -293 250 -319 b 318 -489 250 -487 308 -489 z "},"ļ":{"ha":658,"x_min":0,"x_max":0,"o":"m 156 610 b 17 236 156 424 17 378 b 167 89 17 153 81 89 b 533 181 294 89 329 175 b 639 304 607 182 639 268 b 553 364 639 365 554 364 b 446 314 513 364 474 347 b 317 200 404 264 401 251 b 289 192 308 196 299 192 b 189 356 197 192 189 294 b 308 760 189 489 308 642 b 225 890 308 790 297 890 b 140 793 135 890 140 804 b 154 631 140 736 150 665 b 156 610 154 624 156 617 z m 232 -289 b 364 68 376 -289 490 68 b 311 26 349 68 311 58 b 317 -11 311 13 317 4 b 164 -218 317 -93 164 -119 b 232 -289 164 -287 222 -289 z "},"Ľ":{"ha":911,"x_min":0,"x_max":0,"o":"m 764 -29 b 807 -26 779 -29 793 -28 b 901 76 865 -21 901 39 b 754 190 901 188 756 190 b 269 -37 594 190 443 -37 b 150 49 206 -37 150 10 b 424 418 150 150 424 172 b 292 721 424 593 292 629 b 525 1021 292 835 525 858 b 433 1101 525 1082 468 1101 b 233 793 411 1101 279 1089 b 104 482 210 638 104 649 b 107 428 104 457 107 450 b 32 143 107 319 32 257 b 264 -92 32 61 99 -92 b 646 -25 360 -92 503 -25 b 692 -28 661 -25 676 -26 b 764 -29 717 -28 740 -29 z m 290 1310 b 425 1161 290 1296 332 1161 b 643 1375 515 1161 643 1313 b 581 1442 643 1431 594 1442 b 438 1281 521 1442 513 1361 b 417 1269 431 1274 424 1269 b 389 1338 386 1269 393 1318 b 342 1388 383 1371 363 1388 b 290 1326 307 1388 290 1351 b 290 1315 290 1324 290 1321 b 290 1310 290 1314 290 1311 z "},"ľ":{"ha":656,"x_min":0,"x_max":0,"o":"m 156 610 b 17 236 156 424 17 378 b 167 89 17 153 81 89 b 533 181 294 89 329 175 b 639 304 607 182 639 268 b 553 364 639 365 554 364 b 446 314 513 364 474 347 b 317 200 404 264 401 251 b 289 192 308 196 299 192 b 189 356 197 192 189 294 b 308 760 189 489 308 642 b 225 890 308 790 297 890 b 140 793 135 890 140 804 b 154 631 140 736 150 665 b 156 610 154 624 156 617 z m 90 1110 b 225 961 90 1096 132 961 b 443 1175 315 961 443 1113 b 381 1242 443 1231 394 1242 b 238 1081 321 1242 313 1161 b 217 1069 231 1074 224 1069 b 189 1138 186 1069 193 1118 b 142 1188 183 1171 163 1188 b 90 1126 107 1188 90 1151 b 90 1115 90 1124 90 1121 b 90 1110 90 1114 90 1111 z "},"Ŀ":{"ha":911,"x_min":0,"x_max":0,"o":"m 764 -29 b 807 -26 779 -29 793 -28 b 901 76 865 -21 901 39 b 754 190 901 188 756 190 b 269 -37 594 190 443 -37 b 150 49 206 -37 150 10 b 424 418 150 150 424 172 b 292 721 424 593 292 629 b 525 1021 292 835 525 858 b 433 1101 525 1082 468 1101 b 233 793 411 1101 279 1089 b 104 482 210 638 104 649 b 107 428 104 457 107 450 b 32 143 107 319 32 257 b 264 -92 32 61 99 -92 b 646 -25 360 -92 503 -25 b 692 -28 661 -25 676 -26 b 764 -29 717 -28 740 -29 z m 558 621 b 613 543 558 604 565 543 b 676 613 649 543 676 578 b 617 672 676 647 651 672 b 558 621 586 672 558 650 z "},"ŀ":{"ha":649,"x_min":0,"x_max":0,"o":"m 156 610 b 17 236 156 424 17 378 b 167 89 17 153 81 89 b 533 181 294 89 329 175 b 639 304 607 182 639 268 b 553 364 639 365 554 364 b 446 314 513 364 474 347 b 317 200 404 264 401 251 b 289 192 308 196 299 192 b 189 356 197 192 189 294 b 308 760 189 489 308 642 b 225 890 308 790 297 890 b 140 793 135 890 140 804 b 154 631 140 736 150 665 b 156 610 154 624 156 617 z m 371 628 b 425 550 371 611 378 550 b 489 619 461 550 489 585 b 429 679 489 654 464 679 b 371 628 399 679 371 657 z "},"Ł":{"ha":932,"x_min":0,"x_max":0,"o":"m 785 -29 b 828 -26 800 -29 814 -28 b 922 76 886 -21 922 39 b 775 190 922 188 776 190 b 290 -37 615 190 464 -37 b 171 49 226 -37 171 10 b 433 392 171 150 407 183 b 631 461 457 485 526 450 b 753 589 774 478 767 560 b 564 610 738 621 682 661 b 418 539 508 585 454 528 b 313 721 356 560 313 656 b 546 1021 313 835 546 858 b 454 1101 546 1082 489 1101 b 254 793 432 1101 300 1089 b 125 482 231 638 125 649 b 54 410 125 422 103 415 b -69 386 25 407 -21 400 b -128 297 -118 371 -153 347 b -15 271 -110 260 -69 256 b 100 310 32 285 71 326 b 53 143 135 285 53 210 b 285 -92 53 61 119 -92 b 667 -25 381 -92 524 -25 b 713 -28 682 -25 697 -26 b 785 -29 738 -28 761 -29 z "},"ł":{"ha":658,"x_min":0,"x_max":0,"o":"m 156 610 b 136 518 156 569 156 536 b 58 486 113 499 89 492 b -18 475 42 482 8 482 b -54 418 -44 468 -64 453 b 4 394 -47 392 -26 386 b 96 419 49 407 81 438 b 17 236 113 386 17 318 b 167 89 17 153 81 89 b 533 181 294 89 329 175 b 639 304 607 182 639 268 b 553 364 639 365 554 364 b 446 314 513 364 474 347 b 317 200 404 264 401 251 b 289 192 308 196 299 192 b 189 356 197 192 189 294 b 213 475 189 394 185 449 b 358 494 233 494 293 490 b 432 575 436 499 438 556 b 332 599 425 599 399 628 b 268 582 299 583 288 572 b 308 760 242 610 308 697 b 225 890 308 790 297 890 b 140 793 135 890 140 804 b 154 631 140 736 150 665 b 156 610 154 624 156 617 z "},"Ń":{"ha":853,"x_min":0,"x_max":0,"o":"m 490 386 b 519 -143 490 224 406 -28 b 594 -178 540 -165 568 -178 b 699 -40 685 -178 699 -71 b 579 339 699 43 579 239 b 721 696 579 482 721 492 b 721 713 721 703 721 706 b 792 979 721 844 792 913 b 690 1060 792 1033 739 1060 b 568 903 589 1060 568 932 b 603 757 568 853 583 882 b 604 739 603 750 604 744 b 507 636 604 678 554 636 b 447 667 482 636 457 649 b 350 865 413 733 368 792 b 181 1014 318 947 285 1014 b 46 793 89 1014 46 904 b 126 361 46 667 126 419 b 111 199 126 321 111 285 b 217 71 111 122 172 71 b 328 211 254 71 328 114 b 143 572 328 343 143 461 b 267 694 143 639 199 694 b 490 386 385 694 490 508 z m 579 1274 b 329 1068 440 1274 329 1104 b 356 1042 329 1053 340 1042 b 607 1164 375 1042 511 1103 b 633 1215 625 1175 633 1196 b 579 1274 633 1244 615 1274 z "},"ń":{"ha":711,"x_min":0,"x_max":0,"o":"m 400 169 b 490 32 400 76 440 32 b 568 149 567 32 568 99 b 567 193 568 164 567 171 b 589 368 567 294 589 301 b 579 524 589 397 579 475 b 699 789 579 624 699 647 b 596 921 699 886 644 921 b 456 731 524 921 503 847 b 443 667 447 708 443 686 b 472 517 443 604 472 565 b 439 458 472 486 463 458 b 356 508 418 458 397 479 b 131 857 213 610 272 857 b 15 679 44 857 15 735 b 82 383 15 582 82 496 b 68 286 82 328 68 321 b 182 147 68 146 176 147 b 243 221 226 147 243 185 b 158 436 243 297 158 361 b 213 539 158 451 168 539 b 319 449 246 539 279 492 b 403 250 371 390 403 326 b 401 215 403 239 403 228 b 400 169 401 200 400 185 z m 478 1119 b 228 914 339 1119 228 950 b 254 888 228 899 239 888 b 506 1010 274 888 410 949 b 532 1061 524 1021 532 1042 b 478 1119 532 1090 514 1119 z "},"Ņ":{"ha":853,"x_min":0,"x_max":0,"o":"m 490 386 b 519 -143 490 224 406 -28 b 594 -178 540 -165 568 -178 b 699 -40 685 -178 699 -71 b 579 339 699 43 579 239 b 721 696 579 482 721 492 b 721 713 721 703 721 706 b 792 979 721 844 792 913 b 690 1060 792 1033 739 1060 b 568 903 589 1060 568 932 b 603 757 568 853 583 882 b 604 739 603 750 604 744 b 507 636 604 678 554 636 b 447 667 482 636 457 649 b 350 865 413 733 368 792 b 181 1014 318 947 285 1014 b 46 793 89 1014 46 904 b 126 361 46 667 126 419 b 111 199 126 321 111 285 b 217 71 111 122 172 71 b 328 211 254 71 328 114 b 143 572 328 343 143 461 b 267 694 143 639 199 694 b 490 386 385 694 490 508 z m 229 -364 b 361 -7 374 -364 488 -7 b 308 -49 346 -7 308 -17 b 314 -86 308 -62 314 -71 b 161 -293 314 -168 161 -194 b 229 -364 161 -362 219 -364 z "},"ņ":{"ha":711,"x_min":0,"x_max":0,"o":"m 400 169 b 490 32 400 76 440 32 b 568 149 567 32 568 99 b 567 193 568 164 567 171 b 589 368 567 294 589 301 b 579 524 589 397 579 475 b 699 789 579 624 699 647 b 596 921 699 886 644 921 b 456 731 524 921 503 847 b 443 667 447 708 443 686 b 472 517 443 604 472 565 b 439 458 472 486 463 458 b 356 508 418 458 397 479 b 131 857 213 610 272 857 b 15 679 44 857 15 735 b 82 383 15 582 82 496 b 68 286 82 328 68 321 b 182 147 68 146 176 147 b 243 221 226 147 243 185 b 158 436 243 297 158 361 b 213 539 158 451 168 539 b 319 449 246 539 279 492 b 403 250 371 390 403 326 b 401 215 403 239 403 228 b 400 169 401 200 400 185 z m 174 -294 b 306 63 318 -294 432 63 b 253 21 290 63 253 53 b 258 -17 253 7 258 -1 b 106 -224 258 -99 106 -125 b 174 -294 106 -293 164 -294 z "},"Ň":{"ha":853,"x_min":0,"x_max":0,"o":"m 490 386 b 519 -143 490 224 406 -28 b 594 -178 540 -165 568 -178 b 699 -40 685 -178 699 -71 b 579 339 699 43 579 239 b 721 696 579 482 721 492 b 721 713 721 703 721 706 b 792 979 721 844 792 913 b 690 1060 792 1033 739 1060 b 568 903 589 1060 568 932 b 603 757 568 853 583 882 b 604 739 603 750 604 744 b 507 636 604 678 554 636 b 447 667 482 636 457 649 b 350 865 413 733 368 792 b 181 1014 318 947 285 1014 b 46 793 89 1014 46 904 b 126 361 46 667 126 419 b 111 199 126 321 111 285 b 217 71 111 122 172 71 b 328 211 254 71 328 114 b 143 572 328 343 143 461 b 267 694 143 639 199 694 b 490 386 385 694 490 508 z m 250 1189 b 385 1040 250 1175 292 1040 b 603 1254 475 1040 603 1192 b 540 1321 603 1310 554 1321 b 397 1160 481 1321 472 1240 b 376 1149 390 1153 383 1149 b 349 1217 346 1149 353 1197 b 301 1267 343 1250 322 1267 b 250 1206 267 1267 250 1231 b 250 1194 250 1203 250 1200 b 250 1189 250 1193 250 1190 z "},"ň":{"ha":711,"x_min":0,"x_max":0,"o":"m 400 169 b 490 32 400 76 440 32 b 568 149 567 32 568 99 b 567 193 568 164 567 171 b 589 368 567 294 589 301 b 579 524 589 397 579 475 b 699 789 579 624 699 647 b 596 921 699 886 644 921 b 456 731 524 921 503 847 b 443 667 447 708 443 686 b 472 517 443 604 472 565 b 439 458 472 486 463 458 b 356 508 418 458 397 479 b 131 857 213 610 272 857 b 15 679 44 857 15 735 b 82 383 15 582 82 496 b 68 286 82 328 68 321 b 182 147 68 146 176 147 b 243 221 226 147 243 185 b 158 436 243 297 158 361 b 213 539 158 451 168 539 b 319 449 246 539 279 492 b 403 250 371 390 403 326 b 401 215 403 239 403 228 b 400 169 401 200 400 185 z m 196 1049 b 331 900 196 1035 238 900 b 549 1114 421 900 549 1051 b 486 1181 549 1169 500 1181 b 343 1019 426 1181 418 1100 b 322 1008 336 1013 329 1008 b 294 1076 292 1008 299 1057 b 247 1126 289 1110 268 1126 b 196 1065 213 1126 196 1090 b 196 1054 196 1063 196 1060 b 196 1049 196 1053 196 1050 z "},"ŉ":{"ha":804,"x_min":0,"x_max":0,"o":"m 493 169 b 583 32 493 76 533 32 b 661 149 660 32 661 99 b 660 193 661 164 660 171 b 682 368 660 294 682 301 b 672 524 682 397 672 475 b 792 789 672 624 792 647 b 689 921 792 886 738 921 b 549 731 617 921 596 847 b 536 667 540 708 536 686 b 565 517 536 604 565 565 b 532 458 565 486 556 458 b 449 508 511 458 490 479 b 224 857 306 610 365 857 b 108 679 138 857 108 735 b 175 383 108 582 175 496 b 161 286 175 328 161 321 b 275 147 161 146 269 147 b 336 221 319 147 336 185 b 251 436 336 297 251 361 b 306 539 251 451 261 539 b 413 449 339 539 372 492 b 496 250 464 390 496 326 b 494 215 496 239 496 228 b 493 169 494 200 493 185 z m 154 994 b 86 1071 154 1038 136 1071 b 18 968 21 1071 18 993 b 31 821 18 940 28 832 b 54 799 35 807 44 799 b 154 994 92 799 154 914 z "},"Ō":{"ha":686,"x_min":0,"x_max":0,"o":"m 449 718 b 385 136 726 718 557 136 b 174 438 307 136 174 268 b 218 551 174 481 188 518 b 449 718 258 596 326 718 z m 6 679 b 376 58 21 336 178 58 b 676 610 596 58 676 431 b 474 888 676 894 483 888 b 297 869 390 888 381 869 b 164 886 221 869 203 886 b 6 700 99 886 6 831 b 6 679 6 693 6 686 z m 388 965 b 496 1071 479 965 517 1038 b 453 1088 486 1088 469 1088 b 335 1097 346 1088 386 1097 b 181 1019 294 1097 181 1072 b 218 974 181 1004 189 976 b 297 983 267 968 263 983 b 388 965 325 983 367 965 z "},"ō":{"ha":608,"x_min":0,"x_max":0,"o":"m 281 301 b 193 596 217 301 128 315 b 308 719 208 660 263 719 b 424 500 371 719 424 571 b 281 301 424 429 376 301 z m 596 406 b 460 757 596 410 604 482 b 247 843 436 801 394 843 b 40 429 106 843 147 635 b 22 344 35 418 22 379 b 276 118 22 224 142 118 b 596 403 410 118 596 203 b 596 406 596 403 596 404 z m 346 901 b 454 1007 438 901 475 974 b 411 1024 444 1024 428 1024 b 293 1033 304 1024 344 1033 b 139 956 253 1033 139 1008 b 176 910 139 940 147 913 b 256 919 225 904 221 919 b 346 901 283 919 325 901 z "},"Ŏ":{"ha":686,"x_min":0,"x_max":0,"o":"m 449 718 b 385 136 726 718 557 136 b 174 438 307 136 174 268 b 218 551 174 481 188 518 b 449 718 258 596 326 718 z m 6 679 b 376 58 21 336 178 58 b 676 610 596 58 676 431 b 474 888 676 894 483 888 b 297 869 390 888 381 869 b 164 886 221 869 203 886 b 6 700 99 886 6 831 b 6 679 6 693 6 686 z m 479 1114 b 433 1169 475 1168 439 1169 b 319 1072 386 1169 351 1072 b 261 1140 296 1072 303 1140 b 217 1067 236 1140 217 1104 b 328 936 217 1006 263 936 b 479 1113 417 936 479 1054 b 479 1114 479 1114 479 1114 z "},"ŏ":{"ha":608,"x_min":0,"x_max":0,"o":"m 281 301 b 193 596 217 301 128 315 b 308 719 208 660 263 719 b 424 500 371 719 424 571 b 281 301 424 429 376 301 z m 596 406 b 460 757 596 410 604 482 b 247 843 436 801 394 843 b 40 429 106 843 147 635 b 22 344 35 418 22 379 b 276 118 22 224 142 118 b 596 403 410 118 596 203 b 596 406 596 403 596 404 z m 440 1074 b 394 1129 436 1128 400 1129 b 281 1032 347 1129 313 1032 b 222 1100 257 1032 264 1100 b 178 1026 197 1100 178 1064 b 289 896 178 965 224 896 b 440 1072 378 896 440 1014 b 440 1074 440 1074 440 1074 z "},"Ő":{"ha":686,"x_min":0,"x_max":0,"o":"m 449 718 b 385 136 726 718 557 136 b 174 438 307 136 174 268 b 218 551 174 481 188 518 b 449 718 258 596 326 718 z m 6 679 b 376 58 21 336 178 58 b 676 610 596 58 676 431 b 474 888 676 894 483 888 b 297 869 390 888 381 869 b 164 886 221 869 203 886 b 6 700 99 886 6 831 b 6 679 6 693 6 686 z m 354 1188 b 124 960 215 1175 121 996 b 153 936 125 944 138 935 b 392 1081 171 938 301 1011 b 413 1135 408 1093 415 1115 b 354 1188 410 1164 390 1190 z m 403 939 b 606 1167 481 935 735 1113 b 372 971 532 1197 374 992 b 403 939 372 954 383 940 z "},"ő":{"ha":608,"x_min":0,"x_max":0,"o":"m 281 301 b 193 596 217 301 128 315 b 308 719 208 660 263 719 b 424 500 371 719 424 571 b 281 301 424 429 376 301 z m 596 406 b 460 757 596 410 604 482 b 247 843 436 801 394 843 b 40 429 106 843 147 635 b 22 344 35 418 22 379 b 276 118 22 224 142 118 b 596 403 410 118 596 203 b 596 406 596 403 596 404 z m 308 1146 b 78 918 169 1133 75 954 b 107 894 79 903 92 893 b 346 1039 125 896 256 969 b 367 1093 363 1051 369 1074 b 308 1146 364 1122 344 1149 z m 357 897 b 560 1125 435 893 689 1071 b 326 929 486 1156 328 950 b 357 897 326 913 338 899 z "},"Œ":{"ha":1201,"x_min":0,"x_max":0,"o":"m 6 679 b 376 58 21 336 178 58 b 550 136 450 58 482 90 b 825 -11 624 185 682 -11 b 1189 267 933 -11 1189 56 b 1075 390 1189 324 1186 390 b 769 168 940 390 878 168 b 683 296 717 168 725 236 b 654 388 664 326 654 358 b 818 551 654 465 722 532 b 975 617 843 556 975 571 b 897 647 975 651 936 647 b 817 646 864 647 839 646 b 694 746 704 646 694 701 b 844 924 694 856 796 924 b 1003 710 951 924 867 710 b 1106 824 1058 710 1106 765 b 797 1019 1106 829 1092 1019 b 526 911 679 1019 585 988 b 400 881 497 872 442 890 l 371 876 b 297 869 353 872 331 869 b 164 886 221 869 203 886 b 6 700 99 886 6 831 z m 449 718 b 385 136 707 718 551 136 b 174 438 307 136 174 268 b 218 551 174 481 188 518 b 449 718 258 596 326 718 z "},"œ":{"ha":1032,"x_min":0,"x_max":0,"o":"m 683 118 b 904 147 726 118 847 129 b 1011 300 967 167 1011 235 b 957 381 1011 321 1006 381 b 678 175 838 381 847 175 b 572 319 619 175 524 243 b 835 426 682 413 763 365 b 856 468 850 439 856 454 b 636 682 856 558 636 467 b 710 758 636 735 688 758 b 897 639 765 758 783 639 b 967 710 940 639 967 667 b 886 819 967 761 929 807 b 758 833 854 828 789 833 b 518 639 594 833 572 656 b 460 757 485 626 483 713 b 247 843 436 801 394 843 b 40 429 106 843 147 635 b 22 344 35 418 22 379 b 276 118 22 224 142 118 b 493 171 347 118 418 172 b 683 118 526 175 575 118 z m 281 301 b 193 596 217 301 128 315 b 308 719 208 660 263 719 b 424 500 371 719 424 571 b 281 301 424 429 376 301 z "},"Ŕ":{"ha":726,"x_min":0,"x_max":0,"o":"m 451 781 b 304 511 451 639 336 511 b 232 710 279 511 278 550 b 208 804 226 732 208 765 b 326 940 208 861 260 940 b 389 922 346 940 367 935 b 451 799 436 900 451 863 b 451 786 451 794 451 790 b 451 781 451 785 451 783 z m 10 94 b 124 -122 -6 44 -11 -122 b 240 49 239 -122 240 33 b 199 260 240 133 199 196 b 261 389 199 314 229 389 b 582 18 336 389 447 18 b 683 147 636 18 683 72 b 478 367 683 165 674 340 b 424 461 460 369 424 376 b 713 897 424 651 642 635 b 717 933 715 910 717 922 b 454 1083 717 1069 499 1083 b 99 772 408 1083 99 1061 b 133 493 99 682 133 578 b 10 94 133 356 103 397 z m 560 1357 b 310 1151 421 1357 310 1188 b 336 1125 310 1136 321 1125 b 588 1247 356 1125 492 1186 b 614 1299 606 1258 614 1279 b 560 1357 614 1328 596 1357 z "},"ŕ":{"ha":579,"x_min":0,"x_max":0,"o":"m 360 785 b 444 718 449 785 444 719 b 294 589 444 647 361 589 b 200 678 250 589 200 615 b 360 785 200 786 357 785 z m 18 107 b 122 -40 21 -29 107 -40 b 208 97 194 -40 208 60 b 131 332 208 210 131 275 b 197 389 131 372 164 389 b 488 129 301 389 351 129 b 551 201 526 129 551 169 b 371 382 551 311 401 296 b 225 472 339 471 225 433 b 235 494 225 478 228 485 b 507 700 290 579 507 526 b 229 915 507 888 274 915 b 31 594 79 915 31 683 b 56 346 31 501 56 458 b 18 107 56 249 39 224 z m 388 1193 b 138 988 249 1193 138 1024 b 164 961 138 972 149 961 b 415 1083 183 961 319 1022 b 442 1135 433 1094 442 1115 b 388 1193 442 1164 424 1193 z "},"Ŗ":{"ha":726,"x_min":0,"x_max":0,"o":"m 451 781 b 304 511 451 639 336 511 b 232 710 279 511 278 550 b 208 804 226 732 208 765 b 326 940 208 861 260 940 b 389 922 346 940 367 935 b 451 799 436 900 451 863 b 451 786 451 794 451 790 b 451 781 451 785 451 783 z m 10 94 b 124 -122 -6 44 -11 -122 b 240 49 239 -122 240 33 b 199 260 240 133 199 196 b 261 389 199 314 229 389 b 582 18 336 389 447 18 b 683 147 636 18 683 72 b 478 367 683 165 674 340 b 424 461 460 369 424 376 b 713 897 424 651 642 635 b 717 933 715 910 717 922 b 454 1083 717 1069 499 1083 b 99 772 408 1083 99 1061 b 133 493 99 682 133 578 b 10 94 133 356 103 397 z m 282 -410 b 414 -53 426 -410 540 -53 b 361 -94 399 -53 361 -62 b 367 -132 361 -108 367 -117 b 214 -339 367 -214 214 -240 b 282 -410 214 -408 272 -410 z "},"ŗ":{"ha":579,"x_min":0,"x_max":0,"o":"m 360 785 b 444 718 449 785 444 719 b 294 589 444 647 361 589 b 200 678 250 589 200 615 b 360 785 200 786 357 785 z m 18 107 b 122 -40 21 -29 107 -40 b 208 97 194 -40 208 60 b 131 332 208 210 131 275 b 197 389 131 372 164 389 b 488 129 301 389 351 129 b 551 201 526 129 551 169 b 371 382 551 311 401 296 b 225 472 339 471 225 433 b 235 494 225 478 228 485 b 507 700 290 579 507 526 b 229 915 507 888 274 915 b 31 594 79 915 31 683 b 56 346 31 501 56 458 b 18 107 56 249 39 224 z m 200 -358 b 332 -1 344 -358 458 -1 b 279 -43 317 -1 279 -11 b 285 -81 279 -57 285 -65 b 132 -287 285 -162 132 -189 b 200 -358 132 -357 190 -358 z "},"Ř":{"ha":726,"x_min":0,"x_max":0,"o":"m 451 781 b 304 511 451 639 336 511 b 232 710 279 511 278 550 b 208 804 226 732 208 765 b 326 940 208 861 260 940 b 389 922 346 940 367 935 b 451 799 436 900 451 863 b 451 786 451 794 451 790 b 451 781 451 785 451 783 z m 10 94 b 124 -122 -6 44 -11 -122 b 240 49 239 -122 240 33 b 199 260 240 133 199 196 b 261 389 199 314 229 389 b 582 18 336 389 447 18 b 683 147 636 18 683 72 b 478 367 683 165 674 340 b 424 461 460 369 424 376 b 713 897 424 651 642 635 b 717 933 715 910 717 922 b 454 1083 717 1069 499 1083 b 99 772 408 1083 99 1061 b 133 493 99 682 133 578 b 10 94 133 356 103 397 z m 281 1258 b 415 1110 281 1244 322 1110 b 633 1324 506 1110 633 1261 b 571 1390 633 1379 585 1390 b 428 1229 511 1390 503 1310 b 407 1218 421 1222 414 1218 b 379 1286 376 1218 383 1267 b 332 1336 374 1319 353 1336 b 281 1275 297 1336 281 1300 b 281 1264 281 1272 281 1269 b 281 1258 281 1263 281 1260 z "},"ř":{"ha":579,"x_min":0,"x_max":0,"o":"m 360 785 b 444 718 449 785 444 719 b 294 589 444 647 361 589 b 200 678 250 589 200 615 b 360 785 200 786 357 785 z m 18 107 b 122 -40 21 -29 107 -40 b 208 97 194 -40 208 60 b 131 332 208 210 131 275 b 197 389 131 372 164 389 b 488 129 301 389 351 129 b 551 201 526 129 551 169 b 371 382 551 311 401 296 b 225 472 339 471 225 433 b 235 494 225 478 228 485 b 507 700 290 579 507 526 b 229 915 507 888 274 915 b 31 594 79 915 31 683 b 56 346 31 501 56 458 b 18 107 56 249 39 224 z m 114 1106 b 249 957 114 1092 156 957 b 467 1171 339 957 467 1108 b 404 1238 467 1226 418 1238 b 261 1076 344 1238 336 1157 b 240 1065 254 1069 247 1065 b 213 1133 210 1065 217 1114 b 165 1183 207 1167 186 1183 b 114 1122 131 1183 114 1147 b 114 1111 114 1119 114 1117 b 114 1106 114 1110 114 1107 z "},"Ś":{"ha":811,"x_min":0,"x_max":0,"o":"m 161 607 b 18 385 92 607 1 540 b 113 121 35 225 108 264 b 267 -60 115 43 129 -60 b 800 456 572 -60 800 294 b 682 639 800 496 774 618 b 167 831 353 714 167 711 b 274 926 167 897 229 926 b 463 800 365 926 356 800 b 594 933 526 800 594 853 b 499 1029 594 1004 540 1029 b 401 1017 472 1029 451 1017 b 215 1046 331 1017 303 1046 b 14 853 86 1046 14 964 b 631 438 14 589 631 685 b 360 174 631 343 507 174 b 235 290 283 174 235 221 b 271 489 235 339 271 410 b 161 607 271 576 206 607 z m 497 1338 b 247 1132 358 1338 247 1168 b 274 1106 247 1117 258 1106 b 525 1228 293 1106 429 1167 b 551 1279 543 1239 551 1260 b 497 1338 551 1308 533 1338 z "},"ś":{"ha":665,"x_min":0,"x_max":0,"o":"m 501 599 b 206 626 450 599 278 535 b 186 679 192 643 186 661 b 258 760 186 732 235 760 b 349 675 299 760 276 704 b 385 668 360 671 372 668 b 510 779 440 668 510 714 b 336 897 510 865 393 897 b 97 686 214 897 97 797 b 454 365 97 464 454 538 b 325 274 454 301 361 274 b 131 464 201 274 240 464 b 21 285 40 464 21 322 b 206 83 21 196 99 83 b 510 214 271 83 296 110 b 653 421 656 285 653 418 b 501 599 653 482 615 599 z m 419 1193 b 169 988 281 1193 169 1024 b 196 961 169 972 181 961 b 447 1083 215 961 351 1022 b 474 1135 465 1094 474 1115 b 419 1193 474 1164 456 1193 z "},"Ŝ":{"ha":811,"x_min":0,"x_max":0,"o":"m 161 607 b 18 385 92 607 1 540 b 113 121 35 225 108 264 b 267 -60 115 43 129 -60 b 800 456 572 -60 800 294 b 682 639 800 496 774 618 b 167 831 353 714 167 711 b 274 926 167 897 229 926 b 463 800 365 926 356 800 b 594 933 526 800 594 853 b 499 1029 594 1004 540 1029 b 401 1017 472 1029 451 1017 b 215 1046 331 1017 303 1046 b 14 853 86 1046 14 964 b 631 438 14 589 631 685 b 360 174 631 343 507 174 b 235 290 283 174 235 221 b 271 489 235 339 271 410 b 161 607 271 576 206 607 z m 499 1157 b 363 1340 497 1221 449 1340 b 164 1133 268 1340 164 1194 b 206 1092 164 1096 201 1092 b 303 1185 238 1092 260 1185 b 443 1085 344 1185 372 1085 b 499 1157 475 1085 497 1111 z "},"ŝ":{"ha":665,"x_min":0,"x_max":0,"o":"m 501 599 b 206 626 450 599 278 535 b 186 679 192 643 186 661 b 258 760 186 732 235 760 b 349 675 299 760 276 704 b 385 668 360 671 372 668 b 510 779 440 668 510 714 b 336 897 510 865 393 897 b 97 686 214 897 97 797 b 454 365 97 464 454 538 b 325 274 454 301 361 274 b 131 464 201 274 240 464 b 21 285 40 464 21 322 b 206 83 21 196 99 83 b 510 214 271 83 296 110 b 653 421 656 285 653 418 b 501 599 653 482 615 599 z m 500 1044 b 364 1228 499 1108 450 1228 b 165 1021 269 1228 165 1082 b 207 979 165 983 203 979 b 304 1072 239 979 261 1072 b 444 972 346 1072 374 972 b 500 1044 476 972 499 999 z "},"Ş":{"ha":811,"x_min":0,"x_max":0,"o":"m 161 607 b 18 385 92 607 1 540 b 113 121 35 225 108 264 b 267 -60 115 43 129 -60 b 800 456 572 -60 800 294 b 682 639 800 496 774 618 b 167 831 353 714 167 711 b 274 926 167 897 229 926 b 463 800 365 926 356 800 b 594 933 526 800 594 853 b 499 1029 594 1004 540 1029 b 401 1017 472 1029 451 1017 b 215 1046 331 1017 303 1046 b 14 853 86 1046 14 964 b 631 438 14 589 631 685 b 360 174 631 343 507 174 b 235 290 283 174 235 221 b 271 489 235 339 271 410 b 161 607 271 576 206 607 z m 368 -522 b 544 -318 481 -522 544 -382 b 422 -190 544 -225 422 -232 b 456 -125 422 -165 456 -154 b 406 -83 456 -100 432 -83 b 340 -160 365 -83 340 -119 b 476 -310 340 -254 476 -264 b 410 -367 476 -332 433 -367 b 331 -272 368 -367 388 -272 b 253 -387 294 -272 253 -322 b 368 -522 253 -424 274 -522 z "},"ş":{"ha":665,"x_min":0,"x_max":0,"o":"m 501 599 b 206 626 450 599 278 535 b 186 679 192 643 186 661 b 258 760 186 732 235 760 b 349 675 299 760 276 704 b 385 668 360 671 372 668 b 510 779 440 668 510 714 b 336 897 510 865 393 897 b 97 686 214 897 97 797 b 454 365 97 464 454 538 b 325 274 454 301 361 274 b 131 464 201 274 240 464 b 21 285 40 464 21 322 b 206 83 21 196 99 83 b 510 214 271 83 296 110 b 653 421 656 285 653 418 b 501 599 653 482 615 599 z m 285 -376 b 461 -172 397 -376 461 -236 b 339 -44 461 -79 339 -86 b 372 21 339 -19 372 -8 b 322 63 372 46 349 63 b 257 -14 282 63 257 26 b 393 -164 257 -108 393 -118 b 326 -221 393 -186 350 -221 b 247 -126 285 -221 304 -126 b 169 -242 211 -126 169 -176 b 285 -376 169 -278 190 -376 z "},"Š":{"ha":811,"x_min":0,"x_max":0,"o":"m 161 607 b 18 385 92 607 1 540 b 113 121 35 225 108 264 b 267 -60 115 43 129 -60 b 800 456 572 -60 800 294 b 682 639 800 496 774 618 b 167 831 353 714 167 711 b 274 926 167 897 229 926 b 463 800 365 926 356 800 b 594 933 526 800 594 853 b 499 1029 594 1004 540 1029 b 401 1017 472 1029 451 1017 b 215 1046 331 1017 303 1046 b 14 853 86 1046 14 964 b 631 438 14 589 631 685 b 360 174 631 343 507 174 b 235 290 283 174 235 221 b 271 489 235 339 271 410 b 161 607 271 576 206 607 z m 225 1225 b 360 1076 225 1211 267 1076 b 578 1290 450 1076 578 1228 b 515 1357 578 1346 529 1357 b 372 1196 456 1357 447 1276 b 351 1185 365 1189 358 1185 b 324 1253 321 1185 328 1233 b 276 1303 318 1286 297 1303 b 225 1242 242 1303 225 1267 b 225 1231 225 1239 225 1236 b 225 1225 225 1229 225 1226 z "},"š":{"ha":665,"x_min":0,"x_max":0,"o":"m 501 599 b 206 626 450 599 278 535 b 186 679 192 643 186 661 b 258 760 186 732 235 760 b 349 675 299 760 276 704 b 385 668 360 671 372 668 b 510 779 440 668 510 714 b 336 897 510 865 393 897 b 97 686 214 897 97 797 b 454 365 97 464 454 538 b 325 274 454 301 361 274 b 131 464 201 274 240 464 b 21 285 40 464 21 322 b 206 83 21 196 99 83 b 510 214 271 83 296 110 b 653 421 656 285 653 418 b 501 599 653 482 615 599 z m 157 1106 b 292 957 157 1092 199 957 b 510 1171 382 957 510 1108 b 447 1238 510 1226 461 1238 b 304 1076 388 1238 379 1157 b 283 1065 297 1069 290 1065 b 256 1133 253 1065 260 1114 b 208 1183 250 1167 229 1183 b 157 1122 174 1183 157 1147 b 157 1111 157 1119 157 1117 b 157 1106 157 1110 157 1107 z "},"Ţ":{"ha":1013,"x_min":0,"x_max":0,"o":"m 369 233 b 532 -60 369 -12 483 -60 b 638 78 590 -60 638 -3 b 492 582 638 208 492 332 b 697 814 492 603 478 814 b 901 736 807 814 824 736 b 997 842 946 736 997 789 b 789 1010 997 915 899 1010 b 457 939 679 1010 669 939 b 114 1050 296 939 228 1050 b 15 978 71 1050 15 1024 b 228 878 15 975 10 878 b 283 879 246 878 265 879 b 444 724 385 879 444 821 b 369 233 444 615 369 460 z m 396 -468 b 528 -111 540 -468 654 -111 b 475 -153 513 -111 475 -121 b 481 -190 475 -167 481 -175 b 328 -397 481 -272 328 -299 b 396 -468 328 -467 386 -468 z "},"ţ":{"ha":688,"x_min":0,"x_max":0,"o":"m 92 704 b 256 643 99 704 256 719 b 136 256 256 586 136 429 b 258 67 136 185 165 67 b 357 174 317 67 357 126 b 288 386 357 240 288 303 b 332 590 288 457 332 472 b 332 614 332 603 332 606 b 343 689 332 639 336 664 b 390 724 350 715 363 724 b 546 707 415 724 501 707 b 672 817 626 707 672 756 b 543 939 672 836 667 939 b 233 801 417 939 381 801 b 129 810 196 801 185 810 b 19 757 57 810 19 783 b 92 704 19 729 53 704 z m 149 -343 b 281 14 293 -343 407 14 b 228 -28 265 14 228 4 b 233 -65 228 -42 233 -50 b 81 -272 233 -147 81 -174 b 149 -343 81 -342 139 -343 z "},"Ť":{"ha":1013,"x_min":0,"x_max":0,"o":"m 369 233 b 532 -60 369 -12 483 -60 b 638 78 590 -60 638 -3 b 492 582 638 208 492 332 b 697 814 492 603 478 814 b 901 736 807 814 824 736 b 997 842 946 736 997 789 b 789 1010 997 915 899 1010 b 457 939 679 1010 669 939 b 114 1050 296 939 228 1050 b 15 978 71 1050 15 1024 b 228 878 15 975 10 878 b 283 879 246 878 265 879 b 444 724 385 879 444 821 b 369 233 444 615 369 460 z m 331 1189 b 465 1040 331 1175 372 1040 b 683 1254 556 1040 683 1192 b 621 1321 683 1310 635 1321 b 478 1160 561 1321 553 1240 b 457 1149 471 1153 464 1149 b 429 1217 426 1149 433 1197 b 382 1267 424 1250 403 1267 b 331 1206 347 1267 331 1231 b 331 1194 331 1203 331 1200 b 331 1189 331 1193 331 1190 z "},"ť":{"ha":686,"x_min":0,"x_max":0,"o":"m 92 704 b 256 643 99 704 256 719 b 136 256 256 586 136 429 b 258 67 136 185 165 67 b 357 174 317 67 357 126 b 288 386 357 240 288 303 b 332 590 288 457 332 472 b 332 614 332 603 332 606 b 343 689 332 639 336 664 b 390 724 350 715 363 724 b 546 707 415 724 501 707 b 672 817 626 707 672 756 b 543 939 672 836 667 939 b 233 801 417 939 381 801 b 129 810 196 801 185 810 b 19 757 57 810 19 783 b 92 704 19 729 53 704 z m 136 1088 b 271 939 136 1074 178 939 b 489 1153 361 939 489 1090 b 426 1219 489 1208 440 1219 b 283 1058 367 1219 358 1139 b 263 1047 276 1051 269 1047 b 235 1115 232 1047 239 1096 b 188 1165 229 1149 208 1165 b 136 1104 153 1165 136 1129 b 136 1093 136 1101 136 1099 b 136 1088 136 1092 136 1089 z "},"Ŧ":{"ha":1013,"x_min":0,"x_max":0,"o":"m 553 1499 b 661 1604 644 1499 682 1571 b 618 1621 651 1621 635 1621 b 500 1631 511 1621 551 1631 b 346 1553 460 1631 346 1606 b 383 1507 346 1538 354 1510 b 463 1517 432 1501 428 1517 b 553 1499 490 1517 532 1499 z m 369 233 b 532 -60 369 -12 483 -60 b 638 78 590 -60 638 -3 b 501 474 638 188 451 419 b 789 522 551 521 789 393 b 658 593 789 557 764 593 b 492 582 564 593 511 540 b 697 814 486 592 478 814 b 901 736 807 814 824 736 b 997 842 946 736 997 789 b 789 1010 997 915 899 1010 b 457 939 679 1010 669 939 b 114 1050 296 939 228 1050 b 15 978 71 1050 15 1024 b 228 878 15 975 10 878 b 283 879 246 878 265 879 b 444 724 385 879 444 821 b 397 549 444 674 433 567 b 276 554 354 529 336 554 b 203 488 236 554 203 540 b 276 432 203 447 231 432 b 381 444 328 432 353 458 b 369 233 414 426 369 322 z "},"ŧ":{"ha":688,"x_min":0,"x_max":0,"o":"m 92 704 b 256 643 99 704 256 719 b 193 486 256 614 246 492 b 186 486 190 486 189 486 b 89 499 165 486 124 499 b 24 442 53 499 24 486 b 89 394 24 408 49 394 b 178 407 119 394 157 425 b 146 222 217 375 146 278 b 258 67 146 151 165 67 b 357 174 317 67 357 126 b 288 386 357 240 288 303 b 540 471 288 511 540 297 b 425 531 540 500 518 539 b 332 590 339 522 332 535 l 332 614 b 343 689 332 639 336 664 b 390 724 350 715 363 724 b 546 707 415 724 501 707 b 672 817 626 707 672 756 b 543 939 672 836 667 939 b 233 801 417 939 381 801 b 129 810 196 801 185 810 b 19 757 57 810 19 783 b 92 704 19 729 53 704 z "},"Ũ":{"ha":760,"x_min":0,"x_max":0,"o":"m 306 725 b 171 972 306 978 178 972 b 18 756 64 972 18 869 b 118 349 18 599 118 488 b 100 163 118 304 100 235 b 317 -78 100 -15 233 -78 b 501 143 488 -78 492 69 b 738 564 521 304 738 311 b 704 733 738 621 728 678 b 486 1072 615 946 592 1072 b 407 1011 454 1072 407 1058 b 617 589 407 868 617 832 b 428 211 617 475 600 468 b 351 144 421 201 390 144 b 260 306 325 144 260 188 b 303 657 260 414 301 532 b 306 725 304 682 306 704 z m 339 1072 b 468 1190 460 1078 468 1175 b 399 1272 468 1242 435 1272 b 290 1178 347 1272 319 1178 b 167 1242 267 1178 226 1242 b 79 1150 119 1242 79 1201 b 103 1114 79 1144 78 1114 b 175 1149 139 1114 149 1149 b 339 1072 214 1149 221 1068 z "},"ũ":{"ha":608,"x_min":0,"x_max":0,"o":"m 39 496 b 151 106 22 281 51 178 b 304 56 197 74 251 56 b 592 371 479 56 592 242 b 554 628 592 464 554 521 b 563 785 554 689 563 693 b 531 907 563 826 564 867 b 478 935 515 925 496 935 b 365 749 433 935 365 865 b 481 299 365 593 481 404 b 299 158 481 190 353 158 b 144 319 185 158 144 246 b 311 708 144 540 311 625 b 196 817 311 769 258 817 b 39 496 46 817 47 599 z m 369 951 b 499 1069 490 957 499 1054 b 429 1151 499 1121 465 1151 b 321 1057 378 1151 350 1057 b 197 1121 297 1057 257 1121 b 110 1029 150 1121 110 1081 b 133 993 110 1024 108 993 b 206 1028 169 993 179 1028 b 369 951 244 1028 251 947 z "},"Ū":{"ha":760,"x_min":0,"x_max":0,"o":"m 306 725 b 171 972 306 978 178 972 b 18 756 64 972 18 869 b 118 349 18 599 118 488 b 100 163 118 304 100 235 b 317 -78 100 -15 233 -78 b 501 143 488 -78 492 69 b 738 564 521 304 738 311 b 704 733 738 621 728 678 b 486 1072 615 946 592 1072 b 407 1011 454 1072 407 1058 b 617 589 407 868 617 832 b 428 211 617 475 600 468 b 351 144 421 201 390 144 b 260 306 325 144 260 188 b 303 657 260 414 301 532 b 306 725 304 682 306 704 z m 325 1086 b 433 1192 417 1086 454 1158 b 390 1208 424 1208 407 1208 b 272 1218 283 1208 324 1218 b 118 1140 232 1218 118 1193 b 156 1094 118 1125 126 1097 b 235 1104 204 1089 200 1104 b 325 1086 263 1104 304 1086 z "},"ū":{"ha":608,"x_min":0,"x_max":0,"o":"m 39 496 b 151 106 22 281 51 178 b 304 56 197 74 251 56 b 592 371 479 56 592 242 b 554 628 592 464 554 521 b 563 785 554 689 563 693 b 531 907 563 826 564 867 b 478 935 515 925 496 935 b 365 749 433 935 365 865 b 481 299 365 593 481 404 b 299 158 481 190 353 158 b 144 319 185 158 144 246 b 311 708 144 540 311 625 b 196 817 311 769 258 817 b 39 496 46 817 47 599 z m 360 949 b 468 1054 451 949 489 1021 b 425 1071 458 1071 442 1071 b 307 1081 318 1071 358 1081 b 153 1003 267 1081 153 1056 b 190 957 153 988 161 960 b 269 967 239 951 235 967 b 360 949 297 967 339 949 z "},"Ŭ":{"ha":760,"x_min":0,"x_max":0,"o":"m 306 725 b 171 972 306 978 178 972 b 18 756 64 972 18 869 b 118 349 18 599 118 488 b 100 163 118 304 100 235 b 317 -78 100 -15 233 -78 b 501 143 488 -78 492 69 b 738 564 521 304 738 311 b 704 733 738 621 728 678 b 486 1072 615 946 592 1072 b 407 1011 454 1072 407 1058 b 617 589 407 868 617 832 b 428 211 617 475 600 468 b 351 144 421 201 390 144 b 260 306 325 144 260 188 b 303 657 260 414 301 532 b 306 725 304 682 306 704 z m 463 1236 b 417 1292 458 1290 422 1292 b 303 1194 369 1292 335 1194 b 244 1263 279 1194 286 1263 b 200 1189 219 1263 200 1226 b 311 1058 200 1128 246 1058 b 463 1235 400 1058 463 1176 b 463 1236 463 1236 463 1236 z "},"ŭ":{"ha":608,"x_min":0,"x_max":0,"o":"m 39 496 b 151 106 22 281 51 178 b 304 56 197 74 251 56 b 592 371 479 56 592 242 b 554 628 592 464 554 521 b 563 785 554 689 563 693 b 531 907 563 826 564 867 b 478 935 515 925 496 935 b 365 749 433 935 365 865 b 481 299 365 593 481 404 b 299 158 481 190 353 158 b 144 319 185 158 144 246 b 311 708 144 540 311 625 b 196 817 311 769 258 817 b 39 496 46 817 47 599 z m 444 1079 b 399 1135 440 1133 404 1135 b 285 1038 351 1135 317 1038 b 226 1106 261 1038 268 1106 b 182 1032 201 1106 182 1069 b 293 901 182 971 228 901 b 444 1078 382 901 444 1019 b 444 1079 444 1079 444 1079 z "},"Ů":{"ha":760,"x_min":0,"x_max":0,"o":"m 306 725 b 171 972 306 978 178 972 b 18 756 64 972 18 869 b 118 349 18 599 118 488 b 100 163 118 304 100 235 b 317 -78 100 -15 233 -78 b 501 143 488 -78 492 69 b 738 564 521 304 738 311 b 704 733 738 621 728 678 b 486 1072 615 946 592 1072 b 407 1011 454 1072 407 1058 b 617 589 407 868 617 832 b 428 211 617 475 600 468 b 351 144 421 201 390 144 b 260 306 325 144 260 188 b 303 657 260 414 301 532 b 306 725 304 682 306 704 z m 279 1199 b 311 1243 279 1240 300 1243 b 328 1228 322 1243 326 1236 b 279 1199 328 1171 279 1119 z m 343 1318 b 286 1025 81 1326 132 1025 b 343 1318 447 1025 493 1314 z "},"ů":{"ha":608,"x_min":0,"x_max":0,"o":"m 39 496 b 151 106 22 281 51 178 b 304 56 197 74 251 56 b 592 371 479 56 592 242 b 554 628 592 464 554 521 b 563 785 554 689 563 693 b 531 907 563 826 564 867 b 478 935 515 925 496 935 b 365 749 433 935 365 865 b 481 299 365 593 481 404 b 299 158 481 190 353 158 b 144 319 185 158 144 246 b 311 708 144 540 311 625 b 196 817 311 769 258 817 b 39 496 46 817 47 599 z m 283 1072 b 315 1117 283 1114 304 1117 b 332 1101 326 1117 331 1110 b 283 1072 332 1044 283 993 z m 347 1192 b 290 899 85 1200 136 899 b 347 1192 451 899 497 1188 z "},"Ű":{"ha":760,"x_min":0,"x_max":0,"o":"m 306 725 b 171 972 306 978 178 972 b 18 756 64 972 18 869 b 118 349 18 599 118 488 b 100 163 118 304 100 235 b 317 -78 100 -15 233 -78 b 501 143 488 -78 492 69 b 738 564 521 304 738 311 b 704 733 738 621 728 678 b 486 1072 615 946 592 1072 b 407 1011 454 1072 407 1058 b 617 589 407 868 617 832 b 428 211 617 475 600 468 b 351 144 421 201 390 144 b 260 306 325 144 260 188 b 303 657 260 414 301 532 b 306 725 304 682 306 704 z m 279 1340 b 49 1113 140 1328 46 1149 b 78 1089 50 1097 63 1088 b 317 1233 96 1090 226 1164 b 338 1288 333 1246 340 1268 b 279 1340 335 1317 315 1343 z m 328 1092 b 531 1319 406 1088 660 1265 b 297 1124 457 1350 299 1144 b 328 1092 297 1107 308 1093 z "},"ű":{"ha":608,"x_min":0,"x_max":0,"o":"m 39 496 b 151 106 22 281 51 178 b 304 56 197 74 251 56 b 592 371 479 56 592 242 b 554 628 592 464 554 521 b 563 785 554 689 563 693 b 531 907 563 826 564 867 b 478 935 515 925 496 935 b 365 749 433 935 365 865 b 481 299 365 593 481 404 b 299 158 481 190 353 158 b 144 319 185 158 144 246 b 311 708 144 540 311 625 b 196 817 311 769 258 817 b 39 496 46 817 47 599 z m 285 1190 b 54 963 146 1178 51 999 b 83 939 56 947 68 938 b 322 1083 101 940 232 1014 b 343 1138 339 1096 346 1118 b 285 1190 340 1167 321 1193 z m 333 942 b 536 1169 411 938 665 1115 b 303 974 463 1200 304 994 b 333 942 303 957 314 943 z "},"Ų":{"ha":760,"x_min":0,"x_max":0,"o":"m 306 725 b 171 972 306 978 178 972 b 18 756 64 972 18 869 b 118 349 18 599 118 488 b 100 163 118 304 100 235 b 254 -104 100 -7 185 -43 b 246 -242 288 -129 246 -204 b 381 -356 246 -311 306 -354 b 615 -146 526 -346 615 -212 b 558 -90 615 -133 613 -90 b 406 -231 489 -90 428 -207 b 361 -249 394 -242 378 -249 b 319 -207 339 -249 319 -237 b 411 -58 319 -201 329 -112 b 429 -44 418 -54 425 -49 b 501 143 490 4 494 92 b 738 564 521 304 738 311 b 704 733 738 621 728 678 b 486 1072 615 946 592 1072 b 407 1011 454 1072 407 1058 b 617 589 407 868 617 832 b 428 211 617 475 600 468 b 351 144 421 201 390 144 b 260 306 325 144 260 188 b 303 657 260 414 301 532 b 306 725 304 682 306 704 z "},"ų":{"ha":608,"x_min":0,"x_max":0,"o":"m 39 496 b 151 106 22 281 50 175 b 186 -137 286 14 176 4 b 319 -253 192 -207 244 -251 b 554 -43 465 -243 554 -110 b 497 13 554 -31 551 13 b 344 -128 428 13 367 -104 b 300 -146 333 -139 317 -146 b 258 -104 278 -146 258 -135 b 350 44 258 -99 268 -10 b 592 371 476 124 592 199 b 554 628 592 464 554 521 b 563 785 554 689 563 693 b 531 907 563 826 564 867 b 478 935 515 925 496 935 b 365 749 433 935 365 865 b 481 299 365 593 481 404 b 299 158 481 190 353 158 b 144 319 185 158 144 246 b 311 708 144 540 311 625 b 196 817 311 769 258 817 b 39 496 46 817 47 599 z "},"Ŵ":{"ha":992,"x_min":0,"x_max":0,"o":"m 131 401 b 296 -68 131 299 92 39 b 338 -79 310 -75 324 -79 b 458 169 421 -79 458 65 b 425 486 458 263 425 372 b 488 585 425 529 443 585 b 568 506 514 585 564 558 b 704 125 582 336 568 125 b 826 342 815 125 826 258 b 825 400 826 361 825 381 b 981 869 825 679 981 743 b 871 975 981 939 908 975 b 783 890 825 975 783 940 b 810 692 783 853 810 768 b 672 392 810 589 731 392 b 519 846 567 392 678 846 b 340 531 443 846 340 703 b 349 390 340 475 349 453 b 286 254 349 307 313 254 b 210 446 242 254 210 346 b 233 631 210 532 233 569 b 206 760 233 694 206 701 b 278 976 206 840 278 894 b 178 1060 278 1046 213 1060 b 19 854 82 1060 19 950 b 132 451 19 672 132 619 b 131 401 132 436 131 432 z m 686 1053 b 550 1236 685 1117 636 1236 b 351 1029 456 1236 351 1090 b 393 988 351 992 389 988 b 490 1081 425 988 447 1081 b 631 981 532 1081 560 981 b 686 1053 663 981 685 1007 z "},"ŵ":{"ha":750,"x_min":0,"x_max":0,"o":"m 729 333 b 582 897 722 629 703 897 b 457 763 538 897 457 850 b 576 475 457 667 576 538 b 504 413 576 435 540 413 b 403 574 410 413 403 561 b 407 643 403 600 407 621 b 349 714 407 711 357 714 b 269 629 314 714 269 676 b 307 449 269 558 307 476 b 267 411 307 414 271 411 b 192 519 232 411 192 449 b 254 704 192 589 254 646 b 163 793 254 756 206 793 b 25 608 81 793 25 706 b 124 318 25 472 124 424 b 110 190 124 281 110 257 b 171 126 110 131 157 126 b 290 332 246 126 228 260 b 346 363 308 353 326 363 b 606 165 425 363 476 165 b 729 333 621 165 722 169 z m 497 971 b 361 1154 496 1035 447 1154 b 163 947 267 1154 163 1008 b 204 906 163 910 200 906 b 301 999 236 906 258 999 b 442 899 343 999 371 899 b 497 971 474 899 496 925 z "},"Ŷ":{"ha":835,"x_min":0,"x_max":0,"o":"m 507 356 b 696 222 608 347 696 358 b 679 139 696 194 690 165 b 408 -61 614 -17 501 -33 b 365 -68 393 -67 379 -68 b 132 94 271 -68 264 21 b 93 104 119 101 106 104 b 15 21 60 104 15 76 b 293 -132 15 -111 218 -132 b 810 283 558 -132 810 64 b 676 717 810 511 676 592 b 719 968 676 776 719 894 b 629 1068 719 989 715 1068 b 525 829 536 1068 525 979 b 578 568 525 656 578 628 b 464 454 578 500 510 454 b 275 832 368 454 275 625 b 294 1015 275 935 294 974 b 231 1104 294 1065 272 1104 b 68 926 81 1104 68 964 b 269 497 68 760 246 665 b 300 408 274 467 289 438 b 404 349 324 354 385 349 b 507 356 417 349 489 354 z m 608 1190 b 472 1374 607 1254 558 1374 b 274 1167 378 1374 274 1228 b 315 1125 274 1129 311 1125 b 413 1218 347 1125 369 1218 b 553 1118 454 1218 482 1118 b 608 1190 585 1118 607 1144 z "},"ŷ":{"ha":690,"x_min":0,"x_max":0,"o":"m 225 122 b 335 -18 228 19 289 -18 b 440 94 357 -18 440 -7 b 382 407 440 192 382 263 b 672 890 382 651 672 735 b 607 956 672 929 644 956 b 307 601 421 956 375 601 b 193 931 258 601 247 731 b 125 993 182 974 154 993 b 15 849 74 993 15 936 b 297 421 15 579 297 608 b 225 122 297 331 229 225 z m 547 1065 b 411 1249 546 1129 497 1249 b 213 1042 317 1249 213 1103 b 254 1000 213 1004 250 1000 b 351 1093 286 1000 308 1093 b 492 993 393 1093 421 993 b 547 1065 524 993 546 1019 z "},"Ÿ":{"ha":835,"x_min":0,"x_max":0,"o":"m 507 356 b 696 222 608 347 696 358 b 679 139 696 194 690 165 b 408 -61 614 -17 501 -33 b 365 -68 393 -67 379 -68 b 132 94 271 -68 264 21 b 93 104 119 101 106 104 b 15 21 60 104 15 76 b 293 -132 15 -111 218 -132 b 810 283 558 -132 810 64 b 676 717 810 511 676 592 b 719 968 676 776 719 894 b 629 1068 719 989 715 1068 b 525 829 536 1068 525 979 b 578 568 525 656 578 628 b 464 454 578 500 510 454 b 275 832 368 454 275 625 b 294 1015 275 935 294 974 b 231 1104 294 1065 272 1104 b 68 926 81 1104 68 964 b 269 497 68 760 246 665 b 300 408 274 467 289 438 b 404 349 324 354 385 349 b 507 356 417 349 489 354 z m 601 1194 b 529 1276 601 1222 586 1276 b 446 1156 461 1276 446 1172 b 510 1097 446 1124 476 1097 b 601 1194 558 1097 601 1144 z m 321 1131 b 401 1193 367 1131 401 1171 b 347 1233 401 1217 374 1233 b 275 1168 308 1233 275 1204 b 321 1131 275 1143 296 1131 z "},"Ź":{"ha":833,"x_min":0,"x_max":0,"o":"m 401 979 b 168 821 286 979 168 919 b 268 714 168 772 206 714 b 558 789 333 714 440 789 b 599 757 600 789 599 757 b 29 151 599 664 29 375 b 314 0 29 6 256 0 b 806 238 528 0 806 97 b 710 317 806 282 771 317 b 296 131 569 317 469 131 b 197 222 240 131 197 165 b 711 838 197 421 711 615 b 401 979 711 989 440 979 z m 565 1274 b 315 1068 426 1274 315 1104 b 342 1042 315 1053 326 1042 b 593 1164 361 1042 497 1103 b 619 1215 611 1175 619 1196 b 565 1274 619 1244 601 1274 z "},"ź":{"ha":699,"x_min":0,"x_max":0,"o":"m 588 778 b 21 650 588 942 21 840 b 78 592 21 615 43 592 b 461 744 165 592 419 778 b 99 386 508 686 99 588 b 378 122 99 261 228 122 b 688 364 556 122 688 290 b 567 451 688 438 597 451 b 313 353 474 451 418 353 b 256 413 275 353 256 374 b 588 778 256 571 588 618 z m 433 1139 b 183 933 294 1139 183 969 b 210 907 183 918 194 907 b 461 1029 229 907 365 968 b 488 1081 479 1040 488 1061 b 433 1139 488 1110 469 1139 z "},"Ż":{"ha":833,"x_min":0,"x_max":0,"o":"m 401 979 b 168 821 286 979 168 919 b 268 714 168 772 206 714 b 558 789 333 714 440 789 b 599 757 600 789 599 757 b 29 151 599 664 29 375 b 314 0 29 6 256 0 b 806 238 528 0 806 97 b 710 317 806 282 771 317 b 296 131 569 317 469 131 b 197 222 240 131 197 165 b 711 838 197 421 711 615 b 401 979 711 989 440 979 z m 392 1119 b 446 1042 392 1103 399 1042 b 510 1111 482 1042 510 1076 b 450 1171 510 1146 485 1171 b 392 1119 419 1171 392 1149 z "},"ż":{"ha":699,"x_min":0,"x_max":0,"o":"m 588 778 b 21 650 588 942 21 840 b 78 592 21 615 43 592 b 461 744 165 592 419 778 b 99 386 508 686 99 588 b 378 122 99 261 228 122 b 688 364 556 122 688 290 b 567 451 688 438 597 451 b 313 353 474 451 418 353 b 256 413 275 353 256 374 b 588 778 256 571 588 618 z m 268 993 b 322 915 268 976 275 915 b 386 985 358 915 386 950 b 326 1044 386 1019 361 1044 b 268 993 296 1044 268 1022 z "},"Ž":{"ha":833,"x_min":0,"x_max":0,"o":"m 401 979 b 168 821 286 979 168 919 b 268 714 168 772 206 714 b 558 789 333 714 440 789 b 599 757 600 789 599 757 b 29 151 599 664 29 375 b 314 0 29 6 256 0 b 806 238 528 0 806 97 b 710 317 806 282 771 317 b 296 131 569 317 469 131 b 197 222 240 131 197 165 b 711 838 197 421 711 615 b 401 979 711 989 440 979 z m 240 1189 b 375 1040 240 1175 282 1040 b 593 1254 465 1040 593 1192 b 531 1321 593 1310 544 1321 b 388 1160 471 1321 463 1240 b 367 1149 381 1153 374 1149 b 339 1217 336 1149 343 1197 b 292 1267 333 1250 313 1267 b 240 1206 257 1267 240 1231 b 240 1194 240 1203 240 1200 b 240 1189 240 1193 240 1190 z "},"ž":{"ha":699,"x_min":0,"x_max":0,"o":"m 588 778 b 21 650 588 942 21 840 b 78 592 21 615 43 592 b 461 744 165 592 419 778 b 99 386 508 686 99 588 b 378 122 99 261 228 122 b 688 364 556 122 688 290 b 567 451 688 438 597 451 b 313 353 474 451 418 353 b 256 413 275 353 256 374 b 588 778 256 571 588 618 z m 193 1063 b 328 914 193 1049 235 914 b 546 1128 418 914 546 1065 b 483 1194 546 1183 497 1194 b 340 1033 424 1194 415 1114 b 319 1022 333 1026 326 1022 b 292 1090 289 1022 296 1071 b 244 1140 286 1124 265 1140 b 193 1079 210 1140 193 1104 b 193 1068 193 1076 193 1074 b 193 1063 193 1067 193 1064 z "},"Ș":{"ha":811,"x_min":0,"x_max":0,"o":"m 161 607 b 18 385 92 607 1 540 b 113 121 35 225 108 264 b 267 -60 115 43 129 -60 b 800 456 572 -60 800 294 b 682 639 800 496 774 618 b 167 831 353 714 167 711 b 274 926 167 897 229 926 b 463 800 365 926 356 800 b 594 933 526 800 594 853 b 499 1029 594 1004 540 1029 b 401 1017 472 1029 451 1017 b 215 1046 331 1017 303 1046 b 14 853 86 1046 14 964 b 631 438 14 589 631 685 b 360 174 631 343 507 174 b 235 290 283 174 235 221 b 271 489 235 339 271 410 b 161 607 271 576 206 607 z m 242 -451 b 374 -94 386 -451 500 -94 b 321 -136 358 -94 321 -104 b 326 -174 321 -150 326 -158 b 174 -381 326 -256 174 -282 b 242 -451 174 -450 232 -451 z "},"ș":{"ha":665,"x_min":0,"x_max":0,"o":"m 501 599 b 206 626 450 599 278 535 b 186 679 192 643 186 661 b 258 760 186 732 235 760 b 349 675 299 760 276 704 b 385 668 360 671 372 668 b 510 779 440 668 510 714 b 336 897 510 865 393 897 b 97 686 214 897 97 797 b 454 365 97 464 454 538 b 325 274 454 301 361 274 b 131 464 201 274 240 464 b 21 285 40 464 21 322 b 206 83 21 196 99 83 b 510 214 271 83 296 110 b 653 421 656 285 653 418 b 501 599 653 482 615 599 z m 244 -286 b 376 71 389 -286 503 71 b 324 29 361 71 324 61 b 329 -8 324 15 329 7 b 176 -215 329 -90 176 -117 b 244 -286 176 -285 235 -286 z "},"Ț":{"ha":1013,"x_min":0,"x_max":0,"o":"m 369 233 b 532 -60 369 -12 483 -60 b 638 78 590 -60 638 -3 b 492 582 638 208 492 332 b 697 814 492 603 478 814 b 901 736 807 814 824 736 b 997 842 946 736 997 789 b 789 1010 997 915 899 1010 b 457 939 679 1010 669 939 b 114 1050 296 939 228 1050 b 15 978 71 1050 15 1024 b 228 878 15 975 10 878 b 283 879 246 878 265 879 b 444 724 385 879 444 821 b 369 233 444 615 369 460 z m 393 -450 b 525 -93 538 -450 651 -93 b 472 -135 510 -93 472 -103 b 478 -172 472 -149 478 -157 b 325 -379 478 -254 325 -281 b 393 -450 325 -449 383 -450 z "},"ț":{"ha":688,"x_min":0,"x_max":0,"o":"m 92 704 b 256 643 99 704 256 719 b 136 256 256 586 136 429 b 258 67 136 185 165 67 b 357 174 317 67 357 126 b 288 386 357 240 288 303 b 332 590 288 457 332 472 b 332 614 332 603 332 606 b 343 689 332 639 336 664 b 390 724 350 715 363 724 b 546 707 415 724 501 707 b 672 817 626 707 672 756 b 543 939 672 836 667 939 b 233 801 417 939 381 801 b 129 810 196 801 185 810 b 19 757 57 810 19 783 b 92 704 19 729 53 704 z m 136 -343 b 268 14 281 -343 394 14 b 215 -28 253 14 215 4 b 221 -65 215 -42 221 -50 b 68 -272 221 -147 68 -174 b 136 -343 68 -342 126 -343 z "},"ˆ":{"ha":371,"x_min":0,"x_max":0,"o":"m 357 1044 b 221 1228 356 1108 307 1228 b 22 1021 126 1228 22 1082 b 64 979 22 983 60 979 b 161 1072 96 979 118 1072 b 301 972 203 1072 231 972 b 357 1044 333 972 356 999 z "},"ˇ":{"ha":382,"x_min":0,"x_max":0,"o":"m 13 1106 b 147 957 13 1092 54 957 b 365 1171 238 957 365 1108 b 303 1238 365 1226 317 1238 b 160 1076 243 1238 235 1157 b 139 1065 153 1069 146 1065 b 111 1133 108 1065 115 1114 b 64 1183 106 1167 85 1183 b 13 1122 29 1183 13 1147 b 13 1111 13 1119 13 1117 b 13 1106 13 1110 13 1107 z "},"ˉ":{"ha":363,"x_min":0,"x_max":0,"o":"m 228 971 b 336 1076 319 971 357 1043 b 293 1093 326 1093 310 1093 b 175 1103 186 1093 226 1103 b 21 1025 135 1103 21 1078 b 58 979 21 1010 29 982 b 138 989 107 974 103 989 b 228 971 165 989 207 971 z "},"˘":{"ha":300,"x_min":0,"x_max":0,"o":"m 282 1131 b 236 1186 278 1185 242 1186 b 122 1089 189 1186 154 1089 b 64 1157 99 1089 106 1157 b 19 1083 39 1157 19 1121 b 131 953 19 1022 65 953 b 282 1129 219 953 282 1071 b 282 1131 282 1131 282 1131 z "},"˙":{"ha":157,"x_min":0,"x_max":0,"o":"m 18 1060 b 72 982 18 1043 25 982 b 136 1051 108 982 136 1017 b 76 1111 136 1086 111 1111 b 18 1060 46 1111 18 1089 z "},"˚":{"ha":324,"x_min":0,"x_max":0,"o":"m 144 1125 b 176 1169 144 1167 165 1169 b 193 1154 188 1169 192 1163 b 144 1125 193 1097 144 1046 z m 208 1244 b 151 951 -54 1253 -3 951 b 208 1244 313 951 358 1240 z "},"˛":{"ha":406,"x_min":0,"x_max":0,"o":"m 158 -428 b 393 -218 304 -418 393 -285 b 336 -162 393 -206 390 -162 b 183 -303 267 -162 206 -279 b 139 -321 172 -314 156 -321 b 97 -279 117 -321 97 -310 b 189 -131 97 -274 107 -185 b 238 -58 226 -107 238 -76 b 197 -22 238 -36 219 -22 b 38 -311 122 -22 38 -232 b 158 -428 38 -381 83 -426 z "},"˜":{"ha":431,"x_min":0,"x_max":0,"o":"m 281 951 b 410 1069 401 957 410 1054 b 340 1151 410 1121 376 1151 b 232 1057 289 1151 261 1057 b 108 1121 208 1057 168 1121 b 21 1029 61 1121 21 1081 b 44 993 21 1024 19 993 b 117 1028 81 993 90 1028 b 281 951 156 1028 163 947 z "},"˝":{"ha":610,"x_min":0,"x_max":0,"o":"m 278 1243 b 47 1015 139 1231 44 1051 b 76 992 49 1000 61 990 b 315 1136 94 993 225 1067 b 336 1190 332 1149 339 1171 b 278 1243 333 1219 314 1246 z m 326 994 b 529 1222 404 990 658 1168 b 296 1026 456 1253 297 1047 b 326 994 296 1010 307 996 z "},"̦":{"ha":251,"x_min":0,"x_max":0,"o":"m 10 -392 b 142 -35 154 -392 268 -35 b 89 -76 126 -35 89 -44 b 94 -114 89 -90 94 -99 b -58 -321 94 -196 -58 -222 b 10 -392 -58 -390 0 -392 z "},"Ẁ":{"ha":992,"x_min":0,"x_max":0,"o":"m 131 401 b 296 -68 131 299 92 39 b 338 -79 310 -75 324 -79 b 458 169 421 -79 458 65 b 425 486 458 263 425 372 b 488 585 425 529 443 585 b 568 506 514 585 564 558 b 704 125 582 336 568 125 b 826 342 815 125 826 258 b 825 400 826 361 825 381 b 981 869 825 679 981 743 b 871 975 981 939 908 975 b 783 890 825 975 783 940 b 810 692 783 853 810 768 b 672 392 810 589 731 392 b 519 846 567 392 678 846 b 340 531 443 846 340 703 b 349 390 340 475 349 453 b 286 254 349 307 313 254 b 210 446 242 254 210 346 b 233 631 210 532 233 569 b 206 760 233 694 206 701 b 278 976 206 840 278 894 b 178 1060 278 1046 213 1060 b 19 854 82 1060 19 950 b 132 451 19 672 132 619 b 131 401 132 436 131 432 z m 389 1110 b 486 1031 389 1086 390 1053 b 640 935 597 1004 590 935 b 672 965 660 935 672 949 b 660 1004 672 978 665 997 b 461 1182 610 1072 546 1182 b 389 1110 422 1182 389 1149 z "},"ẁ":{"ha":750,"x_min":0,"x_max":0,"o":"m 729 333 b 582 897 722 629 703 897 b 457 763 538 897 457 850 b 576 475 457 667 576 538 b 504 413 576 435 540 413 b 403 574 410 413 403 561 b 407 643 403 600 407 621 b 349 714 407 711 357 714 b 269 629 314 714 269 676 b 307 449 269 558 307 476 b 267 411 307 414 271 411 b 192 519 232 411 192 449 b 254 704 192 589 254 646 b 163 793 254 756 206 793 b 25 608 81 793 25 706 b 124 318 25 472 124 424 b 110 190 124 281 110 257 b 171 126 110 131 157 126 b 290 332 246 126 228 260 b 346 363 308 353 326 363 b 606 165 425 363 476 165 b 729 333 621 165 722 169 z m 167 1046 b 264 967 167 1022 168 989 b 418 871 375 940 368 871 b 450 901 438 871 450 885 b 438 940 450 914 443 933 b 239 1118 388 1008 324 1118 b 167 1046 200 1118 167 1085 z "},"Ẃ":{"ha":992,"x_min":0,"x_max":0,"o":"m 131 401 b 296 -68 131 299 92 39 b 338 -79 310 -75 324 -79 b 458 169 421 -79 458 65 b 425 486 458 263 425 372 b 488 585 425 529 443 585 b 568 506 514 585 564 558 b 704 125 582 336 568 125 b 826 342 815 125 826 258 b 825 400 826 361 825 381 b 981 869 825 679 981 743 b 871 975 981 939 908 975 b 783 890 825 975 783 940 b 810 692 783 853 810 768 b 672 392 810 589 731 392 b 519 846 567 392 678 846 b 340 531 443 846 340 703 b 349 390 340 475 349 453 b 286 254 349 307 313 254 b 210 446 242 254 210 346 b 233 631 210 532 233 569 b 206 760 233 694 206 701 b 278 976 206 840 278 894 b 178 1060 278 1046 213 1060 b 19 854 82 1060 19 950 b 132 451 19 672 132 619 b 131 401 132 436 131 432 z m 649 1154 b 399 949 510 1154 399 985 b 425 922 399 933 410 922 b 676 1044 444 922 581 983 b 703 1096 694 1056 703 1076 b 649 1154 703 1125 685 1154 z "},"ẃ":{"ha":750,"x_min":0,"x_max":0,"o":"m 729 333 b 582 897 722 629 703 897 b 457 763 538 897 457 850 b 576 475 457 667 576 538 b 504 413 576 435 540 413 b 403 574 410 413 403 561 b 407 643 403 600 407 621 b 349 714 407 711 357 714 b 269 629 314 714 269 676 b 307 449 269 558 307 476 b 267 411 307 414 271 411 b 192 519 232 411 192 449 b 254 704 192 589 254 646 b 163 793 254 756 206 793 b 25 608 81 793 25 706 b 124 318 25 472 124 424 b 110 190 124 281 110 257 b 171 126 110 131 157 126 b 290 332 246 126 228 260 b 346 363 308 353 326 363 b 606 165 425 363 476 165 b 729 333 621 165 722 169 z m 458 1074 b 208 868 319 1074 208 904 b 235 842 208 853 219 842 b 486 964 254 842 390 903 b 513 1015 504 975 513 996 b 458 1074 513 1044 494 1074 z "},"Ẅ":{"ha":992,"x_min":0,"x_max":0,"o":"m 131 401 b 296 -68 131 299 92 39 b 338 -79 310 -75 324 -79 b 458 169 421 -79 458 65 b 425 486 458 263 425 372 b 488 585 425 529 443 585 b 568 506 514 585 564 558 b 704 125 582 336 568 125 b 826 342 815 125 826 258 b 825 400 826 361 825 381 b 981 869 825 679 981 743 b 871 975 981 939 908 975 b 783 890 825 975 783 940 b 810 692 783 853 810 768 b 672 392 810 589 731 392 b 519 846 567 392 678 846 b 340 531 443 846 340 703 b 349 390 340 475 349 453 b 286 254 349 307 313 254 b 210 446 242 254 210 346 b 233 631 210 532 233 569 b 206 760 233 694 206 701 b 278 976 206 840 278 894 b 178 1060 278 1046 213 1060 b 19 854 82 1060 19 950 b 132 451 19 672 132 619 b 131 401 132 436 131 432 z m 706 1040 b 633 1122 706 1068 690 1122 b 550 1001 565 1122 550 1018 b 614 943 550 969 581 943 b 706 1040 663 943 706 990 z m 425 976 b 506 1039 471 976 506 1017 b 451 1079 506 1063 478 1079 b 379 1014 413 1079 379 1050 b 425 976 379 989 400 976 z "},"ẅ":{"ha":750,"x_min":0,"x_max":0,"o":"m 729 333 b 582 897 722 629 703 897 b 457 763 538 897 457 850 b 576 475 457 667 576 538 b 504 413 576 435 540 413 b 403 574 410 413 403 561 b 407 643 403 600 407 621 b 349 714 407 711 357 714 b 269 629 314 714 269 676 b 307 449 269 558 307 476 b 267 411 307 414 271 411 b 192 519 232 411 192 449 b 254 704 192 589 254 646 b 163 793 254 756 206 793 b 25 608 81 793 25 706 b 124 318 25 472 124 424 b 110 190 124 281 110 257 b 171 126 110 131 157 126 b 290 332 246 126 228 260 b 346 363 308 353 326 363 b 606 165 425 363 476 165 b 729 333 621 165 722 169 z m 499 988 b 426 1069 499 1015 483 1069 b 343 949 358 1069 343 965 b 407 890 343 917 374 890 b 499 988 456 890 499 938 z m 218 924 b 299 986 264 924 299 964 b 244 1026 299 1010 271 1026 b 172 961 206 1026 172 997 b 218 924 172 936 193 924 z "},"–":{"ha":800,"x_min":0,"x_max":0,"o":"m 633 410 b 767 496 743 386 767 465 b 636 567 767 531 740 583 b 208 514 489 543 414 499 b 97 528 185 515 138 528 b 24 461 57 528 24 514 b 97 406 24 421 51 406 b 633 410 319 406 301 478 z "},"—":{"ha":1007,"x_min":0,"x_max":0,"o":"m 176 543 b 44 510 125 543 78 549 b 26 478 32 499 26 488 b 138 424 26 442 103 424 b 439 475 207 424 321 475 b 811 429 536 475 690 429 b 990 510 989 429 990 500 b 818 597 990 556 932 597 b 308 542 718 597 471 542 b 176 543 267 542 231 543 z "},"‘":{"ha":181,"x_min":0,"x_max":0,"o":"m 160 1040 b 92 1117 160 1083 142 1117 b 24 1014 26 1117 24 1039 b 36 867 24 986 33 878 b 60 844 40 853 50 844 b 160 1040 97 844 160 960 z "},"’":{"ha":181,"x_min":0,"x_max":0,"o":"m 160 1040 b 92 1117 160 1083 142 1117 b 24 1014 26 1117 24 1039 b 36 867 24 986 33 878 b 60 844 40 853 50 844 b 160 1040 97 844 160 960 z "},"‚":{"ha":181,"x_min":0,"x_max":0,"o":"m 160 61 b 92 138 160 104 142 138 b 24 35 26 138 24 60 b 36 -112 24 7 33 -101 b 60 -135 40 -126 50 -135 b 160 61 97 -135 160 -19 z "},"“":{"ha":363,"x_min":0,"x_max":0,"o":"m 171 1072 b 115 1156 171 1119 157 1156 b 18 990 72 1156 18 1090 b 49 835 18 938 35 886 b 72 817 51 828 64 817 b 171 1072 106 817 171 972 z m 347 1040 b 279 1117 347 1083 329 1117 b 211 1014 214 1117 211 1039 b 224 867 211 986 221 878 b 247 844 228 853 238 844 b 347 1040 285 844 347 960 z "},"”":{"ha":363,"x_min":0,"x_max":0,"o":"m 171 1072 b 115 1156 171 1119 157 1156 b 18 990 72 1156 18 1090 b 49 835 18 938 35 886 b 72 817 51 828 64 817 b 171 1072 106 817 171 972 z m 347 1040 b 279 1117 347 1083 329 1117 b 211 1014 214 1117 211 1039 b 224 867 211 986 221 878 b 247 844 228 853 238 844 b 347 1040 285 844 347 960 z "},"„":{"ha":363,"x_min":0,"x_max":0,"o":"m 171 76 b 115 160 171 124 157 160 b 18 -6 72 160 18 94 b 49 -161 18 -58 35 -110 b 72 -179 51 -168 64 -179 b 171 76 106 -179 171 -24 z m 347 44 b 279 121 347 88 329 121 b 211 18 214 121 211 43 b 224 -129 211 -10 221 -118 b 247 -151 228 -143 238 -151 b 347 44 285 -151 347 -36 z "},"•":{"ha":307,"x_min":0,"x_max":0,"o":"m 149 571 b 50 486 101 571 50 547 b 136 390 50 433 88 390 b 235 486 188 390 235 435 b 149 571 235 535 199 571 z "},"…":{"ha":788,"x_min":0,"x_max":0,"o":"m 76 175 b 131 97 76 158 83 97 b 194 167 167 97 194 132 b 135 226 194 201 169 226 b 76 175 104 226 76 204 z m 429 269 b 331 185 382 269 331 246 b 417 89 331 132 368 89 b 515 185 468 89 515 133 b 429 269 515 233 479 269 z m 664 133 b 729 182 700 133 729 157 b 669 228 729 206 696 228 b 610 178 642 228 610 206 b 664 133 610 154 631 133 z "},"‹":{"ha":644,"x_min":0,"x_max":0,"o":"m 490 94 b 626 211 619 94 626 193 b 117 483 626 404 117 372 b 386 694 117 556 258 553 b 499 768 442 756 461 735 b 521 810 514 781 521 796 b 440 879 521 844 481 879 b 210 696 389 879 299 824 b 14 499 114 558 14 589 b 174 325 14 413 156 335 b 490 94 307 247 336 101 z "},"›":{"ha":622,"x_min":0,"x_max":0,"o":"m 129 74 b 506 368 343 90 294 314 b 601 486 557 381 601 439 b 297 688 601 594 389 524 b 118 929 251 769 210 929 b 22 833 75 929 22 889 b 375 510 22 708 371 513 b 396 472 389 499 396 485 b 14 171 396 363 14 321 b 129 74 14 97 101 83 z "},"€":{"ha":968,"x_min":0,"x_max":0,"o":"m 333 417 b 506 421 356 431 424 421 b 636 483 643 421 636 481 b 560 542 636 525 601 542 b 403 503 513 542 453 503 b 351 539 346 503 351 538 b 399 592 351 553 357 592 b 519 574 418 592 461 574 b 575 622 558 574 575 596 b 496 676 575 660 535 676 b 451 674 482 676 467 674 b 418 694 429 674 418 681 b 599 838 418 747 546 838 b 744 631 665 838 628 631 b 875 788 803 631 875 703 b 701 957 875 806 861 957 b 275 668 457 957 329 668 b 203 683 251 668 228 683 b 146 629 171 683 146 660 b 217 568 146 593 176 572 b 249 554 240 567 249 565 b 185 475 249 553 233 475 b 107 494 153 475 143 494 b 15 399 58 494 15 456 b 104 290 15 338 64 290 b 192 338 150 290 175 338 b 258 181 213 338 196 265 b 606 11 340 71 472 11 b 958 263 776 11 958 124 b 878 322 958 325 881 322 b 493 201 764 322 644 201 b 321 253 431 201 374 218 b 289 325 299 268 289 296 b 333 417 289 363 306 401 z "},"−":{"ha":632,"x_min":0,"x_max":0,"o":"m 476 410 b 610 496 586 410 610 465 b 479 567 610 531 585 567 b 208 514 340 567 292 514 b 97 528 185 514 138 528 b 24 461 57 528 24 514 b 97 406 24 421 51 406 b 271 457 176 406 214 457 b 476 410 306 457 288 449 z "}}}
